<svg xmlns="http://www.w3.org/2000/svg" width="72" height="97" viewBox="0 0 72 97">
    <g fill="none" fill-rule="evenodd">
        <ellipse cx="35.741" cy="48.088" fill="#FFF" rx="27.659" ry="45.809"/>
        <path fill="#0082FC" d="M39.61 23.93l7.968 7.977-7.967 7.977V23.93zm0 49.114l7.968-7.977-7.967-7.976v15.953zm-8.536-24.5L13.773 31.11l5.008-5.014 13.773 13.789V6.837l25.041 25.07-16.504 16.637 16.618 16.637-25.041 25.07v-33.16L18.78 70.879l-5.008-5.014 17.301-17.32zm4.667 48.43c21.171 0 35.74-10.027 35.74-48.544C71.482 10.028 56.913 0 35.742 0 14.569 0 0 10.028 0 48.544c0 38.403 14.57 48.43 35.74 48.43z"/>
    </g>
</svg>
