<svg xmlns="http://www.w3.org/2000/svg" width="43" height="43" viewBox="0 0 43 43">
    <g fill="none" fill-rule="evenodd" transform="translate(1 1)">
        <circle cx="20.51" cy="20.51" r="20.51" stroke="#CECECE"/>
        <path fill="#CECECE" fill-rule="nonzero" d="M29.893 15.44s-.43.02-.704.344c-.037.043-.102.048-.139.004l-2.445-2.917a.385.385 0 0 0-.275-.137H14.67a.386.386 0 0 0-.275.137l-2.445 2.917c-.037.044-.102.04-.14-.004-.274-.324-.703-.344-.703-.344s-1.638-.024-1.493.77c.114.632.974.792 1.322.831.066.008.1.083.063.138l-.983 1.463a.387.387 0 0 0-.065.215v7.42c0 .214.172.386.385.386h3.27a.385.385 0 0 0 .386-.385v-1.043c0-.05.04-.09.089-.09h12.837c.05 0 .09.04.09.09v1.043c0 .213.172.385.385.385h3.27a.385.385 0 0 0 .386-.385v-7.421a.385.385 0 0 0-.066-.215l-.982-1.463a.088.088 0 0 1 .062-.138c.349-.039 1.208-.2 1.323-.83.145-.795-1.493-.77-1.493-.77zM16.45 22.817c-.304.128-.62.092-.944.09l-1.043-.008c-.38-.003-.824.014-1.174-.16a1.192 1.192 0 0 1-.607-.81 1.201 1.201 0 0 1 1.176-1.443c.87 0 1.595.494 2.324.907.053.03.106.06.159.088.206.113.41.253.523.46.194.35-.084.738-.414.876zm2.11-4.2a61.674 61.674 0 0 1-4.043-.302c-.465-.047-2.035-.127-1.53-.961l1.757-2.913c.196-.325.548-.523.927-.523H25.327c.38 0 .731.198.928.523l1.757 2.913c.448.74-.474.791-.92.853-2.82.393-5.686.509-8.53.41zm9.776 3.311c-.065.333-.3.66-.606.812-.35.173-.794.156-1.175.16-.347.001-.695.004-1.042.007-.324.002-.64.038-.945-.09-.33-.137-.608-.525-.414-.877.113-.206.317-.346.523-.459l.16-.088c.728-.413 1.453-.907 2.323-.907.742 0 1.327.673 1.176 1.442z"/>
    </g>
</svg>
