<svg xmlns="http://www.w3.org/2000/svg" width="43" height="43" viewBox="0 0 43 43">
    <g fill="none" fill-rule="evenodd" transform="translate(0 1)">
        <circle cx="21.48" cy="20.51" r="20.51" stroke="#CECECE"/>
        <path fill="#CECECE" fill-rule="nonzero" d="M30.996 13.446a.476.476 0 0 0-.471-.446h-18.05a.476.476 0 0 0-.471.446L12 25.819c0 .266.213.482.475.482h18.05A.478.478 0 0 0 31 25.82l-.004-12.373zM29.24 23.99H13.76v-9.22h15.48v9.22zm-4.7 4.624c.184.047.19.386 0 .386h-6.08c-.19 0-.184-.339 0-.386.76-.192.95-.77.95-1.542v-.192h4.18v.192c0 .771.19 1.35.95 1.542z"/>
    </g>
</svg>
