<svg xmlns="http://www.w3.org/2000/svg" width="24" height="24" viewBox="0 0 24 24">
    <g fill="none" fill-rule="evenodd">
        <path d="M0 0h24v24H0z"/>
        <path fill="#2F2F2F" d="M6.41 20.164l-3.352 3.317c-.7.692-1.834.692-2.533 0a1.76 1.76 0 0 1 0-2.507l3.29-3.255a7.39 7.39 0 0 1 1.017-9.28l2.027-2.007-1.52-1.504a1.408 1.408 0 0 1 0-2.006 1.444 1.444 0 0 1 2.026 0l1.52 1.505L12.94.415a1.444 1.444 0 0 1 2.027 0c.56.554.56 1.452 0 2.006l-4.054 4.011 6.588 6.519 4.053-4.011a1.444 1.444 0 0 1 2.027 0c.56.553.56 1.451 0 2.005l-4.053 4.012 1.52 1.504c.56.554.56 1.452 0 2.006a1.444 1.444 0 0 1-2.027 0l-1.52-1.505-2.027 2.006c-2.456 2.43-6.188 2.83-9.063 1.196z"/>
    </g>
</svg>
