<?xml version="1.0" encoding="UTF-8"?>
<svg width="58px" height="82px" viewBox="0 0 58 82" version="1.1" xmlns="http://www.w3.org/2000/svg" xmlns:xlink="http://www.w3.org/1999/xlink">
    <!-- Generator: Sketch 48.2 (47327) - http://www.bohemiancoding.com/sketch -->
    <title>create_account_icon</title>
    <desc>Created with Sketch.</desc>
    <defs></defs>
    <g id="Pre_Login-|-Tablet" stroke="none" stroke-width="1" fill="none" fill-rule="evenodd" transform="translate(-158.000000, -8731.000000)">
        <g id="CREATE-/-SIGN-UP" transform="translate(20.000000, 8699.000000)">
            <g id="Create-New-Account">
                <g id="create_account_icon" transform="translate(138.000000, 32.000000)">
                    <g id="Group" transform="translate(41.000000, 38.000000)" fill-rule="nonzero">
                        <path d="M6.97890819,12.9608295 C3.68087558,12.9608295 0.996986884,10.2769408 0.996986884,6.97890819 C0.996986884,3.68087558 3.68087558,0.996986884 6.97890819,0.996986884 C11.9439029,0.996986884 12.9608295,2.45856966 12.9608295,4.6519408 C12.9608295,8.27897909 10.0595977,12.9608295 6.97890819,12.9608295 Z" id="Shape" fill="#1D1D1D"></path>
                        <path d="M6.97890819,1.99397377 C11.9638426,1.99397377 11.9638426,3.46752038 11.9638426,4.6519408 C11.9638426,7.67281106 9.38563453,11.9638426 6.97890819,11.9638426 C4.22921836,11.9638426 1.99397377,9.72660404 1.99397377,6.97890819 C1.99397377,4.23121234 4.22921836,1.99397377 6.97890819,1.99397377 Z M6.97890819,0 C3.12455689,0 0,3.12455689 0,6.97890819 C0,10.8332595 3.12455689,13.9578164 6.97890819,13.9578164 C10.8332595,13.9578164 13.9578164,8.5062921 13.9578164,4.6519408 C13.9578164,0.797589507 10.8332595,0 6.97890819,0 Z" id="Shape" fill="#414141"></path>
                    </g>
                    <g id="Group" transform="translate(0.000000, 38.000000)" fill-rule="nonzero">
                        <path d="M6.97890819,12.9608295 C3.89821872,12.9608295 0.996986884,8.28097306 0.996986884,4.6519408 C0.996986884,2.45657568 2.01391351,0.996986884 6.97890819,0.996986884 C10.2769408,0.996986884 12.9608295,3.68087558 12.9608295,6.97890819 C12.9608295,10.2769408 10.2769408,12.9608295 6.97890819,12.9608295 Z" id="Shape" fill="#1D1D1D"></path>
                        <path d="M6.97890819,1.99397377 C9.72859801,1.99397377 11.9638426,4.23121234 11.9638426,6.97890819 C11.9638426,9.72660404 9.72859801,11.9638426 6.97890819,11.9638426 C4.57218185,11.9638426 1.99397377,7.67281106 1.99397377,4.6519408 C1.99397377,3.46752038 1.99397377,1.99397377 6.97890819,1.99397377 Z M6.97890819,0 C3.12455689,0 0,0.797589507 0,4.6519408 C0,8.5062921 3.12455689,13.9578164 6.97890819,13.9578164 C10.8332595,13.9578164 13.9578164,10.8332595 13.9578164,6.97890819 C13.9578164,3.12455689 10.8332595,0 6.97890819,0 Z" id="Shape" fill="#414141"></path>
                    </g>
                    <g id="Group" transform="translate(6.000000, 12.000000)" fill-rule="nonzero">
                        <path d="M21.0876199,61.1908287 C18.6548754,61.1908287 16.3985,60.1670964 14.7325781,58.3100033 L14.5715453,58.1293447 L14.3453327,58.0477569 C6.3377883,55.1591613 0.958528176,47.4452318 0.958528176,38.8513198 L0.958528176,10.4529476 C0.958528176,5.37313753 5.03610704,1.24129967 10.0492094,1.24129967 L32.1260304,1.24129967 C37.1391327,1.24129967 41.2167116,5.37313753 41.2167116,10.4529476 L41.2167116,38.8513198 C41.2167116,47.4452318 35.8374515,55.1591613 27.8318241,58.0477569 L27.6056115,58.1293447 L27.4445787,58.3100033 C25.7767397,60.1670964 23.5203644,61.1908287 21.0876199,61.1908287 Z" id="Shape" fill="#1D1D1D"></path>
                        <path d="M32.1260304,2.21258266 C36.6100252,2.21258266 40.2581834,5.90928574 40.2581834,10.4529476 L40.2581834,38.8513198 C40.2581834,47.0353503 35.1358088,54.3821349 27.5097587,57.1347509 L27.0573334,57.2979265 L26.7352679,57.6573012 C25.2514663,59.3084823 23.2443083,60.2195457 21.0876199,60.2195457 C18.9309315,60.2195457 16.9237735,59.3084823 15.4399719,57.6553586 L15.1179064,57.2959839 L14.6654811,57.1328084 C7.03943093,54.3821349 1.91705635,47.0353503 1.91705635,38.8513198 L1.91705635,10.4529476 C1.91705635,5.90928574 5.56521459,2.21258266 10.0492094,2.21258266 L32.1260304,2.21258266 Z M32.1260304,0.270016673 L10.0492094,0.270016673 C4.49933126,0.270016673 0,4.82921905 0,10.4529476 L0,38.8513198 C0,48.1367853 5.85660716,56.0177755 14.0213502,58.9646481 C15.7754567,60.9149843 18.2772153,62.1621117 21.0876199,62.1621117 C23.8980245,62.1621117 26.399783,60.9149843 28.1538896,58.9627055 C36.3186326,56.0158329 42.1752398,48.1367853 42.1752398,38.8513198 L42.1752398,10.4529476 C42.1752398,4.82921905 37.6759085,0.270016673 32.1260304,0.270016673 Z" id="Shape" fill="#414141"></path>
                    </g>
                    <g id="Group" fill-rule="nonzero">
                        <path d="M48.7473118,45.6718078 L48.7473118,32.7290407 C48.7473118,21.7654141 40.2462366,18.6738533 40.1590054,18.6448337 L39.5206317,18.420415 L39.0745632,18.925357 C39.0091398,18.9988735 32.3855175,26.3273043 19.8599126,26.3273043 C11.6403562,26.3273043 7.11424731,30.3939256 7.11424731,37.7745917 L7.11424731,45.6718078 L6.7891129,45.6718078 C5.67096774,42.9613718 1.16666667,31.4966725 1.16666667,23.1796388 C1.16666667,12.3630452 10.4369624,1.175 25.9482527,1.175 C34.0211022,1.175 38.2835349,5.12167339 40.1034946,7.47420027 L40.4008737,7.85919439 L40.8945228,7.85919439 C44.4749664,7.85919439 54.6948925,10.799853 54.6948925,23.8606334 C54.6948925,30.3977949 50.1529234,42.7659728 49.0506384,45.6718078 L48.7473118,45.6718078 Z" id="Shape" fill="#1D1D1D"></path>
                        <path d="M25.7728495,1.93464382 C33.4135081,1.93464382 37.4261425,5.64142137 39.1370632,7.85078461 L39.7318212,8.61883821 L40.7191196,8.61883821 C44.0418347,8.61883821 53.5282258,11.3815096 53.5282258,23.65489 C53.5282258,28.1819565 51.2661626,35.6535509 49.563172,40.6352587 L49.563172,32.5213626 C49.563172,20.88448 40.6953293,17.6574941 40.3186492,17.5259383 L39.0379368,17.0867742 L38.1497648,18.0831158 C37.8920363,18.3713777 31.7144825,25.1503696 19.6825269,25.1503696 C10.8265793,25.1503696 5.94758065,29.5594229 5.94758065,37.5669136 L5.94758065,40.9641482 C4.25053763,36.2204015 1.98252688,28.7933039 1.98252688,22.970026 C1.98252688,12.7725185 10.3210349,1.93464382 25.7728495,1.93464382 Z M25.7728495,0 C9.26434812,0 0,11.8593666 0,22.970026 C0,32.7283695 5.94758065,46.4314516 5.94758065,46.4314516 L7.93010753,46.4314516 C7.93010753,46.4314516 7.93010753,40.2521993 7.93010753,37.5669136 C7.93010753,29.3175924 13.6635753,27.0850134 19.6825269,27.0850134 C32.8603831,27.0850134 39.6505376,19.3464382 39.6505376,19.3464382 C39.6505376,19.3464382 47.5806452,22.1129788 47.5806452,32.5213626 C47.5806452,35.4755637 47.5806452,46.4314516 47.5806452,46.4314516 L49.563172,46.4314516 C49.563172,46.4314516 55.5107527,31.3257527 55.5107527,23.6529553 C55.5107527,10.1433375 44.8903562,6.68225974 40.7191196,6.68225974 C39.6644153,5.32413978 35.2770833,0 25.7728495,0 Z" id="Shape" fill="#414141"></path>
                    </g>
                    <g id="Group-12" transform="translate(33.000000, 57.000000)">
                        <circle id="Oval-2" stroke="#555555" stroke-width="2" fill="#373737" cx="12" cy="12" r="12"></circle>
                        <path d="M13,11 L18,11 L18,13 L13,13 L13,18 L11,18 L11,13 L6,13 L6,11 L11,11 L11,6 L13,6 L13,11 Z" id="Combined-Shape" fill="#808080"></path>
                    </g>
                </g>
            </g>
        </g>
    </g>
</svg>