
<svg width="156px" height="1748px" viewBox="0 0 156 1748" version="1.1" xmlns="http://www.w3.org/2000/svg" xmlns:xlink="http://www.w3.org/1999/xlink">
    <g id="Pre-Login" stroke="none" stroke-width="1" fill="none" fill-rule="evenodd">
        <g id="Pre_Login-|-Mobile" transform="translate(-88.000000, -6443.000000)" stroke="#000000" stroke-width="3">
            <g id="TRIPS-AND-LOCATIONS" transform="translate(0.000000, 6101.000000)">
                <g id="Trips-and-Locations">
                    <g id="Group-7" transform="translate(0.000000, 68.000000)">
                        <path d="M221.180711,274.409098 C219.301338,287.576104 171.469566,348.121556 163.731101,353.714116 C155.992637,359.306677 144.317739,397.304199 140.597718,418.275733 C136.877697,439.247266 136.205679,456.498779 108.313493,478.684502 C110.773764,484.320346 139.376695,551.617874 140.597718,555.54064 C141.818742,559.463406 157.081053,604.976224 134.467543,635.292153 C119.339153,655.573444 76.1149919,704.257124 94.2808354,730.272288 C116.001841,761.378772 111.256707,766.249198 112.318268,780.377533 C113.379829,794.505868 106.716595,814.128809 118.1523,832.902045 C129.588005,851.675281 127.530945,886.745535 124.845149,890.025897 C124.095677,900.283861 107.561744,924.788617 118.1523,946.566573 C128.742856,968.344529 132.704348,998.578528 144.757399,1016.12163 C156.81045,1033.66473 167.353167,1056.13065 170.294103,1065.55258 C173.235038,1074.9745 192.778248,1102.32907 191.805529,1112.31823 C190.832811,1122.30739 192.19735,1139.51562 192.388705,1159.91309 C192.580059,1180.31056 215.287451,1218.77963 224.119369,1226.13767 C232.951287,1233.4957 246.088679,1259.55635 240.999563,1288.17978 C235.910446,1316.80321 227.643479,1333.92488 227.914565,1347.82769 C228.18565,1361.7305 229.654979,1370.9998 224.119369,1382.27149 C218.583759,1393.54317 222.49969,1403.65307 224.119369,1408.19773 C225.739047,1412.7424 225.379119,1422.8409 212.638103,1435.57053 C199.897088,1448.30015 205.43042,1460.9865 199.897088,1465.32158 C194.363756,1469.65667 178.882271,1506.11197 176.86166,1529.47316 C174.841048,1552.83434 172.638194,1563.6322 176.86166,1575.92444 C181.085125,1588.21669 195.509604,1603.35874 185.417936,1620.31639 C175.326268,1637.27404 166.710763,1665.14572 170.294103,1676.68166 C173.877442,1688.2176 182.38588,1720.80936 180.481448,1729.213 C178.577016,1737.61665 176.447059,1764.46322 179.157913,1772.7917 C181.868767,1781.12017 189.887429,1821.40028 185.417936,1828.22981 C180.948444,1835.05934 182.572678,1864.5917 176.86166,1872.4304 C171.150641,1880.2691 166.890056,1914.73112 169.036631,1919.72228 C171.183206,1924.71344 188.823589,1937.97613 185.417936,1951.66025 C182.012283,1965.34437 189.229079,1980.18572 191.805529,1986.33412 C194.38198,1992.48252 199.165841,2018.57279 203.596607,2023.46372" id="Path-2"></path>
                    </g>
                </g>
            </g>
        </g>
    </g>
</svg>
