
<svg width="314px" height="1896px" viewBox="0 0 314 1896" version="1.1" xmlns="http://www.w3.org/2000/svg" xmlns:xlink="http://www.w3.org/1999/xlink">
    <!-- Generator: Sketch 48.2 (47327) - http://www.bohemiancoding.com/sketch -->
    <desc>Created with Sketch.</desc>
    <defs></defs>
    <g id="Pre-Login" stroke="none" stroke-width="1" fill="none" fill-rule="evenodd">
        <g id="Pre_Login-|-Desktop" transform="translate(-563.000000, -6689.000000)" stroke="#000000" stroke-width="5">
            <g id="TRIPS-/-MY-CAR-ZONE" transform="translate(50.000000, 6479.000000)">
                <g id="Map" transform="translate(58.000000, 69.000000)">
                    <g id="Trip" transform="translate(458.000000, 129.000000)">
                        <path id="pathy" d="M53.8007813,13.8710938 C60.3242188,21.15625 62.2460938,41.8242188 74.4765625,56.0429688 C86.7070313,70.2617188 96.3242188,101.300781 98,109.994141 C99.6757813,118.6875 104.832031,135.490234 106.478516,142.310547 C108.125,149.130859 112.746094,157.636719 112.130859,174.818359 C111.515625,192 114.59375,213.429687 115.169922,218.289063 C115.746094,223.148438 107.589844,267.123047 88.7832031,287.275391 C69.9765625,307.427734 30.8789063,372.486328 23.7480469,382.677734 C16.6171875,392.869141 -20.453125,438.697266 16.6171875,490.773438 C20.4589844,495.355469 23.8164063,499.753906 28.8964844,506.292969 C33.9765625,512.832031 45.8378906,529.564453 45.9355469,561.136719 C46.0332031,592.708984 45.6855469,610.150391 45.9355469,622.833984 C46.1855469,635.517578 40.8066406,656.398438 60.4882813,692.064453 C67.6132813,708.207031 71.734375,718.183594 71.4355469,735.435547 C71.1367188,752.6875 72.2011719,773.90625 73.1015625,778.980469 C74.0019531,784.054688 72.3948667,813.980469 57.7960662,837.292969 C43.1972656,860.605469 47.5546875,888.019531 53.8007813,908.644531 C57.9648438,922.394531 68.2871094,950.902995 84.7675781,994.169922 C91.4160156,1015.35742 102.264974,1036.77995 117.314453,1058.4375 C139.888672,1090.92383 181.644531,1184.87109 188.638672,1200.89844 C195.632813,1216.92578 207.160156,1229.24023 205.048828,1269.69531 C202.9375,1310.15039 203.121094,1299.09766 202.59375,1317.30664 C202.066406,1335.51563 202.808594,1352.88281 221.035156,1391.24805 C239.261719,1429.61328 255.4375,1453.19141 291.361328,1496.89258 C315.310547,1526.02669 313.660156,1575.51563 286.410156,1645.35938 C281.003906,1682.51042 278.759115,1705.91797 279.675781,1715.58203 C281.050781,1730.07813 274.917969,1771.58984 272.109375,1780.55859 C269.300781,1789.52734 260.841797,1808.54688 268.324219,1831.14063 C270.721354,1841.24479 261.005859,1866.25521 239.177734,1906.17188" id="Path-2"></path>
                    </g>
                </g>
            </g>
        </g>
    </g>
</svg>
