<?xml version="1.0" encoding="UTF-8"?>
<svg width="90px" height="89px" viewBox="0 0 90 89" version="1.1" xmlns="http://www.w3.org/2000/svg" xmlns:xlink="http://www.w3.org/1999/xlink">
    <!-- Generator: Sketch 48.2 (47327) - http://www.bohemiancoding.com/sketch -->
    <title>platform1-1</title>
    <desc>Created with Sketch.</desc>
    <defs></defs>
    <g id="Page-1" stroke="none" stroke-width="1" fill="none" fill-rule="evenodd">
        <g id="platform1-1" fill-rule="nonzero">
            <path d="M64.3604651,87.5930233 C59.9651163,87.5930233 56.3023256,83.9302326 56.3023256,79.5348837 L56.3023256,77.6511628 L57.6627907,77.6511628 L57.6627907,79.5348837 C57.6627907,83.1976744 60.6976744,86.2325581 64.3604651,86.2325581 C68.0232558,86.2325581 71.0581395,83.1976744 71.0581395,79.5348837 L71.0581395,70.744186 C71.0581395,67.1860465 73.9883721,64.3604651 77.4418605,64.3604651 C81,64.3604651 83.8255814,67.2906977 83.8255814,70.744186 L83.8255814,72.5232558 L82.4651163,72.5232558 L82.4651163,70.744186 C82.4651163,67.9186047 80.1627907,65.7209302 77.4418605,65.7209302 C74.6162791,65.7209302 72.4186047,68.0232558 72.4186047,70.744186 L72.4186047,79.5348837 C72.4186047,83.9302326 68.755814,87.5930233 64.3604651,87.5930233 Z" id="Shape" fill="#ACB3BA"></path>
            <path d="M63.2093023,24.0697674 L3.24418605,24.0697674 C1.77906977,24.0697674 0.523255814,25.3255814 0.523255814,26.7906977 L0.523255814,69.6976744 L65.4069767,69.6976744 L65.4069767,26.2674419 C65.4069767,25.1162791 64.3604651,24.0697674 63.2093023,24.0697674 Z" id="Shape" fill="#334A5E"></path>
            <path d="M0.523255814,69.8023256 L0.523255814,74.9302326 C0.523255814,76.3953488 1.77906977,77.6511628 3.24418605,77.6511628 L62.6860465,77.6511628 C64.1511628,77.6511628 65.4069767,76.3953488 65.4069767,74.9302326 L65.4069767,69.8023256 L0.523255814,69.8023256 Z" id="Shape" fill="#F2F2F2"></path>
            <path d="M34.5348837,73.6744186 C34.5348837,74.5116279 33.8023256,75.244186 32.9651163,75.244186 C32.127907,75.244186 31.3953488,74.5116279 31.3953488,73.6744186 C31.3953488,72.8372093 32.127907,72.1046512 32.9651163,72.1046512 C33.8023256,72.1046512 34.5348837,72.8372093 34.5348837,73.6744186 Z" id="Shape" fill="#CDD6E0"></path>
            <rect id="Rectangle-path" fill="#CDD6E0" x="20.5116279" y="77.6511628" width="24.8023256" height="7.22093023"></rect>
            <path d="M50.0232558,88.9534884 L15.8023256,88.9534884 L15.8023256,85.1860465 C15.8023256,84.9767442 15.9069767,84.872093 16.1162791,84.872093 L49.7093023,84.872093 C49.9186047,84.872093 50.0232558,84.9767442 50.0232558,85.1860465 L50.0232558,88.9534884 Z" id="Shape" fill="#F2F2F2"></path>
            <rect id="Rectangle-path" fill="#ACB3BA" x="20.5116279" y="77.6511628" width="24.8023256" height="1.98837209"></rect>
            <rect id="Rectangle-path" fill="#FFFFFF" x="4.81395349" y="28.0465116" width="56.1976744" height="37.7790698"></rect>
            <rect id="Rectangle-path" fill="#4A33DA" x="8.1627907" y="31.3953488" width="49.5" height="14.3372093"></rect>
            <rect id="Rectangle-path" fill="#F2F2F2" x="8.1627907" y="48.7674419" width="13.1860465" height="10.9883721"></rect>
            <rect id="Rectangle-path" fill="#CDD6E0" x="26.372093" y="48.7674419" width="13.1860465" height="10.9883721"></rect>
            <rect id="Rectangle-path" fill="#EE4F8E" x="44.4767442" y="48.7674419" width="13.1860465" height="10.9883721"></rect>
            <polygon id="Shape" fill="#40596B" points="52.3255814 54.9418605 54.3139535 61.9534884 56.0930233 60.1744186 57.872093 61.9534884 59.4418605 60.3837209 57.6627907 58.6046512 59.4418605 56.9302326"></polygon>
            <path d="M89.4767442,77.4418605 L89.4767442,82.6744186 C89.4767442,86.127907 86.6511628,88.9534884 83.1976744,88.9534884 C79.744186,88.9534884 76.9186047,86.127907 76.9186047,82.6744186 L76.9186047,77.4418605 C76.9186047,77.2325581 76.9186047,77.127907 76.9186047,76.9186047 C76.9186047,76.5 77.0232558,76.1860465 77.127907,75.7674419 C77.8604651,73.255814 79.9534884,71.372093 82.6744186,71.1627907 C82.8837209,71.1627907 83.0930233,71.1627907 83.1976744,71.1627907 C83.4069767,71.1627907 83.6162791,71.1627907 83.7209302,71.1627907 C85.1860465,71.2674419 86.5465116,72 87.5930233,72.9418605 C88.3255814,73.6744186 88.9534884,74.6162791 89.1627907,75.7674419 C89.2674419,76.1860465 89.372093,76.5 89.372093,76.9186047 C89.4767442,77.127907 89.4767442,77.3372093 89.4767442,77.4418605 Z" id="Shape" fill="#F2F2F2"></path>
            <path d="M89.2674419,75.7674419 L83.7209302,75.7674419 L83.7209302,71.1627907 C83.5116279,71.1627907 83.3023256,71.1627907 83.1976744,71.1627907 C82.9883721,71.1627907 82.7790698,71.1627907 82.6744186,71.1627907 L82.6744186,75.7674419 L77.127907,75.7674419 C77.0232558,76.1860465 76.9186047,76.5 76.9186047,76.9186047 L89.372093,76.9186047 C89.372093,76.6046512 89.372093,76.1860465 89.2674419,75.7674419 Z" id="Shape" fill="#FFFFFF"></path>
            <circle id="Oval" fill="#FFD15C" cx="42.6976744" cy="21.6627907" r="8.1627907"></circle>
            <path d="M42.6976744,27.7325581 C39.3488372,27.7325581 36.5232558,25.0116279 36.5232558,21.5581395 C36.5232558,18.1046512 39.244186,15.3837209 42.6976744,15.3837209 C46.0465116,15.3837209 48.872093,18.1046512 48.872093,21.5581395 C48.872093,25.0116279 46.1511628,27.7325581 42.6976744,27.7325581 Z" id="Shape" fill="#F8B64C"></path>
            <path d="M42.3837209,23.8604651 L42.3837209,21.872093 C41.755814,21.6627907 41.3372093,21.4534884 41.0232558,21.0348837 C40.7093023,20.7209302 40.6046512,20.3023256 40.6046512,19.7790698 C40.6046512,19.255814 40.8139535,18.8372093 41.127907,18.5232558 C41.4418605,18.2093023 41.8604651,18 42.3837209,17.8953488 L42.3837209,17.4767442 L43.0116279,17.4767442 L43.0116279,17.8953488 C43.5348837,18 43.8488372,18.1046512 44.1627907,18.4186047 C44.4767442,18.7325581 44.6860465,19.0465116 44.6860465,19.5697674 L43.5348837,19.6744186 C43.4302326,19.255814 43.3255814,19.0465116 43.0116279,18.9418605 L43.0116279,20.7209302 C43.744186,20.9302326 44.2674419,21.1395349 44.5813953,21.5581395 C44.8953488,21.872093 45,22.2906977 45,22.8139535 C45,23.3372093 44.7906977,23.8604651 44.4767442,24.2790698 C44.1627907,24.6976744 43.6395349,24.9069767 43.0116279,25.0116279 L43.0116279,25.8488372 L42.3837209,25.8488372 L42.3837209,25.0116279 C41.8604651,24.9069767 41.4418605,24.6976744 41.0232558,24.3837209 C40.7093023,24.0697674 40.5,23.5465116 40.3953488,22.9186047 L41.6511628,22.8139535 C41.6511628,23.0232558 41.755814,23.2325581 41.9651163,23.4418605 C42.1744186,23.6511628 42.2790698,23.755814 42.3837209,23.8604651 Z M42.3837209,18.9418605 C42.1744186,19.0465116 42.0697674,19.1511628 41.9651163,19.255814 C41.8604651,19.3604651 41.8604651,19.5697674 41.8604651,19.7790698 C41.8604651,19.9883721 41.8604651,20.0930233 41.9651163,20.1976744 C42.0697674,20.3023256 42.1744186,20.4069767 42.3837209,20.5116279 L42.3837209,18.9418605 Z M43.1162791,23.8604651 C43.3255814,23.8604651 43.5348837,23.755814 43.6395349,23.5465116 C43.744186,23.3372093 43.8488372,23.127907 43.8488372,22.9186047 C43.8488372,22.7093023 43.744186,22.5 43.6395349,22.3953488 C43.5348837,22.2906977 43.3255814,22.0813953 43.0116279,22.0813953 L43.0116279,23.8604651 L43.1162791,23.8604651 Z" id="Shape" fill="#FFD15C"></path>
            <path d="M34.5348837,11.6162791 C34.5348837,18 29.3023256,23.2325581 22.9186047,23.2325581 C16.5348837,23.2325581 11.3023256,18.1046512 11.3023256,11.6162791 C11.3023256,5.12790698 16.5348837,0 22.9186047,0 C29.3023256,0 34.5348837,5.12790698 34.5348837,11.6162791 Z" id="Shape" fill="#FFD15C"></path>
            <path d="M22.9186047,20.3023256 C18.1046512,20.3023256 14.127907,16.3255814 14.127907,11.5116279 C14.127907,6.69767442 18.1046512,2.72093023 22.9186047,2.72093023 C27.7325581,2.72093023 31.7093023,6.69767442 31.7093023,11.5116279 C31.7093023,16.3255814 27.7325581,20.3023256 22.9186047,20.3023256 Z" id="Shape" fill="#F8B64C"></path>
            <path d="M22.5,14.6511628 L22.5,11.8255814 C21.6627907,11.6162791 21.0348837,11.1976744 20.6162791,10.6744186 C20.1976744,10.1511628 19.9883721,9.52325581 19.9883721,8.89534884 C19.9883721,8.1627907 20.1976744,7.53488372 20.7209302,7.11627907 C21.1395349,6.59302326 21.7674419,6.38372093 22.5,6.27906977 L22.5,5.65116279 L23.4418605,5.65116279 L23.4418605,6.27906977 C24.1744186,6.38372093 24.6976744,6.59302326 25.1162791,7.01162791 C25.5348837,7.43023256 25.8488372,7.95348837 25.9534884,8.58139535 L24.2790698,8.79069767 C24.1744186,8.26744186 23.8604651,7.95348837 23.4418605,7.74418605 L23.4418605,10.3604651 C24.4883721,10.6744186 25.2209302,10.9883721 25.6395349,11.5116279 C26.0581395,11.9302326 26.2674419,12.5581395 26.2674419,13.2906977 C26.2674419,14.127907 26.0581395,14.755814 25.5348837,15.2790698 C25.0116279,15.8023256 24.3837209,16.1162791 23.5465116,16.3255814 L23.5465116,17.5813953 L22.6046512,17.5813953 L22.6046512,16.3255814 C21.872093,16.2209302 21.244186,15.9069767 20.7209302,15.4883721 C20.1976744,15.0697674 19.9883721,14.3372093 19.7790698,13.5 L21.5581395,13.2906977 C21.6627907,13.6046512 21.7674419,13.9186047 21.9767442,14.2325581 C21.9767442,14.4418605 22.1860465,14.5465116 22.5,14.6511628 Z M22.5,7.74418605 C22.2906977,7.84883721 22.0813953,7.95348837 21.872093,8.1627907 C21.7674419,8.37209302 21.6627907,8.58139535 21.6627907,8.89534884 C21.6627907,9.10465116 21.7674419,9.31395349 21.872093,9.52325581 C21.9767442,9.73255814 22.1860465,9.8372093 22.5,10.0465116 L22.5,7.74418605 Z M23.4418605,14.755814 C23.755814,14.6511628 24.0697674,14.5465116 24.2790698,14.3372093 C24.4883721,14.127907 24.5930233,13.8139535 24.5930233,13.5 C24.5930233,13.1860465 24.4883721,12.9767442 24.2790698,12.7674419 C24.0697674,12.5581395 23.8604651,12.3488372 23.4418605,12.244186 L23.4418605,14.755814 Z" id="Shape" fill="#FFD15C"></path>
        </g>
    </g>
</svg>