<?xml version="1.0" encoding="UTF-8"?>
<svg width="29px" height="38px" viewBox="0 0 29 38" version="1.1" xmlns="http://www.w3.org/2000/svg" xmlns:xlink="http://www.w3.org/1999/xlink">
    <!-- Generator: Sketch 48.2 (47327) - http://www.bohemiancoding.com/sketch -->
    <title>Shape</title>
    <desc>Created with Sketch.</desc>
    <defs></defs>
    <g id="Export-Trips-|-Mobile" stroke="none" stroke-width="1" fill="none" fill-rule="evenodd" transform="translate(-75.000000, -392.000000)">
        <g id="File-Format" transform="translate(44.000000, 352.000000)" fill="#C11E07" fill-rule="nonzero">
            <g id="Group-6" transform="translate(15.000000, 28.000000)">
                <g id="Group-3">
                    <path d="M34.1500467,23.82066 C33.4519102,23.82066 32.8866571,23.2550212 32.8866571,22.5572704 L32.8866571,12 L17.5475272,12 C16.6928516,12 16,12.6919081 16,13.5483742 L16,48.4466043 C16,49.3017478 16.6953988,49.9949785 17.5536087,49.9949785 L43.1537084,49.9949785 C44.0117428,49.9949785 44.7073171,49.2972783 44.7073171,48.442391 L44.7073171,23.82066 L34.1500467,23.82066 L34.1500467,23.82066 Z M38.0014264,39.1191175 C37.7348236,39.253494 37.3349192,39.3878705 36.8017134,39.3878705 C35.7353018,39.3878705 34.1356845,39.1191175 32.80267,38.4472353 C30.5365454,38.7159882 28.8036265,38.9847411 27.470612,39.522247 C27.3373106,39.522247 27.3373106,39.522247 27.2040091,39.6566234 C25.6043918,42.478529 24.2713773,43.8222936 23.2049657,43.8222936 C22.9383628,43.8222936 22.8050614,43.8222936 22.6717599,43.6879172 L22.0052527,43.2847878 L22.0052527,43.1504114 C21.8719512,42.8816584 21.8719512,42.747282 21.8719512,42.478529 C22.0052527,41.8066468 22.8050614,40.5972586 24.4046787,39.6566234 C24.6712816,39.522247 25.071186,39.253494 25.6043918,38.9847411 C26.0042961,38.3128588 26.4042005,37.5066 26.9374062,36.5659648 C27.6039135,35.2222002 28.0038178,33.8784356 28.4037222,32.6690475 C27.8705164,31.05653 27.6039135,30.1158948 28.1371193,28.2346243 C28.2704207,27.6971185 28.6703251,27.1596126 29.2035309,27.1596126 L29.4701338,27.1596126 C29.7367367,27.1596126 30.0033396,27.2939891 30.2699425,27.4283655 C31.2030526,28.3690007 30.8031482,30.5190241 30.2699425,32.2659181 L30.2699425,32.4002946 C30.8031482,33.8784356 31.6029569,35.0878238 32.4027656,35.8940825 C32.80267,36.1628354 33.0692729,36.4315883 33.6024787,36.7003413 C34.2689859,36.7003413 34.8021917,36.5659648 35.3353975,36.5659648 C36.9350149,36.5659648 38.0014264,36.8347177 38.4013308,37.5066 C38.5346322,37.7753529 38.5346322,38.0441059 38.5346322,38.3128588 C38.4013308,38.4472353 38.2680293,38.8503646 38.0014264,39.1191175 L38.0014264,39.1191175 Z M29.3368323,33.8784356 C29.0702294,34.8190709 28.5370236,35.8940825 28.0038178,37.1034707 C27.7372149,37.6409765 27.470612,38.0441059 27.2040091,38.5816117 L27.3373106,38.5816117 L27.470612,38.5816117 C29.2035309,37.9097294 30.8031482,37.5066 31.8695598,37.3722236 C31.6029569,37.2378471 31.4696555,37.1034707 31.336354,36.9690942 C30.6698468,36.1628354 29.8700381,35.0878238 29.3368323,33.8784356 L29.3368323,33.8784356 Z M37.4682207,38.0441059 C37.3349192,37.9097294 36.8017134,37.5066 34.9354931,37.5066 L34.6688902,37.5066 C34.6688902,37.5066 34.6688902,37.5066 34.6688902,37.6409765 C35.6020004,38.0441059 36.5351105,38.3128588 37.2016178,38.3128588 L37.4682207,38.3128588 L37.6015221,38.3128588 C37.6015221,38.3128588 37.6015221,38.3128588 37.6015221,38.1784823 C37.6015221,38.1784823 37.4682207,38.1784823 37.4682207,38.0441059 L37.4682207,38.0441059 Z M25.2044874,40.0597527 C24.9378845,40.1941292 24.6712816,40.3285057 24.5379802,40.4628822 C23.60487,41.2691409 22.9383628,42.2097761 22.8050614,42.6129055 C23.60487,42.478529 24.4046787,41.6722703 25.2044874,40.0597527 L25.2044874,40.0597527 Z M29.2035309,30.787777 C29.3368323,30.2502712 29.4701338,29.9815183 29.4701338,29.5783889 L29.4701338,29.309636 C29.6034352,28.6377537 29.6034352,28.1002478 29.4701338,27.9658714 C29.4701338,27.9658714 29.4701338,27.9658714 29.4701338,27.8314949 L29.3368323,27.6971185 C29.3368323,27.6971185 29.3368323,27.8314949 29.2035309,27.8314949 C28.936928,28.6377537 28.936928,29.5783889 29.2035309,30.787777 L29.2035309,30.787777 Z M44.7073171,22.1319943 L35.421744,22.1319943 C34.9542785,22.1319943 34.5753228,21.7532999 34.5753228,21.2855731 L34.5753228,12 L44.7073171,22.1319943 L44.7073171,22.1319943 Z" id="Shape"></path>
                </g>
            </g>
        </g>
    </g>
</svg>