<?xml version="1.0" encoding="UTF-8"?>
<svg width="29px" height="38px" viewBox="0 0 29 38" version="1.1" xmlns="http://www.w3.org/2000/svg" xmlns:xlink="http://www.w3.org/1999/xlink">
    <!-- Generator: Sketch 48.2 (47327) - http://www.bohemiancoding.com/sketch -->
    <title>Combined Shape</title>
    <desc>Created with Sketch.</desc>
    <defs></defs>
    <g id="Export-Trips-|-Mobile" stroke="none" stroke-width="1" fill="none" fill-rule="evenodd" transform="translate(-146.000000, -392.000000)">
        <g id="File-Format" transform="translate(44.000000, 352.000000)" fill="#0F9D58" fill-rule="nonzero">
            <g id="Group-6" transform="translate(15.000000, 28.000000)">
                <g id="Group-2" transform="translate(71.000000, 0.000000)">
                    <g id="Group-4">
                        <path d="M34.1500467,23.82066 L44.7073171,23.82066 L44.7073171,48.442391 C44.7073171,49.2972783 44.0117428,49.9949785 43.1537084,49.9949785 L17.5536087,49.9949785 C16.6953988,49.9949785 16,49.3017478 16,48.4466043 L16,13.5483742 C16,12.6919081 16.6928516,12 17.5475272,12 L32.8866571,12 L32.8866571,22.5572704 C32.8866571,23.2550212 33.4519102,23.82066 34.1500467,23.82066 Z M44.7073171,22.1319943 L35.421744,22.1319943 C34.9542785,22.1319943 34.5753228,21.7532999 34.5753228,21.2855731 L34.5753228,12 L44.7073171,22.1319943 Z M22.0991087,38.3150407 L23.789252,38.3150407 L24.4459319,36.8832632 C24.6074106,36.5172449 24.758124,36.1619919 24.9303679,35.7313821 L24.9734289,35.7313821 C25.156438,36.1619919 25.3179167,36.5172449 25.5009258,36.8832632 L26.1899014,38.3150407 L27.9554014,38.3150407 L26.0176575,34.7840407 L27.8369837,31.2961016 L26.1468404,31.2961016 L25.5870478,32.6202266 C25.4470996,32.9431839 25.3071514,33.3092022 25.1456728,33.7505772 L25.1026118,33.7505772 C24.8980722,33.3092022 24.7473587,32.9431839 24.5858801,32.6202266 L23.9830264,31.2961016 L22.2067612,31.2961016 L24.0368526,34.7086839 L22.0991087,38.3150407 Z M29.1745653,38.3150407 L33.5344891,38.3150407 L33.5344891,36.9801504 L30.7678214,36.9801504 L30.7678214,31.2961016 L29.1745653,31.2961016 L29.1745653,38.3150407 Z M34.2584517,37.4322907 C34.979723,38.0997358 35.948595,38.4442236 36.8636407,38.4442236 C38.5322535,38.4442236 39.5011255,37.4322907 39.5011255,36.2696443 C39.5011255,35.2792419 38.9628633,34.7086839 38.112409,34.3641961 L37.2188938,33.9981778 C36.6052749,33.7505772 36.1423694,33.5998638 36.1423694,33.1692541 C36.1423694,32.77094 36.4976224,32.5341047 37.0358846,32.5341047 C37.5956773,32.5341047 38.0370523,32.7386443 38.4999578,33.0938974 L39.2965858,32.0927297 C38.6937322,31.489876 37.8432779,31.1669187 37.0358846,31.1669187 C35.5825767,31.1669187 34.538348,32.0927297 34.538348,33.255376 C34.538348,34.2780742 35.2273236,34.8809278 35.9593602,35.1715894 L36.8636407,35.5591382 C37.4772596,35.8175041 37.8755736,35.9574522 37.8755736,36.3988272 C37.8755736,36.8186717 37.5526163,37.0770376 36.8959364,37.0770376 C36.3146133,37.0770376 35.6686986,36.7756108 35.1734974,36.345001 L34.2584517,37.4322907 Z" id="Combined-Shape"></path>
                    </g>
                </g>
            </g>
        </g>
    </g>
</svg>