<?xml version="1.0" encoding="UTF-8"?>
<svg width="9px" height="10px" viewBox="0 0 9 10" version="1.1" xmlns="http://www.w3.org/2000/svg" xmlns:xlink="http://www.w3.org/1999/xlink">
    <!-- Generator: Sketch 48.2 (47327) - http://www.bohemiancoding.com/sketch -->
    <title>Shape</title>
    <desc>Created with Sketch.</desc>
    <defs></defs>
    <g id="My-Trips-|-Mobile" stroke="none" stroke-width="1" fill="none" fill-rule="evenodd" transform="translate(-130.000000, -122.000000)">
        <g id="Group-10" transform="translate(130.000000, 116.000000)" fill="#9BA1A9" fill-rule="nonzero">
            <path d="M2.12340308,6 C1.78498493,6.00031348 1.49473062,6.24150241 1.4324618,6.57414265 L0.0125845056,14.1393164 C-0.0276543095,14.3535281 0.0296924157,14.5745274 0.169011704,14.742146 C0.308330992,14.9097645 0.515119274,15.0065526 0.733077244,15.0061592 L3.93167098,15.0061592 L3.93167098,12.4731769 L5.05744089,12.4731769 L5.05744089,15.0061592 L8.25603463,15.0061592 C8.47374647,15.0061334 8.68014111,14.9091664 8.8191419,14.7416038 C8.9581427,14.5740412 9.01531311,14.353286 8.97512015,14.1393164 L7.55665007,6.57414265 C7.49438125,6.24150241 7.20412694,6.00031348 6.8657088,6 L5.05744089,6 L5.05744089,7.97009733 L3.93167098,7.97009733 L3.93167098,6 L2.12340308,6 Z M5.05744089,9.09586724 L5.05744089,11.347407 L3.93167098,11.347407 L3.93167098,9.09586724 L5.05744089,9.09586724 Z" id="Shape"></path>
        </g>
    </g>
</svg>