<?xml version="1.0" encoding="UTF-8"?>
<svg width="16px" height="16px" viewBox="0 0 16 16" version="1.1" xmlns="http://www.w3.org/2000/svg" xmlns:xlink="http://www.w3.org/1999/xlink">
    <!-- Generator: Sketch 48.2 (47327) - http://www.bohemiancoding.com/sketch -->
    <title>Shape</title>
    <desc>Created with Sketch.</desc>
    <defs></defs>
    <g id="Location-Detail-|-Desktop-" stroke="none" stroke-width="1" fill="none" fill-rule="evenodd" transform="translate(-165.000000, -363.000000)" fill-opacity="0.5">
        <g id="Search-Bar" transform="translate(132.000000, 146.000000)" fill="#000000" fill-rule="nonzero">
            <g id="Address">
                <g transform="translate(21.000000, 210.000000)">
                    <g id="Stop-Button">
                        <g id="Label" transform="translate(12.000000, 7.000000)">
                            <path d="M15.8571593,7.6535548 L8.34503007,0.141248052 C8.28875479,0.0847952426 8.22129545,0.0471600362 8.15028563,0.0242593681 C8.04554614,-0.00964782261 7.93228547,-0.00840515069 7.82878865,0.0304727276 C7.82470559,0.0320704487 7.820445,0.0324254978 7.81653946,0.0342007434 C7.81600689,0.0343782679 7.81565184,0.0347333171 7.81511926,0.0349108416 C7.75689121,0.0586991325 7.70239117,0.0940265196 7.65516964,0.141425577 L0.142862889,7.6535548 C-0.0476209629,7.84386113 -0.0476209629,8.15293138 0.142862889,8.34341523 L7.65499211,15.8555445 C7.84547596,16.0460283 8.1543687,16.0460283 8.34485255,15.8555445 L15.8569818,8.34341523 C16.0476431,8.15275386 16.0476431,7.84386113 15.8571593,7.6535548 Z M9.06684493,4.93547628 C9.04518693,4.81529216 9.09365113,4.70149891 9.19501766,4.63368453 C9.22058119,4.61646465 9.24756493,4.60368288 9.27543628,4.59498418 C9.28271479,4.59267636 9.29034835,4.59320893 9.29780438,4.59143369 C9.31839723,4.58681805 9.33899007,4.58202489 9.3601155,4.58202489 C9.37627023,4.58202489 9.39242497,4.58610795 9.40840218,4.58877082 C9.4201188,4.59090111 9.43201294,4.59054607 9.44337452,4.59391903 C9.47089082,4.60208516 9.49769703,4.61415683 9.52308304,4.63066662 L11.9965327,6.92623668 L9.52290552,9.2221618 C9.49734198,9.23867158 9.47053577,9.25074325 9.44301947,9.25890938 C9.43769373,9.2605071 9.43219047,9.25997453 9.42686473,9.26139473 C9.40449664,9.26654294 9.38212854,9.27098105 9.3594054,9.27098105 C9.34484839,9.27080353 9.33064642,9.26672046 9.31608941,9.26441264 C9.30242002,9.26210483 9.28839558,9.26210483 9.27490371,9.25802176 C9.2473874,9.24932306 9.22040367,9.23671881 9.19484013,9.21949893 C9.09365113,9.15150703 9.04518693,9.03771378 9.0666674,8.91752966 L9.30756823,7.58840329 L6.7347048,7.57881696 L6.71748492,10.6911775 L5.42901167,10.6911775 L5.41427713,7.21063103 C5.41285694,6.69527723 5.82915203,6.27631927 6.3443283,6.27472155 L9.30774575,6.2649577 L9.06684493,4.93547628 Z" id="Shape"></path>
                        </g>
                    </g>
                </g>
            </g>
        </g>
    </g>
</svg>