<?xml version="1.0" encoding="UTF-8"?>
<svg width="7px" height="16px" viewBox="0 0 7 16" version="1.1" xmlns="http://www.w3.org/2000/svg" xmlns:xlink="http://www.w3.org/1999/xlink">
    <!-- Generator: Sketch 48.2 (47327) - http://www.bohemiancoding.com/sketch -->
    <title>Icons / Bolt Up</title>
    <desc>Created with Sketch.</desc>
    <defs></defs>
    <g id="Location-Detail-|-Desktop-" stroke="none" stroke-width="1" fill="none" fill-rule="evenodd" transform="translate(-464.000000, -363.000000)" fill-opacity="0.5">
        <g id="Search-Bar" transform="translate(132.000000, 146.000000)" fill="#000000">
            <g id="Address">
                <g transform="translate(21.000000, 210.000000)">
                    <g id="Stop-Button-Copy-2" transform="translate(297.000000, 0.000000)">
                        <g id="Label" transform="translate(14.000000, 7.000000)">
                            <path d="M4.90926248,7.2414027 L4.95276742,7.24180025 C5.77866972,7.23078517 7.12237673,7.23618228 7.32595966,7.24050849 L6.44819581,7.22185568 C6.9329714,7.23215734 6.95938842,7.79899426 6.50159529,8.4964602 L2.56343735,14.4963995 C2.10815348,15.1900425 1.08363883,15.9354458 0.885716877,15.990735 L1.73907298,15.7523512 C1.26777742,15.8840069 1.06972547,15.3385099 1.2959798,14.5365434 L2.73431086,9.43832744 C2.73431086,9.43832744 2.73714909,9.42745582 2.74229818,9.40833619 L2.69915189,9.40915572 C1.8732496,9.4201708 0.51211079,9.41440326 0.325959655,9.41044748 L1.2037235,9.42910029 C0.718947915,9.41879863 0.709969002,8.82539406 1.17448749,8.11768178 L5.06431849,2.19137046 C5.53294748,1.47739568 6.58522755,0.710776069 6.76620243,0.660221007 L5.91284633,0.898604759 C6.38414189,0.766949048 6.57877626,1.32455977 6.34672784,2.1470637 L4.91760845,7.21262853 C4.91760845,7.21262853 4.91453404,7.22343983 4.90926248,7.2414027 Z" id="Icons-/-Bolt-Up"></path>
                        </g>
                    </g>
                </g>
            </g>
        </g>
    </g>
</svg>