<?xml version="1.0" encoding="UTF-8"?>
<svg width="10px" height="11px" viewBox="0 0 10 11" version="1.1" xmlns="http://www.w3.org/2000/svg" xmlns:xlink="http://www.w3.org/1999/xlink">
    <!-- Generator: Sketch 48.2 (47327) - http://www.bohemiancoding.com/sketch -->
    <title>Combined Shape Copy</title>
    <desc>Created with Sketch.</desc>
    <defs></defs>
    <g id="My-Trips-|-Mobile" stroke="none" stroke-width="1" fill="none" fill-rule="evenodd" transform="translate(-207.000000, -121.000000)">
        <g id="Group-11" transform="translate(207.000000, 116.000000)" fill="#9BA1A9">
            <path d="M8.23529412,6.52783683 C9.2289539,6.64431813 10,7.49069813 10,8.52036807 L10,13.8598062 C10,14.9678037 9.11256671,15.8660131 8.00038502,15.8660131 L1.99961498,15.8660131 C0.895258123,15.8660131 0,14.9693182 0,13.8598062 L0,8.52036807 C0,7.49160454 0.765049117,6.6436976 1.76470588,6.52768929 L1.76470588,6.76183441 C1.76470588,7.41535306 2.29142971,7.94117647 2.94117647,7.94117647 C3.59545315,7.94117647 4.11764706,7.41316705 4.11764706,6.76183441 L4.11764706,6.51416122 L5.88235294,6.51416122 L5.88235294,6.76593346 C5.88235294,7.42039961 6.40907676,7.94117647 7.05882353,7.94117647 C7.71310021,7.94117647 8.23529412,7.41500225 8.23529412,6.76593346 L8.23529412,6.52783683 Z M1.17647059,10.5882353 C1.17647059,11.0789428 1.57151346,11.4705882 2.05882353,11.4705882 C2.54953104,11.4705882 2.94117647,11.0755454 2.94117647,10.5882353 C2.94117647,10.0975278 2.5461336,9.70588235 2.05882353,9.70588235 C1.56811602,9.70588235 1.17647059,10.1009252 1.17647059,10.5882353 Z M4.11764706,10.5882353 C4.11764706,11.0789428 4.51268993,11.4705882 5,11.4705882 C5.49070751,11.4705882 5.88235294,11.0755454 5.88235294,10.5882353 C5.88235294,10.0975278 5.48731007,9.70588235 5,9.70588235 C4.50929249,9.70588235 4.11764706,10.1009252 4.11764706,10.5882353 Z M7.05882353,10.5882353 C7.05882353,11.0789428 7.4538664,11.4705882 7.94117647,11.4705882 C8.43188398,11.4705882 8.82352941,11.0755454 8.82352941,10.5882353 C8.82352941,10.0975278 8.42848654,9.70588235 7.94117647,9.70588235 C7.45046896,9.70588235 7.05882353,10.1009252 7.05882353,10.5882353 Z M1.17647059,13.5294118 C1.17647059,14.0201193 1.57151346,14.4117647 2.05882353,14.4117647 C2.54953104,14.4117647 2.94117647,14.0167218 2.94117647,13.5294118 C2.94117647,13.0387043 2.5461336,12.6470588 2.05882353,12.6470588 C1.56811602,12.6470588 1.17647059,13.0421017 1.17647059,13.5294118 Z M4.11764706,13.5294118 C4.11764706,14.0201193 4.51268993,14.4117647 5,14.4117647 C5.49070751,14.4117647 5.88235294,14.0167218 5.88235294,13.5294118 C5.88235294,13.0387043 5.48731007,12.6470588 5,12.6470588 C4.50929249,12.6470588 4.11764706,13.0421017 4.11764706,13.5294118 Z M7.05882353,13.5294118 C7.05882353,14.0201193 7.4538664,14.4117647 7.94117647,14.4117647 C8.43188398,14.4117647 8.82352941,14.0167218 8.82352941,13.5294118 C8.82352941,13.0387043 8.42848654,12.6470588 7.94117647,12.6470588 C7.45046896,12.6470588 7.05882353,13.0421017 7.05882353,13.5294118 Z M2.35294118,5.59374641 C2.35294118,5.26582932 2.62580423,5 2.94117647,5 C3.26604985,5 3.52941176,5.26991227 3.52941176,5.59374641 L3.52941176,6.75919477 C3.52941176,7.08711185 3.25654871,7.35294118 2.94117647,7.35294118 C2.61630309,7.35294118 2.35294118,7.08302891 2.35294118,6.75919477 L2.35294118,5.59374641 Z M6.47058824,5.59374641 C6.47058824,5.26582932 6.74345129,5 7.05882353,5 C7.38369691,5 7.64705882,5.26991227 7.64705882,5.59374641 L7.64705882,6.75919477 C7.64705882,7.08711185 7.37419577,7.35294118 7.05882353,7.35294118 C6.73395015,7.35294118 6.47058824,7.08302891 6.47058824,6.75919477 L6.47058824,5.59374641 Z" id="Combined-Shape-Copy"></path>
        </g>
    </g>
</svg>