<?xml version="1.0" encoding="UTF-8"?>
<svg width="11px" height="9px" viewBox="0 0 11 9" version="1.1" xmlns="http://www.w3.org/2000/svg" xmlns:xlink="http://www.w3.org/1999/xlink">
    <!-- Generator: Sketch 48.2 (47327) - http://www.bohemiancoding.com/sketch -->
    <title>Shape</title>
    <desc>Created with Sketch.</desc>
    <defs></defs>
    <g id="My-Trips-|-Mobile" stroke="none" stroke-width="1" fill="none" fill-rule="evenodd" transform="translate(-82.000000, -122.000000)">
        <g id="Group-8" transform="translate(82.000000, 116.000000)" fill="#9BA1A9" fill-rule="nonzero">
            <path d="M10.7904325,13.450638 L6.85658433,6.63868368 C6.61078177,6.21255876 6.28741038,6 5.96303161,6 C5.63865283,6 5.31528144,6.21255876 5.06947889,6.63868368 L1.1406676,13.450638 C0.644025561,14.3028878 1.04698056,15 2.03422032,15 L9.89184289,15 C10.8790826,15 11.2820376,14.3028878 10.7904325,13.450638 Z M5.45127875,9.43418402 L6.47579185,9.43418402 L6.47579185,11.8176629 L5.45027136,11.8176629 L5.45027136,9.43418402 L5.45127875,9.43418402 Z M5.96403899,13.3629953 C5.65414382,13.3629953 5.40292415,13.1117756 5.40292415,12.8018805 C5.40292415,12.4919853 5.65414382,12.2407656 5.96403899,12.2407656 C6.27393416,12.2407656 6.52515384,12.4919853 6.52515384,12.8018805 C6.52542188,12.9510466 6.46628454,13.0941803 6.36080801,13.1996569 C6.25533148,13.3051334 6.1121977,13.3642707 5.96303161,13.3640027 L5.96403899,13.3629953 Z" id="Shape"></path>
        </g>
    </g>
</svg>