<?xml version="1.0" encoding="UTF-8"?>
<svg width="38px" height="56px" viewBox="0 0 38 56" version="1.1" xmlns="http://www.w3.org/2000/svg" xmlns:xlink="http://www.w3.org/1999/xlink">
    <!-- Generator: Sketch 48.2 (47327) - http://www.bohemiancoding.com/sketch -->
    <title>Icons / Pin Copy 5</title>
    <desc>Created with Sketch.</desc>
    <defs></defs>
    <g id="Type-Ahead-Search-|-Desktop-" stroke="none" stroke-width="1" fill="none" fill-rule="evenodd" transform="translate(-172.000000, -516.000000)">
        <g id="Map" transform="translate(-273.000000, 4.000000)">
            <g id="Map-Pins" transform="translate(359.000000, 141.000000)">
                <g id="Icons-/-Pin-Copy-5" transform="translate(86.000000, 371.000000)">
                    <path d="M19,55.2727273 C22.2039293,55.2727273 24.731639,50.1456815 28.4026868,43.5341207 C32.7464919,35.7109232 38,25.8092487 38,19.8636364 C38,8.89325292 29.4934102,0 19,0 C8.50658975,0 0,8.89325292 0,19.8636364 C0,25.8104054 4.82306217,35.7147763 9.16803053,43.5386867 C12.8385019,50.1480419 15.7968083,55.2727273 19,55.2727273 Z" id="Oval-3" fill="#75859A"></path>
                    <g id="Icons-/-Bolt-Up" transform="translate(12.522727, 9.500000)" fill="#FFFFFF">
                        <path d="M9.27859343,12.382833 C10.8869302,12.3791293 13.4693129,12.4165737 13.8443591,12.4283628 L12.1383524,12.3747363 C13.0805539,12.4043534 13.1183782,13.5341517 12.2216317,14.9000447 L4.25318368,27.0373069 C3.64942309,27.956934 2.29454431,28.9336422 1.50658765,29.1441471 L3.15997844,28.702439 C2.24683592,28.9463877 1.85737677,27.8689575 2.29168145,26.290172 L4.96643888,16.5668865 C4.96643888,16.5668865 4.96800587,16.5607103 4.97098345,16.5491692 C3.36230456,16.5528555 0.763996629,16.514903 0.405640878,16.5036385 L2.11164759,16.557265 C1.1694461,16.5276479 1.14846299,15.3721977 2.06335245,13.97867 L9.99681632,1.89469443 C10.6005769,0.975067364 11.9554557,-0.00164088883 12.7434123,-0.212145776 L11.0900216,0.229562325 C12.0031641,-0.0143863227 12.3861789,1.08647021 11.9409566,2.70494348 L9.28356112,12.3651148 C9.28356112,12.3651148 9.28181435,12.3714125 9.27859343,12.382833 Z"></path>
                    </g>
                </g>
            </g>
        </g>
    </g>
</svg>