<?xml version="1.0" encoding="UTF-8"?>
<svg width="22px" height="32px" viewBox="0 0 22 32" version="1.1" xmlns="http://www.w3.org/2000/svg" xmlns:xlink="http://www.w3.org/1999/xlink">
    <!-- Generator: Sketch 48.2 (47327) - http://www.bohemiancoding.com/sketch -->
    <title>Icons / Pin Copy 33</title>
    <desc>Created with Sketch.</desc>
    <defs></defs>
    <g id="Type-Ahead-Search-|-Desktop-" stroke="none" stroke-width="1" fill="none" fill-rule="evenodd" transform="translate(-151.000000, -208.000000)">
        <g id="Search-Bar" transform="translate(132.000000, 146.000000)" fill="#BB1A30">
            <g id="Search-Item-Copy-3">
                <g transform="translate(1.000000, 62.000000)">
                    <g id="Icons-/-Pin-Copy-33" transform="translate(18.000000, 0.000000)">
                        <path d="M11,32 C9.14552057,32 7.43281688,29.0330769 5.30780715,25.2066081 C2.79229915,20.6769757 0,14.9428663 0,11.5 C0,5.14872538 4.92486775,0 11,0 C17.0751322,0 22,5.14872538 22,11.5 C22,14.9421966 18.9584953,20.674745 16.4436608,25.2039646 C14.3183173,29.0317104 12.8549065,32 11,32 Z M11,15 C13.209139,15 15,13.209139 15,11 C15,8.790861 13.209139,7 11,7 C8.790861,7 7,8.790861 7,11 C7,13.209139 8.790861,15 11,15 Z" id="Combined-Shape"></path>
                    </g>
                </g>
            </g>
        </g>
    </g>
</svg>