<?xml version="1.0" encoding="UTF-8"?>
<svg width="21px" height="31px" viewBox="0 0 21 31" version="1.1" xmlns="http://www.w3.org/2000/svg" xmlns:xlink="http://www.w3.org/1999/xlink">
    <!-- Generator: Sketch 48.2 (47327) - http://www.bohemiancoding.com/sketch -->
    <title>pin-g-small</title>
    <desc>Created with Sketch.</desc>
    <defs></defs>
    <g id="Components-/-POIs-/-POI-Legend" stroke="none" stroke-width="1" fill="none" fill-rule="evenodd" transform="translate(-20.000000, -21.000000)">
        <g id="Components-/-POI-Legend">
            <g id="Green-Pin" transform="translate(20.000000, 21.000000)">
                <g id="pin-g-small">
                    <path d="M10.5,30.5454545 C12.2705925,30.5454545 13.6674847,27.7120872 15.6962216,24.0583299 C18.0967455,19.7349839 21,14.2630058 21,10.9772727 C21,4.91469241 16.2989899,0 10.5,0 C4.70101013,0 0,4.91469241 0,10.9772727 C0,14.2636451 2.66537646,19.7371132 5.06654319,24.0608532 C7.09496157,27.7133916 8.72981509,30.5454545 10.5,30.5454545 Z" id="Oval-3" fill="#8EC439"></path>
                    <g id="Icons-/-Bolt-Up" transform="translate(6.920455, 5.250000)" fill="#FFFFFF">
                        <path d="M5.12764376,6.84314447 C6.01628789,6.84109229 7.43422777,6.86149712 7.65083004,6.86830578 L6.70803686,6.83867008 C7.22872716,6.85503743 7.24498805,7.48647016 6.7540596,8.23423525 L2.64307431,14.4959447 C2.14780167,15.2503267 1.04450934,16.0493606 0.832587912,16.105976 L1.74630387,15.8618742 C1.24167248,15.9966879 1.02644506,15.401266 1.26645554,14.5287793 L2.74461096,9.15538464 C2.74461096,9.15538464 2.74547693,9.15197148 2.74712243,9.14559348 C1.85811568,9.14763069 0.422208663,9.12665693 0.224169959,9.1204318 L1.16696314,9.1500675 C0.646272844,9.13370015 0.630011954,8.50226742 1.14675217,7.71518673 L5.20611391,1.53210845 C5.715642,0.756013036 6.84863643,-0.065470732 7.04241209,-0.117238455 L6.12869613,0.12686339 C6.63332752,-0.00795033624 6.84499361,0.600417749 6.59894971,1.49483719 L5.13038904,6.83335294 C5.13038904,6.83335294 5.12942373,6.83683322 5.12764376,6.84314447 Z"></path>
                    </g>
                </g>
            </g>
        </g>
    </g>
</svg>