<?xml version="1.0" encoding="UTF-8"?>
<svg width="21px" height="31px" viewBox="0 0 21 31" version="1.1" xmlns="http://www.w3.org/2000/svg" xmlns:xlink="http://www.w3.org/1999/xlink">
    <!-- Generator: Sketch 48.2 (47327) - http://www.bohemiancoding.com/sketch -->
    <title>Group</title>
    <desc>Created with Sketch.</desc>
    <defs></defs>
    <g id="Components-/-POIs-/-POI-Legend" stroke="none" stroke-width="1" fill="none" fill-rule="evenodd" transform="translate(-20.000000, -62.000000)">
        <g id="Components-/-POI-Legend">
            <g id="Orange-Pin" transform="translate(20.000000, 62.000000)">
                <g id="Group">
                    <path d="M10.5,31 C12.2705925,31 13.6674847,28.1244694 15.6962216,24.4163407 C18.0967455,20.0286592 21,14.4752529 21,11.140625 C21,4.98782771 16.2989899,0 10.5,0 C4.70101013,0 0,4.98782771 0,11.140625 C0,14.4759017 2.66537646,20.0308202 5.06654319,24.4189016 C7.09496157,28.1257932 8.72981509,31 10.5,31 Z" id="Oval-3" fill="#FF6B4D"></path>
                    <g id="Icons-/-Bolt-Up" transform="translate(7.000000, 4.000000)" fill="#FFFFFF">
                        <path d="M5.33013484,7.82398417 C6.24376786,7.83825378 7.60753117,7.87971172 7.80230257,7.88884233 L6.83693047,7.84358703 C7.37009076,7.86858084 7.38767659,8.52014082 6.8744979,9.30149306 L2.83367059,15.4539493 C2.32125822,16.2341348 1.17218482,17.0489273 0.974710757,17.0980016 L1.90586592,16.8666001 C1.39160312,16.9943996 1.16852735,16.3640488 1.40696106,15.4611379 L2.81272333,10.1377381 C1.89749525,10.1233956 0.517641667,10.0811854 0.340554575,10.0728838 L1.30592668,10.1181391 C0.772766386,10.0931453 0.764611757,9.42722561 1.28791913,8.63045171 L5.28962667,2.53755817 C5.81284166,1.74092492 6.9886103,0.908341082 7.16814639,0.863724539 L6.23699122,1.09512607 C6.75125402,0.967326533 6.97084523,1.61087286 6.72655007,2.53598011 L5.33013484,7.82398417 Z"></path>
                    </g>
                </g>
            </g>
        </g>
    </g>
</svg>