<?xml version="1.0" encoding="UTF-8"?>
<svg width="29px" height="38px" viewBox="0 0 29 38" version="1.1" xmlns="http://www.w3.org/2000/svg" xmlns:xlink="http://www.w3.org/1999/xlink">
    <!-- Generator: Sketch 48.2 (47327) - http://www.bohemiancoding.com/sketch -->
    <title>Concur</title>
    <desc>Created with Sketch.</desc>
    <defs></defs>
    <g id="Export-Trips-|-Mobile" stroke="none" stroke-width="1" fill="none" fill-rule="evenodd" transform="translate(-217.000000, -392.000000)">
        <g id="File-Format" transform="translate(44.000000, 352.000000)" fill="#0078C9" fill-rule="nonzero">
            <g id="Group-6" transform="translate(15.000000, 28.000000)">
                <g id="Group-2" transform="translate(71.000000, 0.000000)">
                    <g id="Group-5" transform="translate(71.000000, 0.000000)">
                        <path d="M34.1500467,23.82066 L44.7073171,23.82066 L44.7073171,48.442391 C44.7073171,49.2972783 44.0117428,49.9949785 43.1537084,49.9949785 L17.5536087,49.9949785 C16.6953988,49.9949785 16,49.3017478 16,48.4466043 L16,13.5483742 C16,12.6919081 16.6928516,12 17.5475272,12 L32.8866571,12 L32.8866571,22.5572704 C32.8866571,23.2550212 33.4519102,23.82066 34.1500467,23.82066 Z M44.7073171,22.1319943 L35.421744,22.1319943 C34.9542785,22.1319943 34.5753228,21.7532999 34.5753228,21.2855731 L34.5753228,12 L44.7073171,22.1319943 Z M34.9374616,38.3627012 C34.9374616,39.5069859 35.8645961,40.4337212 37.008526,40.4337212 C38.1518795,40.4337212 39.0789697,39.5069859 39.0789697,38.3627012 C39.0789697,37.2197468 38.1518795,36.2926123 37.008526,36.2926123 C35.8645961,36.2926123 34.9374616,37.2197468 34.9374616,38.3627012 Z M34.1793203,42.1495053 C34.1793203,42.1495053 34.3486239,42.0593549 34.2581631,41.9335523 C34.0797691,41.685539 33.3101429,41.1175428 32.7315929,39.8864778 C32.7315929,39.8864778 32.6705318,39.7552209 32.5272579,39.8073689 C32.2325952,39.9153011 31.3688276,40.209476 30.538096,40.2111167 C28.1286461,40.2152407 25.9890709,38.3033695 25.9890709,35.7384069 C25.9890709,33.1745972 27.8237844,31.2903521 30.233722,31.2903521 C31.7935499,31.2903521 32.7366037,31.7349846 33.4351916,32.1920777 C33.613896,32.3090559 33.7018736,32.1331895 33.7018736,32.1331895 C34.0309026,31.4551326 34.6839497,30.4887098 34.9237151,30.1552465 C34.9844214,30.070772 34.9896983,29.9816859 34.704392,29.7975272 C33.6219666,29.0987619 32.0667947,28.5071306 30.3986799,28.5071306 C26.3243523,28.3643001 22.9467946,31.4959286 22.9467946,35.7897124 C22.9467946,39.7290582 26.2695437,43.0668399 30.5412,43.0355333 C31.7624208,43.026709 33.2491262,42.7174129 34.1793203,42.1495053 Z" id="Concur"></path>
                    </g>
                </g>
            </g>
        </g>
    </g>
</svg>