<?xml version="1.0" encoding="UTF-8"?>
<svg width="10px" height="10px" viewBox="0 0 10 10" version="1.1" xmlns="http://www.w3.org/2000/svg" xmlns:xlink="http://www.w3.org/1999/xlink">
    <!-- Generator: Sketch 48.2 (47327) - http://www.bohemiancoding.com/sketch -->
    <title>Shape</title>
    <desc>Created with Sketch.</desc>
    <defs></defs>
    <g id="My-Trips-|-Mobile" stroke="none" stroke-width="1" fill="none" fill-rule="evenodd" transform="translate(-16.000000, -122.000000)">
        <g id="Group-9" transform="translate(16.000000, 116.000000)" fill="#9BA1A9" fill-rule="nonzero">
            <path d="M9.88697813,6.0950671 C9.83416307,6.04225204 9.74965899,6 9.6651549,6 C9.6651549,6 9.6651549,6 9.6651549,6 L5.65121079,6.0950671 C5.30263143,6.11619312 4.98574111,6.25351226 4.72166584,6.49646151 L0.475335487,10.7427919 C0.169008173,11.0491192 0,11.4716396 0,11.89416 C0,12.2849914 0.158445162,12.6652598 0.443646454,12.9715871 L3.04214712,15.5700878 C3.33791142,15.8658521 3.71817981,16.0031712 4.10901121,16.0031712 C4.52096863,16.0031712 4.94348906,15.8447261 5.26037939,15.5278358 L9.49614673,11.2815054 C9.74965899,11.0279932 9.89754114,10.6899768 9.89754114,10.3413974 L9.99260824,6.31689032 C9.98204523,6.23238624 9.95035619,6.15844516 9.88697813,6.0950671 Z M7.66874586,9.60198669 C7.49973768,9.77099486 7.25678843,9.87662497 7.0244022,9.87662497 C6.80257897,9.87662497 6.55962972,9.77099486 6.40118456,9.60198669 C6.23217638,9.45410454 6.13710929,9.2217183 6.13710929,8.96820604 C6.13710929,8.7358198 6.23217638,8.50343356 6.40118456,8.33442539 C6.76032693,7.98584603 7.33072951,7.98584603 7.66874586,8.33442539 C7.83775403,8.48230754 7.93282113,8.71469378 7.93282113,8.96820604 C7.93282113,9.19002927 7.83775403,9.43297852 7.66874586,9.60198669 Z" id="Shape"></path>
        </g>
    </g>
</svg>