<?xml version="1.0" encoding="UTF-8"?>
<svg width="22px" height="32px" viewBox="0 0 22 32" version="1.1" xmlns="http://www.w3.org/2000/svg" xmlns:xlink="http://www.w3.org/1999/xlink">
    <!-- Generator: Sketch 48.2 (47327) - http://www.bohemiancoding.com/sketch -->
    <title>Icons / Pin Green</title>
    <desc>Created with Sketch.</desc>
    <defs></defs>
    <g id="Type-Ahead-Search-|-Desktop-" stroke="none" stroke-width="1" fill="none" fill-rule="evenodd" transform="translate(-151.000000, -376.000000)">
        <g id="Search-Bar" transform="translate(132.000000, 146.000000)">
            <g id="Search-Item-Copy-3">
                <g transform="translate(1.000000, 62.000000)">
                    <g id="Icons-/-Pin-Green" transform="translate(18.000000, 168.000000)">
                        <path d="M11,32 C12.8549065,32 14.3183173,29.0317104 16.4436608,25.2039646 C18.9584953,20.674745 22,14.9421966 22,11.5 C22,5.14872538 17.0751322,0 11,0 C4.92486775,0 0,5.14872538 0,11.5 C0,14.9428663 2.79229915,20.6769757 5.30780715,25.2066081 C7.43281688,29.0330769 9.14552057,32 11,32 Z" id="Oval-3" fill="#8EC439"></path>
                        <g id="Icons-/-Bolt-Up" transform="translate(7.250000, 5.500000)" fill="#FFFFFF">
                            <path d="M5.37181727,7.16900849 C6.30277779,7.16685859 7.78823862,7.18823508 8.01515528,7.19536796 L7.02746719,7.16432104 C7.57295226,7.18146778 7.58998748,7.84296874 7.07568149,8.62634169 L2.76893499,15.1862278 C2.25007794,15.9765328 1.09424788,16.8136159 0.872234956,16.8729273 L1.8294612,16.6172015 C1.30079974,16.758435 1.0753234,16.1346596 1.32676294,15.2206259 L2.87530672,9.59135534 C2.87530672,9.59135534 2.87621393,9.58777964 2.87793779,9.58109793 C1.94659738,9.58323216 0.442313838,9.56125964 0.234844719,9.55473807 L1.22253281,9.585785 C0.677047741,9.56863825 0.660012524,8.9071373 1.20135942,8.08257658 L5.4540241,1.605066 C5.98781543,0.792013656 7.17476198,-0.0685883859 7.37776504,-0.122821239 L6.4205388,0.132904504 C6.94920026,-0.00832892368 7.17094568,0.62900907 6.91318541,1.56601991 L5.37469328,7.1587507 C5.37469328,7.1587507 5.373682,7.1623967 5.37181727,7.16900849 Z"></path>
                        </g>
                    </g>
                </g>
            </g>
        </g>
    </g>
</svg>