<?xml version="1.0" encoding="UTF-8"?>
<svg width="19px" height="28px" viewBox="0 0 19 28" version="1.1" xmlns="http://www.w3.org/2000/svg" xmlns:xlink="http://www.w3.org/1999/xlink">
    <!-- Generator: Sketch 48.2 (47327) - http://www.bohemiancoding.com/sketch -->
    <title>Pin Yellow</title>
    <desc>Created with Sketch.</desc>
    <defs></defs>
    <g id="My-POI's-|-Desktop" stroke="none" stroke-width="1" fill="none" fill-rule="evenodd" transform="translate(-153.000000, -388.000000)">
        <g id="Search-Bar" transform="translate(132.000000, 146.000000)" fill="#FFC62F">
            <g id="Recommended-Copy-5">
                <g transform="translate(1.000000, 218.000000)">
                    <g id="My-POI's" transform="translate(0.000000, 22.000000)">
                        <g id="Chick-Fil-A" transform="translate(1.000000, 0.000000)">
                            <path d="M28.5,29.6363636 C26.8984041,29.6363636 25.4192509,27.074021 23.5840153,23.7693434 C21.4115311,19.8573881 19,14.9052027 19,11.9318182 C19,6.44662646 23.2532949,2 28.5,2 C33.7467051,2 38,6.44662646 38,11.9318182 C38,14.9046243 35.373246,19.8554616 33.2013434,23.7670604 C31.3658195,27.0728408 30.1019647,29.6363636 28.5,29.6363636 Z M28.501518,6.75 L27.101706,11.0511393 L22.5625,11.0511393 L26.2354569,13.710352 L24.8285611,18.0107322 L28.501518,15.3540495 L32.169415,18.0107322 L30.767832,13.710352 L34.4375,11.0511393 L29.9018359,11.0511393 L28.501518,6.75 Z" id="Pin-Yellow"></path>
                        </g>
                    </g>
                </g>
            </g>
        </g>
    </g>
</svg>