<?xml version="1.0" encoding="utf-8"?>
<!-- Generator: Adobe Illustrator 22.0.1, SVG Export Plug-In . SVG Version: 6.00 Build 0)  -->
<svg version="1.1" id="Layer_1" xmlns="http://www.w3.org/2000/svg" xmlns:xlink="http://www.w3.org/1999/xlink" x="0px" y="0px"
	 width="35px" height="25px" viewBox="0 0 35 25" style="enable-background:new 0 0 35 25;" xml:space="preserve">
<style type="text/css">
	.st0{fill:#8EC439;}
</style>
<title>Icons / Mirror Defroster</title>
<desc>Created with Sketch.</desc>
<g id="Flagship-Climate-Off-_x7C_-Desktop" transform="translate(-828.000000, -329.000000)">
	<g id="Temperature-Dial" transform="translate(257.000000, 218.000000)">
		<g id="Accessory-Defroster" transform="translate(480.000000, 91.000000)">
			<g id="All-items" transform="translate(22.000000, 14.000000)">
				<g id="Group-6" transform="translate(65.000000, 6.000000)">
					<g id="Group-8">
						<g id="Icons-_x2F_-Mirror-Defroster" transform="translate(4.000000, 0.000000)">
							<path id="Fill-2" class="st0" d="M27.2,15.4l-13.3,0.5c-3,0-3.7-3.6-3.7-6.7c0-3.1,0.7-7,5.3-7S26,3,26.9,3.2
								c2.7,0.7,4.9,2.5,4.9,4.9l0,1.2C31.8,11.3,32.6,14.5,27.2,15.4L27.2,15.4z M34.4,8.1c-0.4-4.7-5.5-6.5-7.9-7
								c-2-0.4-8-0.9-13.2-0.9C6.4,0.4,8,7.7,2.7,8h-1C0.8,8,0,8.8,0,9.7v6.7c0,0.9,0.8,1.7,1.7,1.7h2.7c0,0,18.8-0.3,23.4-0.3
								c4.6,0,7-3.2,6.9-6.8L34.4,8.1z"/>
							<path id="Fill-4" class="st0" d="M18,24.6c-0.8,0-1.6,0.1-2.4,0.1c2.1-5.2-2.8-10.4-0.8-15.7c0.8,0,1.6-0.1,2.4-0.1
								C15.1,14.2,20,19.4,18,24.6"/>
							<polygon id="Fill-6" class="st0" points="20.8,4.9 18.9,9.2 23.2,8.9 							"/>
							<path id="Fill-8" class="st0" d="M23.1,24.6c-0.8,0-1.6,0.1-2.4,0.1c2.1-5.2-2.8-10.4-0.8-15.7c0.8,0,1.6-0.1,2.4-0.1
								C20.2,14.2,25.1,19.4,23.1,24.6"/>
							<polygon id="Fill-10" class="st0" points="25.9,4.9 23.9,9.2 28.2,8.9 							"/>
							<path id="Fill-12" class="st0" d="M28.2,24.6c-0.8,0-1.6,0.1-2.4,0.1c2.1-5.2-2.8-10.4-0.8-15.7c0.8,0,1.6-0.1,2.4-0.1
								C25.3,14.2,30.2,19.4,28.2,24.6"/>
							<polygon id="Fill-1" class="st0" points="15.7,4.9 13.8,9.2 18.1,8.9 							"/>
						</g>
					</g>
				</g>
			</g>
		</g>
	</g>
</g>
</svg>
