<?xml version="1.0" encoding="utf-8"?>
<!-- Generator: Adobe Illustrator 22.0.1, SVG Export Plug-In . SVG Version: 6.00 Build 0)  -->
<svg version="1.1" id="Layer_1" xmlns="http://www.w3.org/2000/svg" xmlns:xlink="http://www.w3.org/1999/xlink" x="0px" y="0px"
	 width="16px" height="16px" viewBox="0 0 16 16" style="enable-background:new 0 0 16 16;" xml:space="preserve">
<style type="text/css">
	.st0{fill:#FFFFFF;}
</style>
<path class="st0" d="M5.9,8.9c0,0-0.1,0-0.1-0.1C2.1,7.7,0.3,5.7,0.2,3.7c0-2,2.4-3.9,5-3.7c1.5,0.1,2.3,0.7,1.8,2.4
	c-0.2,1-0.7,1.9-0.5,3c0.2,0,0.4-0.1,0.7-0.4C7.4,5,7.5,4.9,7.6,4.9c1.2-2.9,3-4.4,4.8-4.4c2,0,3.9,2.4,3.7,5
	c-0.1,1.5-0.7,2.3-2.4,1.8C12.5,7,11.5,6.5,10.2,7c0.1,0,0.1,0.1,0.2,0.1c3.5,1.5,5.2,3.7,5,5.7c-0.2,2-2.8,3.6-5.4,3.1
	c-1.5-0.3-2.2-1-1.6-2.6c0.4-1.1,1.1-2.1,0.6-3.7c0,0-0.1,0-0.1,0C9,9.7,8.9,9.9,8.9,10c-1.2,3.6-3.3,5.5-5.3,5.5
	c-2,0-3.8-2.5-3.6-5.1c0.2-1.5,0.8-2.3,2.4-1.8C3.6,8.9,4.5,9.4,5.9,8.9z"/>
</svg>
