<svg xmlns="http://www.w3.org/2000/svg" width="17" height="23" viewBox="0 0 17 23">
    <path fill="#828282" fill-rule="nonzero" d="M17 21.75V5.286c0-.586-.542-1.06-.542-1.06L12.988.74l-.303-.304C12.211-.041 11.47 0 11.47 0H1.244C.557 0 0 .56 0 1.25V21.75C0 22.44.557 23 1.244 23h14.512c.687 0 1.244-.56 1.244-1.25zM3 14.6c0-.331.213-.6.476-.6h9.047c.264 0 .477.269.477.6v.8c0 .331-.213.6-.477.6H3.476C3.213 16 3 15.731 3 15.4v-.8zm0 3c0-.331.224-.6.501-.6h4.998c.277 0 .501.269.501.6v.8c0 .331-.224.6-.501.6H3.5C3.224 19 3 18.731 3 18.4v-.8zm0-6c0-.332.213-.6.476-.6h9.047c.264 0 .477.268.477.6v.8c0 .33-.213.6-.477.6H3.476C3.213 13 3 12.73 3 12.4v-.8zM15 5h-3V2l3 3z"/>
</svg>
