<?xml version="1.0" encoding="UTF-8"?>
<svg width="16px" height="18px" viewBox="0 0 16 18" version="1.1" xmlns="http://www.w3.org/2000/svg" xmlns:xlink="http://www.w3.org/1999/xlink">
    <!-- Generator: Sketch 48.2 (47327) - http://www.bohemiancoding.com/sketch -->
    <title>Combined Shape</title>
    <desc>Created with Sketch.</desc>
    <defs></defs>
    <g id="Location-Detail-Collapsed-|-Desktop-" stroke="none" stroke-width="1" fill="none" fill-rule="evenodd" transform="translate(-509.000000, -163.000000)">
        <g id="Search-Bar" transform="translate(132.000000, 146.000000)" fill="#9BA1A9">
            <g id="Search-Contents">
                <g transform="translate(1.000000, 10.000000)">
                    <g id="Group-2" transform="translate(340.000000, 0.000000)">
                        <path d="M45,10.0000418 C45.5531447,10.0049766 46,10.4465275 46,11.0093689 L46,12.9906311 C46,13.5450107 45.5615315,13.995004 45,13.9999587 L45,24.0066023 C45,24.5552407 44.5561352,25 44,25 C43.4477153,25 43,24.5550537 43,24.0066023 L43,13.9999582 C42.4468553,13.9950234 42,13.5534725 42,12.9906311 L42,11.0093689 C42,10.4549893 42.4384685,10.004996 43,10.0000413 L43,7.99339768 C43,7.44475929 43.4438648,7 44,7 C44.5522847,7 45,7.44494629 45,7.99339768 L45,10.0000418 Z M51,16.0000418 C51.5531447,16.0049766 52,16.4465275 52,17.0093689 L52,18.9906311 C52,19.5450107 51.5615315,19.995004 51,19.9999587 L51,24.0066023 C51,24.5552407 50.5561352,25 50,25 C49.4477153,25 49,24.5550537 49,24.0066023 L49,19.9999582 C48.4468553,19.9950234 48,19.5534725 48,18.9906311 L48,17.0093689 C48,16.4549893 48.4384685,16.004996 49,16.0000413 L49,7.99339768 C49,7.44475929 49.4438648,7 50,7 C50.5522847,7 51,7.44494629 51,7.99339768 L51,16.0000418 Z M39,16.0000418 C39.5531447,16.0049766 40,16.4465275 40,17.0093689 L40,18.9906311 C40,19.5450107 39.5615315,19.995004 39,19.9999587 L39,24.0066023 C39,24.5552407 38.5561352,25 38,25 C37.4477153,25 37,24.5550537 37,24.0066023 L37,19.9999582 C36.4468553,19.9950234 36,19.5534725 36,18.9906311 L36,17.0093689 C36,16.4549893 36.4384685,16.004996 37,16.0000413 L37,7.99339768 C37,7.44475929 37.4438648,7 38,7 C38.5522847,7 39,7.44494629 39,7.99339768 L39,16.0000418 Z" id="Combined-Shape"></path>
                    </g>
                </g>
            </g>
        </g>
    </g>
</svg>