<?xml version="1.0" encoding="UTF-8"?>
<svg width="16px" height="25px" viewBox="0 0 16 25" version="1.1" xmlns="http://www.w3.org/2000/svg" xmlns:xlink="http://www.w3.org/1999/xlink">
    <!-- Generator: Sketch 47.1 (45422) - http://www.bohemiancoding.com/sketch -->
    <title>Icons / Battery Only</title>
    <desc>Created with Sketch.</desc>
    <defs></defs>
    <g id="Battery*" stroke="none" stroke-width="1" fill="none" fill-rule="evenodd">
        <g id="Hybrid-Battery-is-Not-Plugged-In-|-Desktop" transform="translate(-239.000000, -436.000000)" fill="#D9D9D9">
            <g id="Main-Battery-Contnet" transform="translate(239.000000, 211.000000)">
                <g id="Total-Ranges" transform="translate(0.000000, 46.000000)">
                    <g id="Max-Battery-Range" transform="translate(0.000000, 170.000000)">
                        <g id="Icons-/-Battery-Only" transform="translate(0.000000, 9.000000)">
                            <path d="M0,5.61074763 C0,4.51041605 0.894513756,3.61842105 1.99406028,3.61842105 L14.0059397,3.61842105 C15.1072288,3.61842105 16,4.50993902 16,5.61074763 L16,23.0076734 C16,24.108005 15.1054862,25 14.0059397,25 L1.99406028,25 C0.892771196,25 0,24.108482 0,23.0076734 L0,5.61074763 Z M5,1.15131579 C5,0.515461637 5.51155663,0 6.15686035,0 L9.84313965,0 C10.482056,0 11,0.511028578 11,1.15131579 C11,1.78716994 10.4884434,2.30263158 9.84313965,2.30263158 L6.15686035,2.30263158 C5.51794402,2.30263158 5,1.791603 5,1.15131579 Z"></path>
                        </g>
                    </g>
                </g>
            </g>
        </g>
    </g>
</svg>