<svg xmlns="http://www.w3.org/2000/svg" width="23" height="26" viewBox="0 0 23 26">
    <g fill="#828282" fill-rule="evenodd">
        <path d="M14.829 22H8.172a3.012 3.012 0 0 0 2.837 2h.982a3.012 3.012 0 0 0 2.838-2zM6 11c0-1.105.9-2 1.992-2h7.016c1.1 0 1.992.89 1.992 2v13c0 1.105-.9 2-1.992 2H7.992C6.892 26 6 25.11 6 24V11zm2 1v2h7v-2H8zm0 3v2h7v-2H8z"/>
        <g fill-rule="nonzero">
            <path d="M3.243 6.301a13.957 13.957 0 0 1 8.403-2.796c3.24 0 6.223 1.099 8.597 2.944l-1.013.84a12.681 12.681 0 0 0-7.584-2.503c-2.759 0-5.313.877-7.399 2.368L3.243 6.3z"/>
            <path d="M.516 3.988A17.452 17.452 0 0 1 11.646 0c4.328 0 8.289 1.569 11.346 4.169l-1.022.847a16.151 16.151 0 0 0-10.324-3.71A16.15 16.15 0 0 0 1.53 4.848l-1.014-.86z"/>
        </g>
    </g>
</svg>
