<?xml version="1.0" encoding="UTF-8"?>
<svg width="12px" height="15px" viewBox="0 0 12 15" version="1.1" xmlns="http://www.w3.org/2000/svg" xmlns:xlink="http://www.w3.org/1999/xlink">
    <!-- Generator: Sketch 47.1 (45422) - http://www.bohemiancoding.com/sketch -->
    <title>Ico</title>
    <desc>Created with Sketch.</desc>
    <defs>
        <path d="M9.75,5.25 L10.9975267,5.25 C11.5511774,5.25 12,5.69427279 12,6.25669822 L12,13.9933018 C12,14.5492859 11.544239,15 10.9975267,15 L1.00247329,15 C0.448822582,15 0,14.5557272 0,13.9933018 L0,6.25669822 C0,5.70071415 0.455760956,5.25 1.00247329,5.25 L2.25,5.25 L2.25,1.99709487 C2.25,0.894129829 3.13980049,0 4.25986236,0 L7.74013764,0 C8.85015397,0 9.75,0.898599532 9.75,1.99709487 L9.75,5.25 Z M8.25,5.25 L8.25,2.49598575 C8.25,1.94288635 7.80286864,1.5 7.25130415,1.5 L4.74869585,1.5 C4.19792891,1.5 3.75,1.94591801 3.75,2.49598575 L3.75,5.25 L8.25,5.25 Z" id="path-1"></path>
    </defs>
    <g id="Security*" stroke="none" stroke-width="1" fill="none" fill-rule="evenodd">
        <g id="Remote-Unlocked-|-Desktop" transform="translate(-610.000000, -664.000000)">
            <g id="CTA-Area" transform="translate(162.000000, 162.000000)">
                <g id="CTA-Buttons" transform="translate(273.000000, 488.000000)">
                    <g id="Stop-Button" transform="translate(141.000000, 1.000000)">
                        <g id="Label" transform="translate(34.000000, 13.000000)">
                            <g id="Icons-/-Unlocked">
                                <mask id="mask-2" fill="white">
                                    <use xlink:href="#path-1"></use>
                                </mask>
                                <use id="Ico" fill="#FFFFFF" xlink:href="#path-1"></use>
                            </g>
                        </g>
                    </g>
                </g>
            </g>
        </g>
    </g>
</svg>