<?xml version="1.0" encoding="UTF-8"?>
<svg width="14px" height="21px" viewBox="0 0 14 21" version="1.1" xmlns="http://www.w3.org/2000/svg" xmlns:xlink="http://www.w3.org/1999/xlink">
    <!-- Generator: Sketch 48.1 (47250) - http://www.bohemiancoding.com/sketch -->
    <title>Combined Shape</title>
    <desc>Created with Sketch.</desc>
    <defs></defs>
    <g id="Upcoming-Appointment-|-Desktop" stroke="none" stroke-width="1" fill="none" fill-rule="evenodd" transform="translate(-643.000000, -470.000000)">
        <g id="Modal-Copy" transform="translate(304.000000, 375.000000)" fill="#BB1A30">
            <g id="Diagnostic-Issue-Copy" transform="translate(35.000000, 82.000000)">
                <path d="M311,33.3636364 C309.819877,33.3636364 308.729974,31.4755944 307.377695,29.0405688 C305.776918,26.1580755 304,22.5090967 304,20.3181818 C304,16.2764616 307.134007,13 311,13 C314.865993,13 318,16.2764616 318,20.3181818 C318,22.5086706 316.064497,26.1566559 314.464148,29.0388866 C313.111656,31.4747248 312.180395,33.3636364 311,33.3636364 Z M311,22.5454545 C312.405816,22.5454545 313.545455,21.4058157 313.545455,20 C313.545455,18.5941843 312.405816,17.4545455 311,17.4545455 C309.594184,17.4545455 308.454545,18.5941843 308.454545,20 C308.454545,21.4058157 309.594184,22.5454545 311,22.5454545 Z" id="Combined-Shape"></path>
            </g>
        </g>
    </g>
</svg>