<?xml version="1.0" encoding="UTF-8"?>
<svg width="22px" height="25px" viewBox="0 0 22 25" version="1.1" xmlns="http://www.w3.org/2000/svg" xmlns:xlink="http://www.w3.org/1999/xlink">
    <!-- Generator: Sketch 48.1 (47250) - http://www.bohemiancoding.com/sketch -->
    <title>notifications_charge_schedule</title>
    <desc>Created with Sketch.</desc>
    <defs>
        <path d="M18.4314153,10.712165 L13.5553257,16.8072769 C13.148985,17.2136177 13.013538,17.6199585 13.9616665,17.6199585 L15.3161359,17.6199585 L13.8262196,22.2251542 C13.5553257,22.9023888 14.2689956,23.1754498 14.6389012,22.7669419 L19.5149907,16.5363831 C19.853608,16.1977657 19.853608,15.655978 19.1763734,15.655978 L17.6864571,15.655978 L19.3118203,11.0507823 C19.4472673,10.5089946 18.9054795,10.1026538 18.4314153,10.712165 Z" id="path-1"></path>
    </defs>
    <g id="Notifications-Dropdown-|-Desktop" stroke="none" stroke-width="1" fill="none" fill-rule="evenodd" transform="translate(-557.000000, -746.000000)">
        <g id="global-notifications">
            <g id="Icons-/-Notifications" transform="translate(537.000000, 0.000000)">
                <g id="Notifications-Dropdown" transform="translate(0.000000, 71.000000)">
                    <g id="Cell-Copy-8" transform="translate(0.000000, 648.000000)">
                        <g id="Group-7" transform="translate(20.000000, 12.000000)">
                            <g id="notifications_charge_schedule" transform="translate(0.000000, 15.000000)">
                                <path d="M9.88863947,11.0141974 L11.9745759,8.92826099 L10.7524161,7.70610112 L8.66647961,9.79203756 L6.58054316,7.70610112 L5.35838329,8.92826099 L7.44431974,11.0141974 L5.35838329,13.1001339 L6.58054316,14.3222937 L8.66647961,12.2363573 L10.7524161,14.3222937 L11.9745759,13.1001339 L9.88863947,11.0141974 Z M14,2.57407407 L14.9998938,2.57407407 C16.104522,2.57407407 17,3.47437887 17,4.57148778 L17,16.4748085 C17,17.5779496 16.1099416,18.4722222 14.9998938,18.4722222 L2.00010618,18.4722222 C0.895478039,18.4722222 0,17.5719174 0,16.4748085 L0,4.57148778 C0,3.46834665 0.890058413,2.57407407 2.00010618,2.57407407 L3,2.57407407 L3,2.9951185 C3,4.1061002 3.8954305,5 5,5 C6.11227036,5 7,4.10238398 7,2.9951185 L7,2.57407407 L10,2.57407407 L10,3.00208688 C10,4.10173938 10.8954305,5 12,5 C13.1122704,5 14,4.10550383 14,3.00208688 L14,2.57407407 Z M4,1.0093689 C4,0.451909848 4.44386482,0 5,0 C5.55228475,0 6,0.443353176 6,1.0093689 L6,2.9906311 C6,3.54809015 5.55613518,4 5,4 C4.44771525,4 4,3.55664682 4,2.9906311 L4,1.0093689 Z M11,1.0093689 C11,0.451909848 11.4438648,0 12,0 C12.5522847,0 13,0.443353176 13,1.0093689 L13,2.9906311 C13,3.54809015 12.5561352,4 12,4 C11.4477153,4 11,3.55664682 11,2.9906311 L11,1.0093689 Z" id="Combined-Shape" fill="#2F2F2F"></path>
                                <g id="Fill-1">
                                    <use fill="#2F2F2F" fill-rule="evenodd" xlink:href="#path-1"></use>
                                    <path stroke="#FFFFFF" stroke-width="2" d="M17.6468669,10.0920694 C18.7658662,8.66330766 20.687167,9.6724749 20.2548107,11.3836025 L19.0998546,14.655978 L19.1763734,14.655978 C20.7635182,14.655978 21.1659862,16.2282384 20.2717519,17.191949 L15.3801633,23.4381576 C14.8992501,23.9692577 14.1321866,24.11148 13.5213149,23.7853637 C12.8347096,23.4188167 12.592404,22.6171107 12.8747751,21.9173339 L13.9415874,18.6199141 C13.083659,18.6160542 12.4477918,18.3632649 12.2743831,17.582926 C12.1467314,17.0084935 12.3799666,16.5803071 12.8069115,16.1420136 L17.6468669,10.0920694 Z"></path>
                                </g>
                            </g>
                        </g>
                    </g>
                </g>
            </g>
        </g>
    </g>
</svg>