<svg xmlns="http://www.w3.org/2000/svg" xmlns:xlink="http://www.w3.org/1999/xlink" width="20" height="20" viewBox="0 0 20 20">
    <defs>
        <path id="a" d="M0 0h11v11H0z"/>
    </defs>
    <g fill="none" fill-rule="evenodd">
        <g transform="translate(10 -1)">
            <mask id="b" fill="#fff">
                <use xlink:href="#a"/>
            </mask>
            <path fill="#464646" d="M0 21c-5.523 0-10-4.477-10-10S-5.523 1 0 1s10 4.477 10 10S5.523 21 0 21zm0-3A7 7 0 1 0 0 4a7 7 0 0 0 0 14z" mask="url(#b)"/>
        </g>
        <path fill="#828282" d="M10 0C4.477 0 0 4.477 0 10s4.477 10 10 10 10-4.477 10-10h-3a7 7 0 1 1-7-7V0z"/>
    </g>
</svg>
