<?xml version="1.0" encoding="UTF-8"?>
<svg width="15px" height="20px" viewBox="0 0 15 20" version="1.1" xmlns="http://www.w3.org/2000/svg" xmlns:xlink="http://www.w3.org/1999/xlink">
    <!-- Generator: Sketch 48.1 (47250) - http://www.bohemiancoding.com/sketch -->
    <title>notifications_maintenance</title>
    <desc>Created with Sketch.</desc>
    <defs></defs>
    <g id="Notifications-Dropdown-|-Desktop" stroke="none" stroke-width="1" fill="none" fill-rule="evenodd" transform="translate(-558.000000, -179.000000)">
        <g id="global-notifications" fill="#2F2F2F" fill-rule="nonzero">
            <g id="Icons-/-Notifications" transform="translate(537.000000, 0.000000)">
                <g id="Notifications-Dropdown" transform="translate(0.000000, 71.000000)">
                    <g id="Cell-Copy" transform="translate(0.000000, 74.000000)">
                        <g id="Icons-/-Maintenance-Icon" transform="translate(21.000000, 34.000000)">
                            <path d="M2.55173503,0.162303759 C2.78687987,-0.0165518833 3.10179209,-0.0503186326 3.36951123,0.0746169629 C3.63723036,0.199552558 3.81363012,0.462598234 3.82759292,0.75770411 L3.82759292,3.98775101 C3.81058148,4.43217485 4.12104024,4.81493222 4.49954475,5.11688525 C5.11294827,5.59030048 5.8681962,5.84279904 6.64298601,5.8334921 L7.38936288,5.8334921 C8.16415269,5.84279904 8.91940062,5.59030048 9.53280414,5.11688525 C9.91130865,4.81493222 10.2217674,4.43217485 10.204756,3.98775101 L10.204756,0.759830539 C10.2187188,0.464724664 10.3951185,0.201678988 10.6628377,0.0767433928 C10.9305568,-0.0481922028 11.245469,-0.0144254535 11.4806139,0.164430188 C13.0827304,1.48131732 14.0202804,3.4394376 14.0416129,5.5132057 C14.0629454,7.58697381 13.1658754,9.56396654 11.5911882,10.913533 C11.1320412,11.3130755 10.7544133,11.7975656 10.4790654,12.3403674 C10.076979,13.1482889 9.87427413,14.0407736 9.88791792,14.9431175 L9.88791792,19.23 L4.1465574,19.23 L4.1465574,14.9431175 C4.16128464,14.0402225 3.9592976,13.1469585 3.55753633,12.3382409 C3.28218843,11.7954392 2.90456055,11.3109491 2.44541354,10.9114065 C0.889935495,9.57933717 -0.00377493363,7.63260272 1.9237271e-05,5.58469981 C-0.00489416877,3.48618761 0.931619349,1.49609639 2.55173503,0.162303759 Z" id="notifications_maintenance"></path>
                        </g>
                    </g>
                </g>
            </g>
        </g>
    </g>
</svg>