<?xml version="1.0" encoding="UTF-8"?>
<svg width="24px" height="26px" viewBox="0 0 24 26" version="1.1" xmlns="http://www.w3.org/2000/svg" xmlns:xlink="http://www.w3.org/1999/xlink">
    <!-- Generator: Sketch 48.1 (47250) - http://www.bohemiancoding.com/sketch -->
    <title>notifications_climate_schedule</title>
    <desc>Created with Sketch.</desc>
    <defs></defs>
    <g id="Notifications-Dropdown-|-Desktop" stroke="none" stroke-width="1" fill="none" fill-rule="evenodd" transform="translate(-557.000000, -658.000000)">
        <g id="global-notifications">
            <g id="Icons-/-Notifications" transform="translate(537.000000, 0.000000)">
                <g id="Notifications-Dropdown" transform="translate(0.000000, 71.000000)">
                    <g id="Cell-Copy-7" transform="translate(0.000000, 560.000000)">
                        <g id="Group-7" transform="translate(20.000000, 12.000000)">
                            <g id="notifications_climate_schedule" transform="translate(0.000000, 15.000000)">
                                <path d="M14,2.57407407 L14.9998938,2.57407407 C16.104522,2.57407407 17,3.47437887 17,4.57148778 L17,16.4748085 C17,17.5779496 16.1099416,18.4722222 14.9998938,18.4722222 L2.00010618,18.4722222 C0.895478039,18.4722222 0,17.5719174 0,16.4748085 L0,4.57148778 C0,3.46834665 0.890058413,2.57407407 2.00010618,2.57407407 L3,2.57407407 L3,2.9951185 C3,4.1061002 3.8954305,5 5,5 C6.11227036,5 7,4.10238398 7,2.9951185 L7,2.57407407 L10,2.57407407 L10,3.00208688 C10,4.10173938 10.8954305,5 12,5 C13.1122704,5 14,4.10550383 14,3.00208688 L14,2.57407407 Z M2,8.99895656 L2,10.0010434 C2,10.5573397 2.44724809,11 2.99895656,11 L4.00104344,11 C4.55733967,11 5,10.5527519 5,10.0010434 L5,8.99895656 C5,8.44266033 4.55275191,8 4.00104344,8 L2.99895656,8 C2.44266033,8 2,8.44724809 2,8.99895656 Z M7,8.99895656 L7,10.0010434 C7,10.5573397 7.44724809,11 7.99895656,11 L9.00104344,11 C9.55733967,11 10,10.5527519 10,10.0010434 L10,8.99895656 C10,8.44266033 9.55275191,8 9.00104344,8 L7.99895656,8 C7.44266033,8 7,8.44724809 7,8.99895656 Z M12,8.99895656 L12,10.0010434 C12,10.5573397 12.4472481,11 12.9989566,11 L14.0010434,11 C14.5573397,11 15,10.5527519 15,10.0010434 L15,8.99895656 C15,8.44266033 14.5527519,8 14.0010434,8 L12.9989566,8 C12.4426603,8 12,8.44724809 12,8.99895656 Z M2,13.9989566 L2,15.0010434 C2,15.5573397 2.44724809,16 2.99895656,16 L4.00104344,16 C4.55733967,16 5,15.5527519 5,15.0010434 L5,13.9989566 C5,13.4426603 4.55275191,13 4.00104344,13 L2.99895656,13 C2.44266033,13 2,13.4472481 2,13.9989566 Z M7,13.9989566 L7,15.0010434 C7,15.5573397 7.44724809,16 7.99895656,16 L9.00104344,16 C9.55733967,16 10,15.5527519 10,15.0010434 L10,13.9989566 C10,13.4426603 9.55275191,13 9.00104344,13 L7.99895656,13 C7.44266033,13 7,13.4472481 7,13.9989566 Z M12,13.9989566 L12,15.0010434 C12,15.5573397 12.4472481,16 12.9989566,16 L14.0010434,16 C14.5573397,16 15,15.5527519 15,15.0010434 L15,13.9989566 C15,13.4426603 14.5527519,13 14.0010434,13 L12.9989566,13 C12.4426603,13 12,13.4472481 12,13.9989566 Z M4,1.0093689 C4,0.451909848 4.44386482,0 5,0 C5.55228475,0 6,0.443353176 6,1.0093689 L6,2.9906311 C6,3.54809015 5.55613518,4 5,4 C4.44771525,4 4,3.55664682 4,2.9906311 L4,1.0093689 Z M11,1.0093689 C11,0.451909848 11.4438648,0 12,0 C12.5522847,0 13,0.443353176 13,1.0093689 L13,2.9906311 C13,3.54809015 12.5561352,4 12,4 C11.4477153,4 11,3.55664682 11,2.9906311 L11,1.0093689 Z" id="Combined-Shape" fill="#2F2F2F"></path>
                                <circle id="Oval-3" fill="#FFFFFF" cx="16" cy="18" r="8"></circle>
                                <path d="M15.2960432,18.5059497 C15.2977063,18.5016392 15.2993764,18.4973132 15.3010536,18.492972 C15.2175765,18.458722 15.1577974,18.4343941 15.1504184,18.432018 C12.6355704,17.6222096 11.299479,16.137133 11.2823256,14.6945612 C11.2649885,13.2365376 12.9821216,11.8607024 14.8086563,12.0113271 C15.9002004,12.101341 16.4229465,12.5524166 16.1136641,13.7688811 C15.9357169,14.4687799 15.6311492,15.1434161 15.7936246,15.9892918 C15.8989437,15.9574288 16.0925494,15.9248424 16.295414,15.696343 C16.3043391,15.6862901 16.313395,15.6770743 16.3225807,15.6686693 C17.1648289,13.5743747 18.5127323,12.4666086 19.8254392,12.4509994 C21.2834629,12.4336622 22.659298,14.1507954 22.5086734,15.97733 C22.4186595,17.0688741 21.9675839,17.5916203 20.7511194,17.2823379 C19.9839725,17.0872931 19.2471761,16.7401267 18.28197,17.0225931 C18.2770454,17.037829 18.2719974,17.0532864 18.2668296,17.0689624 C18.3257,17.1035605 18.385358,17.1343355 18.4457683,17.160458 C20.9149786,18.2281882 22.1152408,19.8640551 21.980078,21.3159038 C21.8449152,22.7677526 19.9933748,23.9565614 18.1925906,23.615837 C17.1164351,23.4122188 16.6437029,22.9089724 17.0784462,21.7315007 C17.3723549,20.9354695 17.8364803,20.1924001 17.5463199,19.0845819 C17.5207281,19.1595515 17.4951058,19.2355352 17.4695376,19.3124654 C16.6210763,21.8653385 15.0960441,23.2036085 13.6379399,23.195497 C12.1798357,23.1873855 10.8341782,21.4465022 11.0166573,19.6228745 C11.1257076,18.5330676 11.5858376,18.0182734 12.7967191,18.348739 C13.602152,18.5685523 14.2951522,18.8993594 15.2960432,18.5059497 Z M15.9205563,16.4382728 C15.9230021,16.4307975 15.9221905,16.4236821 15.9174465,16.4169559 C15.9141532,16.4122864 15.9109036,16.4076721 15.9076974,16.4031124 C15.9118898,16.4147986 15.9161756,16.4265186 15.9205563,16.4382728 Z" id="Combined-Shape" fill="#2F2F2F"></path>
                            </g>
                        </g>
                    </g>
                </g>
            </g>
        </g>
    </g>
</svg>