<svg xmlns="http://www.w3.org/2000/svg" width="17" height="19" viewBox="0 0 17 19">
    <path fill="#828282" fill-rule="evenodd" d="M14 2.574h1c1.105 0 2 .9 2 1.997v11.904c0 1.103-.89 1.997-2 1.997H2c-1.105 0-2-.9-2-1.997V4.57c0-1.103.89-1.997 2-1.997h1v.421a2 2 0 1 0 4 0v-.42h3v.427C10 4.102 10.895 5 12 5c1.112 0 2-.894 2-1.998v-.428zM2 9v1.002c0 .556.447.999.999.999h1.002A.996.996 0 0 0 5 10.001V8.999A.996.996 0 0 0 4.001 8H2.999A.996.996 0 0 0 2 8.999zm5 0v1.002c0 .556.447.999.999.999h1.002a.996.996 0 0 0 .999-.999V8.999A.996.996 0 0 0 9.001 8H7.999A.996.996 0 0 0 7 8.999zm5 0v1.002c0 .556.447.999.999.999h1.002a.996.996 0 0 0 .999-.999V8.999A.996.996 0 0 0 14.001 8h-1.002a.996.996 0 0 0-.999.999zm-10 5v1.002c0 .556.447.999.999.999h1.002A.996.996 0 0 0 5 15.001v-1.002A.996.996 0 0 0 4.001 13H2.999a.996.996 0 0 0-.999.999zm5 0v1.002c0 .556.447.999.999.999h1.002a.996.996 0 0 0 .999-.999v-1.002A.996.996 0 0 0 9.001 13H7.999a.996.996 0 0 0-.999.999zm5 0v1.002c0 .556.447.999.999.999h1.002a.996.996 0 0 0 .999-.999v-1.002a.996.996 0 0 0-.999-.999h-1.002a.996.996 0 0 0-.999.999zM4 1.009a1 1 0 1 1 2 0v1.982a1 1 0 1 1-2 0V1.009zm7 0a1 1 0 1 1 2 0v1.982a1 1 0 1 1-2 0V1.009z"/>
</svg>
