<?xml version="1.0" encoding="UTF-8"?>
<svg width="18px" height="23px" viewBox="0 0 18 23" version="1.1" xmlns="http://www.w3.org/2000/svg" xmlns:xlink="http://www.w3.org/1999/xlink">
    <!-- Generator: Sketch 47.1 (45422) - http://www.bohemiancoding.com/sketch -->
    <title>Ico</title>
    <desc>Created with Sketch.</desc>
    <defs></defs>
    <g id="Security*" stroke="none" stroke-width="1" fill="none" fill-rule="evenodd">
        <g id="Remote-Unlocked-|-Desktop" transform="translate(-560.000000, -551.000000)" fill="#444444">
            <g id="CTA-Area" transform="translate(162.000000, 162.000000)">
                <path d="M412.625,396.875 L414.004911,396.875 C415.106768,396.875 416,397.767844 416,398.877879 L416,409.497121 C416,410.603281 415.107377,411.5 414.004911,411.5 L399.995089,411.5 C398.893232,411.5 398,410.607156 398,409.497121 L398,398.877879 C398,397.771719 398.892623,396.875 399.995089,396.875 L401.375,396.875 L401.375,391.995642 C401.375,390.341195 402.709701,389 404.375015,389 L409.624985,389 C411.281847,389 412.625,390.347899 412.625,391.995642 L412.625,396.875 Z M410.375,396.875 L410.375,392.25784 C410.375,391.698123 409.929082,391.25 409.379014,391.25 L404.620986,391.25 C404.067886,391.25 403.625,391.701225 403.625,392.25784 L403.625,396.875 L410.375,396.875 Z" id="Ico"></path>
            </g>
        </g>
    </g>
</svg>