<?xml version="1.0" encoding="UTF-8"?>
<svg width="16px" height="16px" viewBox="0 0 16 16" version="1.1" xmlns="http://www.w3.org/2000/svg" xmlns:xlink="http://www.w3.org/1999/xlink">
    <!-- Generator: Sketch 48.2 (47327) - http://www.bohemiancoding.com/sketch -->
    <title>Icons / Search Icon / Unselected</title>
    <desc>Created with Sketch.</desc>
    <defs></defs>
    <g id="Icons-/-Search-Icon-/-Unselected" stroke="none" stroke-width="1" fill="none" fill-rule="evenodd">
        <path d="M6.45315976,0.0809258762 C3.10148362,0.0809258762 0.36135318,2.82106169 0.36135318,6.17273246 C0.36135318,9.52440503 3.10148362,12.2645534 6.45315976,12.2645534 C7.7440315,12.2645534 8.9423436,11.8584449 9.93018379,11.1671323 L13.9335401,15.1760786 C14.3533372,15.5958757 15.0366946,15.5958757 15.4564917,15.1760786 C15.8763068,14.7562814 15.8763068,14.072942 15.4564917,13.6531269 L11.4475455,9.64977082 C12.138858,8.66193063 12.5449665,7.46360061 12.5449665,6.17273246 C12.5449665,2.82105631 9.804818,0.0809258762 6.45315976,0.0809258762 Z M6.45315976,2.23097526 C8.64282381,2.23097526 10.394917,3.9830505 10.394917,6.17273246 C10.394917,8.36239292 8.64282381,10.114504 6.45315976,10.114504 C4.2634778,10.114504 2.51140256,8.36239292 2.51140256,6.17273246 C2.51140256,3.98304513 4.2634778,2.23097526 6.45315976,2.23097526 Z" fill="#9BA1A9" fill-rule="nonzero"></path>
    </g>
</svg>