<?xml version="1.0" encoding="UTF-8"?>
<svg width="17px" height="16px" viewBox="0 0 17 16" version="1.1" xmlns="http://www.w3.org/2000/svg" xmlns:xlink="http://www.w3.org/1999/xlink">
    <!-- Generator: Sketch 47 (45396) - http://www.bohemiancoding.com/sketch -->
    <title>Icons / Diagnostic Issue</title>
    <desc>Created with Sketch.</desc>
    <defs></defs>
    <g id="My-Vehicles*" stroke="none" stroke-width="1" fill="none" fill-rule="evenodd">
        <g id="Vehicle-Selected-|-Desktop" transform="translate(-791.000000, -497.000000)" fill-rule="nonzero" fill="#F23F3F">
            <g id="CONTENT" transform="translate(106.000000, 252.000000)">
                <g id="Cars">
                    <g>
                        <g id="Row-1">
                            <g id="Embedded" transform="translate(415.000000, 0.000000)">
                                <path d="M286.646287,257.575373 L280.00664,246.077986 C279.591768,245.358762 279.045974,245 278.498479,245 C277.950985,245 277.40519,245.358762 276.990319,246.077986 L270.359173,257.575373 C269.520928,259.013821 270.201046,260.190424 271.867333,260.190424 L285.129625,260.190424 C286.795913,260.190424 287.47603,259.013821 286.646287,257.575373 Z M277.63473,250.796301 L279.363929,250.796301 L279.363929,254.819196 L277.63303,254.819196 L277.63303,250.796301 L277.63473,250.796301 Z M277.553116,256.480383 C277.553116,255.957335 277.977131,255.53332 278.500179,255.53332 C279.023228,255.53332 279.447243,255.957335 279.447243,256.480383 C279.447695,256.73215 279.347882,256.973735 279.169856,257.15176 C278.99183,257.329786 278.750245,257.4296 278.498479,257.429147 C277.977131,257.427447 277.553116,257.003432 277.553116,256.480383 Z" id="Icons-/-Diagnostic-Issue"></path>
                            </g>
                        </g>
                    </g>
                </g>
            </g>
        </g>
    </g>
</svg>