<svg xmlns="http://www.w3.org/2000/svg" width="18" height="19" viewBox="0 0 18 19">
    <path fill="#9BA1A9" fill-rule="nonzero" d="M0 12.503l1.505-.869a7.98 7.98 0 0 1-.3-2.176c0-.741.1-1.458.29-2.138l-1.49-.86a9.48 9.48 0 0 1 1.949-3.327l1.448.836A7.742 7.742 0 0 1 7.06 1.822V.2a9.53 9.53 0 0 1 3.856-.006v1.635a7.744 7.744 0 0 1 3.653 2.158l1.477-.853a9.48 9.48 0 0 1 1.95 3.327l-1.53.883c.186.673.284 1.382.284 2.115 0 .747-.102 1.47-.294 2.154l1.544.891a9.48 9.48 0 0 1-1.944 3.33l-1.515-.874a7.743 7.743 0 0 1-3.625 2.129v1.696a9.531 9.531 0 0 1-3.856-.005v-1.686a7.741 7.741 0 0 1-3.63-2.118l-1.486.858A9.48 9.48 0 0 1 0 12.503zm8.998.139c1.712 0 3.1-1.407 3.1-3.143 0-1.735-1.388-3.142-3.1-3.142-1.713 0-3.101 1.407-3.101 3.142 0 1.736 1.388 3.143 3.1 3.143z"/>
</svg>
