<?xml version="1.0" encoding="UTF-8"?>
<svg width="41px" height="51px" viewBox="0 0 41 51" version="1.1" xmlns="http://www.w3.org/2000/svg" xmlns:xlink="http://www.w3.org/1999/xlink">
    <!-- Generator: Sketch 48.1 (47250) - http://www.bohemiancoding.com/sketch -->
    <title>appointments-line</title>
    <desc>Created with Sketch.</desc>
    <defs></defs>
    <g id="Maintenance-Complete-|-Desktop-" stroke="none" stroke-width="1" fill="none" fill-rule="evenodd" transform="translate(-856.000000, -841.000000)">
        <g id="Dashboard-Items" transform="translate(162.000000, 809.000000)">
            <g id="appointments" transform="translate(617.000000, 18.000000)">
                <g id="appointments-line" transform="translate(78.000000, 15.000000)">
                    <path d="M27.3286639,6.55887934 L30.6081036,6.55887934 C31.8155599,6.55887934 32.7943967,7.53771611 32.7943967,8.74517245 C32.7943967,16.9840802 32.7943967,22.163261 32.7943967,26.2827148 M17.2827148,45.9121554 C13.7057322,45.9121554 9.34025833,45.9121554 2.18629311,45.9121554 C0.978836768,45.9121554 4.43761743e-15,44.9333186 0,43.7258623 L0,8.74517245 C-1.47870755e-16,7.53771611 0.978836768,6.55887934 2.18629311,6.55887934 L5.46573278,6.55887934" id="Rectangle-7" stroke="#858585" stroke-width="2" stroke-linecap="round"></path>
                    <path d="M11.3862623,3.27943967 C12.2296868,1.34904694 14.1558992,0 16.3971983,0 C18.6384975,0 20.5647099,1.34904694 21.4081344,3.27943967 L23.0492242,3.27943967 C23.601509,3.27943967 24.0492242,3.72715492 24.0492242,4.27943967 L24.0492242,7.74517245 C24.0492242,8.2974572 23.601509,8.74517245 23.0492242,8.74517245 L9.74517245,8.74517245 C9.1928877,8.74517245 8.74517245,8.2974572 8.74517245,7.74517245 L8.74517245,4.27943967 C8.74517245,3.72715492 9.1928877,3.27943967 9.74517245,3.27943967 L11.3862623,3.27943967 Z" id="Combined-Shape" stroke="#858585" stroke-width="2"></path>
                    <path d="M6.55887934,16.3971983 L26.2355174,16.3971983" id="Line" stroke="#858585" stroke-width="2" stroke-linecap="round"></path>
                    <path d="M6.55887934,21.8629311 L26.2355174,21.8629311" id="Line-Copy" stroke="#858585" stroke-width="2" stroke-linecap="round"></path>
                    <g id="Group-5" transform="translate(18.583491, 29.036705)" fill="#858585">
                        <path d="M4.44402098,19.0076075 L9.63697867,13.8146499 C10.7257969,14.0667927 11.9088461,13.9237253 12.9531306,13.3206908 C14.4470555,12.4581987 15.2665198,10.8797242 15.2348944,9.26897878 C15.2314522,9.10482775 15.0526717,9.00328216 14.9102497,9.08546525 L12.5400638,10.4539642 L10.6672791,9.36148853 L10.6575979,7.1933181 L13.0279989,5.82481918 C13.1702058,5.74263609 13.1719269,5.53717839 13.0314412,5.4521985 C11.6416435,4.61294142 9.84824513,4.53850334 8.34722061,5.42229418 C6.61406115,6.44269827 5.79029407,8.49340283 6.21885088,10.3872711 L1.22960364,15.3763929 C0.444914347,13.9093415 0,12.2332354 0,10.4532139 C0,4.6800633 4.6800633,0 10.4532139,0 C16.2263646,0 20.9064279,4.6800633 20.9064279,10.4532139 C20.9064279,16.2263646 16.2263646,20.9064279 10.4532139,20.9064279 C8.21654913,20.9064279 6.14395497,20.2039579 4.44402098,19.0076075 Z" id="Combined-Shape"></path>
                    </g>
                </g>
            </g>
        </g>
    </g>
</svg>