<?xml version="1.0" encoding="UTF-8"?>
<svg width="17px" height="19px" viewBox="0 0 17 19" version="1.1" xmlns="http://www.w3.org/2000/svg" xmlns:xlink="http://www.w3.org/1999/xlink">
    <!-- Generator: Sketch 48.1 (47250) - http://www.bohemiancoding.com/sketch -->
    <title>Combined Shape</title>
    <desc>Created with Sketch.</desc>
    <defs></defs>
    <g id="Upcoming-Appointment-|-Desktop" stroke="none" stroke-width="1" fill="none" fill-rule="evenodd" transform="translate(-599.000000, -471.000000)">
        <g id="Modal-Copy" transform="translate(304.000000, 375.000000)" fill="#C4172C">
            <g id="Diagnostic-Issue-Copy" transform="translate(35.000000, 82.000000)">
                <path d="M274,16.5740741 L274.999894,16.5740741 C276.104522,16.5740741 277,17.4743789 277,18.5714878 L277,30.4748085 C277,31.5779496 276.109942,32.4722222 274.999894,32.4722222 L262.000106,32.4722222 C260.895478,32.4722222 260,31.5719174 260,30.4748085 L260,18.5714878 C260,17.4683467 260.890058,16.5740741 262.000106,16.5740741 L263,16.5740741 L263,16.9951185 C263,18.1061002 263.895431,19 265,19 C266.11227,19 267,18.102384 267,16.9951185 L267,16.5740741 L270,16.5740741 L270,17.0020869 C270,18.1017394 270.895431,19 272,19 C273.11227,19 274,18.1055038 274,17.0020869 L274,16.5740741 Z M262,22.9989566 L262,24.0010434 C262,24.5573397 262.447248,25 262.998957,25 L264.001043,25 C264.55734,25 265,24.5527519 265,24.0010434 L265,22.9989566 C265,22.4426603 264.552752,22 264.001043,22 L262.998957,22 C262.44266,22 262,22.4472481 262,22.9989566 Z M267,22.9989566 L267,24.0010434 C267,24.5573397 267.447248,25 267.998957,25 L269.001043,25 C269.55734,25 270,24.5527519 270,24.0010434 L270,22.9989566 C270,22.4426603 269.552752,22 269.001043,22 L267.998957,22 C267.44266,22 267,22.4472481 267,22.9989566 Z M272,22.9989566 L272,24.0010434 C272,24.5573397 272.447248,25 272.998957,25 L274.001043,25 C274.55734,25 275,24.5527519 275,24.0010434 L275,22.9989566 C275,22.4426603 274.552752,22 274.001043,22 L272.998957,22 C272.44266,22 272,22.4472481 272,22.9989566 Z M262,27.9989566 L262,29.0010434 C262,29.5573397 262.447248,30 262.998957,30 L264.001043,30 C264.55734,30 265,29.5527519 265,29.0010434 L265,27.9989566 C265,27.4426603 264.552752,27 264.001043,27 L262.998957,27 C262.44266,27 262,27.4472481 262,27.9989566 Z M267,27.9989566 L267,29.0010434 C267,29.5573397 267.447248,30 267.998957,30 L269.001043,30 C269.55734,30 270,29.5527519 270,29.0010434 L270,27.9989566 C270,27.4426603 269.552752,27 269.001043,27 L267.998957,27 C267.44266,27 267,27.4472481 267,27.9989566 Z M272,27.9989566 L272,29.0010434 C272,29.5573397 272.447248,30 272.998957,30 L274.001043,30 C274.55734,30 275,29.5527519 275,29.0010434 L275,27.9989566 C275,27.4426603 274.552752,27 274.001043,27 L272.998957,27 C272.44266,27 272,27.4472481 272,27.9989566 Z M264,15.0093689 C264,14.4519098 264.443865,14 265,14 C265.552285,14 266,14.4433532 266,15.0093689 L266,16.9906311 C266,17.5480902 265.556135,18 265,18 C264.447715,18 264,17.5566468 264,16.9906311 L264,15.0093689 Z M271,15.0093689 C271,14.4519098 271.443865,14 272,14 C272.552285,14 273,14.4433532 273,15.0093689 L273,16.9906311 C273,17.5480902 272.556135,18 272,18 C271.447715,18 271,17.5566468 271,16.9906311 L271,15.0093689 Z" id="Combined-Shape"></path>
            </g>
        </g>
    </g>
</svg>