<svg xmlns="http://www.w3.org/2000/svg" width="16" height="16" viewBox="0 0 16 16">
    <path fill="#9BA1A9" fill-rule="nonzero" d="M6.453.08C3.101.08.361 2.822.361 6.174c0 3.351 2.74 6.092 6.092 6.092 1.291 0 2.49-.407 3.477-1.098l4.004 4.01c.42.419 1.103.419 1.522 0 .42-.42.42-1.104 0-1.524L11.448 9.65a6.044 6.044 0 0 0 1.097-3.477C12.545 2.82 9.805.08 6.453.08zm0 2.151a3.926 3.926 0 0 1 3.942 3.942 3.926 3.926 0 0 1-3.942 3.942 3.926 3.926 0 0 1-3.942-3.942A3.926 3.926 0 0 1 6.453 2.23z"/>
</svg>
