<?xml version="1.0" encoding="UTF-8"?>
<svg width="10px" height="21px" viewBox="0 0 10 21" version="1.1" xmlns="http://www.w3.org/2000/svg" xmlns:xlink="http://www.w3.org/1999/xlink">
    <!-- Generator: Sketch 47.1 (45422) - http://www.bohemiancoding.com/sketch -->
    <title>Icons / Bolt Up</title>
    <desc>Created with Sketch.</desc>
    <defs></defs>
    <g id="Battery*" stroke="none" stroke-width="1" fill="none" fill-rule="evenodd">
        <g id="Hybrid-Battery-is-Plugged-In-|-Desktop" transform="translate(-469.000000, -660.000000)" fill="#FFFFFF">
            <g id="CTA-Area" transform="translate(162.000000, 554.000000)">
                <g id="CTA-Buttons" transform="translate(275.000000, 97.000000)">
                    <g id="Start-Button">
                        <g id="Label" transform="translate(31.000000, 8.000000)">
                            <g id="Group-6">
                                <g id="Icons-/-Bolt-Up">
                                    <path d="M7.43079293,9.83082044 C7.43240134,9.82507901 7.4332609,9.82196861 7.4332609,9.82196861 L9.6661346,1.67473415 C9.8080992,1.15673849 9.52451852,0.912141129 9.02624722,1.15209921 L9.46666509,0.94000225 C8.96632741,1.18095546 8.31543102,1.75093705 8.00823191,2.21531446 L2.21536218,10.9721038 C1.54401767,11.9869415 1.55389489,12.8275248 2.23715887,12.8499993 L1,12.8093056 C1.25887884,12.8178208 3.12968567,12.8479374 4.29717752,12.8472611 C4.29569429,12.8530514 4.29492079,12.856113 4.29492079,12.856113 L2.08177887,21.3094684 C1.93941534,21.8532427 2.13296732,21.9550686 2.51044757,21.5508131 L2.54325228,21.5156815 C2.91608383,21.1164044 3.47917481,20.4164091 3.79056802,19.9633179 L9.50625028,11.6467416 C10.1886966,10.6537513 10.1742868,9.85055686 9.49102283,9.82808234 L10.7281817,9.86877606 C10.4572532,9.85986444 8.59795827,9.8301302 7.43079293,9.83082044 Z" transform="translate(5.864091, 11.433095) rotate(4.000000) translate(-5.864091, -11.433095) "></path>
                                </g>
                            </g>
                        </g>
                    </g>
                </g>
            </g>
        </g>
    </g>
</svg>