<?xml version="1.0" encoding="UTF-8"?>
<svg width="14px" height="14px" viewBox="0 0 14 14" version="1.1" xmlns="http://www.w3.org/2000/svg" xmlns:xlink="http://www.w3.org/1999/xlink">
    <!-- Generator: Sketch 47.1 (45422) - http://www.bohemiancoding.com/sketch -->
    <title>Icons / Settings Icon</title>
    <desc>Created with Sketch.</desc>
    <defs></defs>
    <g id="Battery*" stroke="none" stroke-width="1" fill="none" fill-rule="evenodd">
        <g id="Stopping-Charge-|-Desktop-" transform="translate(-732.000000, -710.000000)" fill="#FFFFFF">
            <g id="CTA-Area" transform="translate(162.000000, 554.000000)">
                <g id="Settings" transform="translate(229.000000, 156.000000)">
                    <path d="M342.837949,8.25641026 C342.981359,8.83794872 343.218282,9.38 343.53059,9.86820513 L342.658462,10.7439231 C342.266821,11.1352051 342.270769,11.3685385 342.615385,11.7131538 L343.466154,12.5641026 C343.814179,12.9124872 344.051282,12.9051282 344.435385,12.5210256 L345.350769,11.6022308 C345.781538,11.8497436 346.248205,12.04 346.74359,12.1620513 L346.74359,13.2820513 C346.74359,13.8384615 346.912128,14 347.397103,14 L348.603077,14 C349.094872,14 349.25641,13.8275128 349.25641,13.2820513 L349.25641,12.1620513 C349.751795,12.04 350.218282,11.8497436 350.649231,11.6022308 L351.586333,12.5423846 C351.974026,12.9266667 352.207179,12.9340256 352.555205,12.5894103 L353.409923,11.7346923 C353.75059,11.3940256 353.757949,11.1605128 353.362897,10.7658205 L352.465462,9.86838462 C352.781718,9.38 353.018641,8.83812821 353.162051,8.25658974 L354.346667,8.25658974 C354.838462,8.25641026 355,8.08392308 355,7.53846154 L355,6.46153846 C355,5.93007692 354.859821,5.74358974 354.346487,5.74358974 L353.161872,5.74358974 C353.039821,5.24820513 352.849564,4.78171795 352.602051,4.35076923 L353.45641,3.5 C353.833333,3.12307692 353.865462,2.88974359 353.503077,2.53076923 L352.648718,1.67641026 C352.307692,1.33538462 352.06359,1.33915385 351.679487,1.72307692 L350.868205,2.53076923 C350.379821,2.21846154 349.837949,1.98135897 349.25641,1.83812821 L349.25641,0.717948718 C349.25641,0.186487179 349.116231,0 348.602897,0 L347.396923,0 C346.912128,0 346.74359,0.175897436 346.74359,0.717948718 L346.74359,1.83794872 C346.162051,1.98135897 345.62,2.21828205 345.131795,2.53058974 L344.320513,1.72289744 C343.936231,1.33897436 343.692308,1.33520513 343.351282,1.67623077 L342.496923,2.53058974 C342.134359,2.8895641 342.166667,3.12307692 342.54359,3.49982051 L343.394359,4.35058974 C343.150436,4.78135897 342.96,5.24802564 342.837949,5.74341026 L341.653333,5.74341026 C341.168538,5.74358974 341,5.91948718 341,6.46153846 L341,7.53846154 C341,8.09487179 341.168538,8.25641026 341.653513,8.25641026 L342.837949,8.25641026 Z M345.946487,7 C345.946487,5.86564103 346.865641,4.94684615 348,4.94684615 C349.134359,4.94684615 350.053154,5.86564103 350.053154,7 C350.053154,8.13435897 349.134359,9.05351282 348,9.05351282 C346.865641,9.05351282 345.946487,8.13435897 345.946487,7 Z" id="Icons-/-Settings-Icon"></path>
                </g>
            </g>
        </g>
    </g>
</svg>