<svg xmlns="http://www.w3.org/2000/svg" xmlns:xlink="http://www.w3.org/1999/xlink" width="30" height="30" viewBox="0 0 30 30">
    <defs>
        <path id="a" d="M28.195 8.608H26.78c-.66 0-1.195.535-1.195 1.195v.828H24.9l-3.45-3.198v-.02h-.021l-.024-.022-.02.022h-4.963V6.379h3.893V5H7.749v1.38h3.893v1.033H6.668c-.525 0-.95.535-.95 1.195v1.413H3.46c-.648 0-1.174.716-1.174 1.599v1.562h-.908V9.289H0v12.566h1.38v-3.892h.907v2.63c0 .883.526 1.598 1.175 1.598h2.493l2.974 2.877v.02h.02l.023.022.02-.023h14.103c.503 0 .911-.535.911-1.195V21.87h1.578v1.47c0 .66.535 1.195 1.195 1.195h1.416c.66 0 1.195-.534 1.195-1.194V9.803c0-.66-.535-1.195-1.195-1.195z"/>
    </defs>
    <use fill="#C4172C" fill-rule="nonzero" xlink:href="#a"/>
</svg>
