<?xml version="1.0" encoding="UTF-8"?>
<svg width="23px" height="23px" viewBox="0 0 23 23" version="1.1" xmlns="http://www.w3.org/2000/svg" xmlns:xlink="http://www.w3.org/1999/xlink">
    <!-- Generator: Sketch 48.1 (47250) - http://www.bohemiancoding.com/sketch -->
    <title>Shape</title>
    <desc>Created with Sketch.</desc>
    <defs></defs>
    <g id="Maintenance-Complete-|-Desktop-" stroke="none" stroke-width="1" fill="none" fill-rule="evenodd" transform="translate(-474.000000, -1159.000000)">
        <g id="Primary-CTA" transform="translate(112.000000, 1028.000000)" fill="#C4172C" fill-rule="nonzero">
            <g id="View-Available-Coupons" transform="translate(362.000000, 127.000000)">
                <path d="M5.99999986,15.0591487 C5.99999986,14.3704878 5.99999986,13.2523068 5.99999986,12.5638481 L5.99999986,9.43558772 C5.99999986,8.74613211 6.44669852,7.85219391 6.99594195,7.44026133 L12.5040577,3.30917447 C13.0541014,2.89664174 13.9466985,2.89724189 14.495942,3.30917447 L20.0040577,7.44026133 C20.5541014,7.85279406 20.9999999,8.74712903 20.9999999,9.43558772 L20.9999999,12.5638481 C20.9999999,13.2533037 20.9999999,14.3701072 20.9999999,15.0591487 L20.9999999,23.8152871 C20.9999999,24.5039479 20.4302986,25.0622179 19.7469082,25.0622179 L7.25309147,25.0622179 C6.56102808,25.0622179 5.99999986,24.5043287 5.99999986,23.8152871 L5.99999986,15.0591487 Z M13.4999999,8.81221789 C14.0177669,8.81221789 14.4374999,8.39248486 14.4374999,7.87471789 C14.4374999,7.35695094 14.0177669,6.93721789 13.4999999,6.93721789 C12.9822329,6.93721789 12.5624999,7.35695094 12.5624999,7.87471789 C12.5624999,8.39248486 12.9822329,8.81221789 13.4999999,8.81221789 Z" id="Shape" transform="translate(13.500000, 14.031109) rotate(45.000000) translate(-13.500000, -14.031109) "></path>
            </g>
        </g>
    </g>
</svg>