<?xml version="1.0" encoding="UTF-8"?>
<svg width="26px" height="22px" viewBox="0 0 26 22" version="1.1" xmlns="http://www.w3.org/2000/svg" xmlns:xlink="http://www.w3.org/1999/xlink">
    <!-- Generator: Sketch 48.1 (47250) - http://www.bohemiancoding.com/sketch -->
    <title>Fill 1</title>
    <desc>Created with Sketch.</desc>
    <defs></defs>
    <g id="Car-With-Heated-Seats-|-Desktop" stroke="none" stroke-width="1" fill="none" fill-rule="evenodd" transform="translate(-640.000000, -273.000000)">
        <g id="Temperature-Dial" transform="translate(230.000000, 239.000000)" fill="#9BA1A9">
            <g id="Heated-Seats" transform="translate(372.000000, 0.000000)">
                <path d="M60.0582118,49.5498346 C60.2711179,49.2389121 60.7526686,48.7899703 61.8462059,48.3402702 C63.7070014,47.5754766 63.9942255,46.4696162 63.9999131,45.8784842 C64.0092029,44.8859968 63.2726578,43.8955948 62.1649015,43.4087356 C61.6037242,43.1230282 61.2702409,42.8149494 61.146251,42.4742618 L62.3099355,42.4742618 L60.6114264,39.8357808 L58.9131069,42.4742618 L59.9742248,42.4742618 C60.0929062,43.2655975 60.6610982,43.9232745 61.6657192,44.4311778 C62.3768596,44.740394 62.8671314,45.3387303 62.8623917,45.8676778 C62.8572729,46.4019337 62.3429236,46.9062348 61.4137582,47.2882524 C60.0690183,47.8410878 59.2191002,48.5279612 58.8873231,49.330293 C58.8759479,49.3574039 58.8698811,49.3824294 58.8602122,49.4089715 L55.9756474,49.0699902 C56.2647674,48.8430546 56.6847024,48.5916624 57.2961202,48.3402702 C59.1569157,47.5754766 59.4441398,46.4696162 59.4498274,45.8784842 C59.4591172,44.8859968 58.7225721,43.8955948 57.6148158,43.4087356 C57.0536386,43.1230282 56.7201552,42.8149494 56.5961654,42.4742618 L57.7598498,42.4742618 L56.0613407,39.8357808 L54.3630212,42.4742618 L55.4241391,42.4742618 C55.5430101,43.2655975 56.1110125,43.9232745 57.1156335,44.4311778 C57.8267739,44.740394 58.3172353,45.3387303 58.3121164,45.8676778 C58.3071872,46.4019337 57.7926483,46.9062348 56.8636725,47.2882524 C55.7633101,47.7406068 54.9945352,48.2830149 54.5696709,48.90486 L51.9878765,48.6015209 C52.1567984,48.5150693 52.3439207,48.4276697 52.5564476,48.3402702 C54.4170535,47.5754766 54.7044672,46.4696162 54.7099652,45.8784842 C54.7194446,44.8859968 53.9828995,43.8955948 52.8751432,43.4087356 C52.313966,43.1230282 51.9804826,42.8149494 51.8564928,42.4742618 L53.0201772,42.4742618 L51.3216681,39.8357808 L49.6233486,42.4742618 L50.6844665,42.4742618 C50.8033375,43.2655975 51.3713399,43.9232745 52.3759609,44.4311778 C53.0871013,44.740394 53.5775627,45.3387303 53.5724438,45.8676778 C53.5675146,46.4019337 53.0529757,46.9062348 52.1239999,47.2882524 C51.3330433,47.613394 50.7146108,47.9855531 50.2705983,48.3996109 L49.5913084,48.3197948 L43.5245275,36.8814481 C42.9557668,35.7753981 42.8293123,35.4910177 41.6917909,35.0170505 L38.6267394,34.0535698 C38.1686975,33.8795291 37.9000528,34.1481737 38.0348491,34.59048 L43.4581721,55.1030246 C43.5846265,55.7665788 43.9442729,55.8716099 44.4961604,55.8716099 L60.990221,55.8716099 C62.0803457,55.8716099 62.4200855,55.6505516 62.5148789,55.1449233 L63.7786652,51.2900528 C64.0630456,50.5317052 64.0947066,49.9944159 63.0902752,49.9060684 L60.0582118,49.5498346 Z" id="Fill-1"></path>
            </g>
        </g>
    </g>
</svg>