<?xml version="1.0" encoding="UTF-8"?>
<svg width="20px" height="21px" viewBox="0 0 20 21" version="1.1" xmlns="http://www.w3.org/2000/svg" xmlns:xlink="http://www.w3.org/1999/xlink">
    <!-- Generator: Sketch 47.1 (45422) - http://www.bohemiancoding.com/sketch -->
    <title>Shape</title>
    <desc>Created with Sketch.</desc>
    <defs></defs>
    <g id="Overview*" stroke="none" stroke-width="1" fill="none" fill-rule="evenodd">
        <g id="Preferred-Dealer-|-Mobile-" transform="translate(-41.000000, -645.000000)" fill-rule="nonzero" fill="#9BA1A9">
            <g id="Preferred-Dealer" transform="translate(10.000000, 557.000000)">
                <path d="M31,98.63782 C31,93.1149726 35.4759382,88.63782 41,88.63782 C46.5228474,88.63782 51,93.1137582 51,98.63782 C51,104.160667 46.5240618,108.63782 41,108.63782 C35.4771526,108.63782 31,104.161882 31,98.63782 Z M34.9954849,98.063371 L40.2568944,99.3760841 L41.6504946,104.680238 C41.7081564,104.899704 41.8174349,104.904673 41.8949172,104.692642 L45.7595551,94.1170451 C45.8363967,93.9067679 45.7285874,93.79724 45.5173249,93.8763249 L34.9800541,97.8208859 C34.7705392,97.8993167 34.7757003,98.0085349 34.9954849,98.063371 Z" id="Shape"></path>
            </g>
        </g>
    </g>
</svg>