<?xml version="1.0" encoding="UTF-8"?>
<svg width="18px" height="23px" viewBox="0 0 18 23" version="1.1" xmlns="http://www.w3.org/2000/svg" xmlns:xlink="http://www.w3.org/1999/xlink">
    <!-- Generator: Sketch 47.1 (45422) - http://www.bohemiancoding.com/sketch -->
    <title>Ico</title>
    <desc>Created with Sketch.</desc>
    <defs></defs>
    <g id="Security*" stroke="none" stroke-width="1" fill="none" fill-rule="evenodd">
        <g id="Remote-Unlocked-|-Desktop" transform="translate(-560.000000, -551.000000)" fill="#444444">
            <g id="CTA-Area" transform="translate(162.000000, 162.000000)">
                <path d="M412.625,392.375 L412.625,391.995642 C412.625,390.347899 411.281847,389 409.624985,389 L404.375015,389 C402.709701,389 401.375,390.341195 401.375,391.995642 L401.375,396.875 L399.995089,396.875 C398.892623,396.875 398,397.771719 398,398.877879 L398,409.497121 C398,410.607156 398.893232,411.5 399.995089,411.5 L414.004911,411.5 C415.107377,411.5 416,410.603281 416,409.497121 L416,398.877879 C416,397.767844 415.106768,396.875 414.004911,396.875 L412.625,396.875 L412.625,396.869099 L410.375,396.873033 L410.375,396.875 L403.625,396.875 L403.625,392.25784 C403.625,391.701225 404.067886,391.25 404.620986,391.25 L409.379014,391.25 C409.929082,391.25 410.375,391.698123 410.375,392.25784 L410.375,392.375 C410.375,392.99632 410.87868,393.5 411.5,393.5 C412.12132,393.5 412.625,392.99632 412.625,392.375 Z" id="Ico"></path>
            </g>
        </g>
    </g>
</svg>