<svg xmlns="http://www.w3.org/2000/svg" width="15" height="20" viewBox="0 0 15 20">
    <path fill="#828282" fill-rule="nonzero" d="M0 5.585A7.002 7.002 0 0 1 2.552.162a.795.795 0 0 1 1.276.596v3.23c-.017.444.293.827.672 1.129a3.44 3.44 0 0 0 2.143.716h.746a3.44 3.44 0 0 0 2.144-.716c.378-.302.689-.685.672-1.13V.76A.795.795 0 0 1 11.48.164a7.017 7.017 0 0 1 .11 10.75c-.459.4-.837.884-1.112 1.426a5.65 5.65 0 0 0-.591 2.603v4.287H4.147v-4.287a5.648 5.648 0 0 0-.59-2.605 4.725 4.725 0 0 0-1.112-1.427A6.996 6.996 0 0 1 0 5.585z"/>
</svg>
