<?xml version="1.0" encoding="UTF-8"?>
<svg width="10px" height="26px" viewBox="0 0 10 26" version="1.1" xmlns="http://www.w3.org/2000/svg" xmlns:xlink="http://www.w3.org/1999/xlink">
    <!-- Generator: Sketch 47.1 (45422) - http://www.bohemiancoding.com/sketch -->
    <title>Icons / Bolt Up</title>
    <desc>Created with Sketch.</desc>
    <defs></defs>
    <g id="Symbols" stroke="none" stroke-width="1" fill="none" fill-rule="evenodd">
        <g id="Icons-/-Remote-Commands-/-Charging-Solid" transform="translate(-10.000000, -2.000000)" fill="#C4172C">
            <path d="M16.7802699,12.3206951 C16.7890475,12.2907852 16.7941667,12.2727833 16.7941667,12.2727833 C16.7941667,12.2727833 19.14914,4.11799011 19.3447795,2.90313511 C19.5404191,1.6882801 18.7451551,1.62750839 17.5458733,3.16001859 C16.3465915,4.69252879 9.88671491,14.551255 10.0015113,15.4097606 C10.0015113,15.847907 10.620959,15.9302187 11.3887227,15.9323696 C12.1564864,15.9345205 13.1002168,15.9302187 13.1002168,15.9302187 L13.1720596,15.9288541 C13.1634859,15.9606901 13.1587599,15.9787925 13.1587599,15.9787925 C13.1587599,15.9787925 9.93097371,25.8410572 10.0806678,26.8892002 C10.165323,27.2094378 10.7848603,27.1911572 11.4237988,26.4243911 C12.5213509,25.3119512 19.5773462,14.7106735 19.9512461,13.2279428 C20.0425696,12.7792877 20.0826726,12.2877446 19.3427463,12.2881474 C18.6028201,12.2885501 16.8527099,12.3213571 16.8527099,12.3213571 L16.7802699,12.3206951 Z" id="Icons-/-Bolt-Up"></path>
        </g>
    </g>
</svg>