<?xml version="1.0" encoding="UTF-8"?>
<svg width="18px" height="18px" viewBox="0 0 18 18" version="1.1" xmlns="http://www.w3.org/2000/svg" xmlns:xlink="http://www.w3.org/1999/xlink">
    <!-- Generator: Sketch 47.1 (45422) - http://www.bohemiancoding.com/sketch -->
    <title>Shape</title>
    <desc>Created with Sketch.</desc>
    <defs></defs>
    <g id="Overview*" stroke="none" stroke-width="1" fill="none" fill-rule="evenodd">
        <g id="Preferred-Dealer-|-Mobile-" transform="translate(-42.000000, -704.000000)" fill-rule="nonzero" fill="#9DA3AB">
            <g id="Preferred-Dealer" transform="translate(10.000000, 557.000000)">
                <path d="M35.427821,147.015716 C35.3081882,146.99179 35.1646289,146.99179 35.0689226,147.039643 C33.7768886,147.542101 32.9633857,149.384445 32.7719732,150.652553 C32.1738093,154.767921 35.427821,158.332978 38.4186406,160.67778 C41.0744884,162.759391 46.1708449,166.180888 49.185591,162.879023 C49.5684159,162.472272 50.0230205,161.874108 49.999094,161.275944 C49.9273143,160.271029 48.9941786,159.553232 48.2763819,159.002921 C47.7260711,158.59617 46.5775964,157.471621 45.8597997,157.495548 C45.2137826,157.519475 44.8070312,158.189418 44.4002797,158.59617 L43.682483,159.313966 C43.5628502,159.433599 42.0315506,158.428684 41.8640647,158.309051 C41.2419742,157.9023 40.6438103,157.447695 40.1174261,156.945237 C39.5910418,156.44278 39.1125107,155.892469 38.7057592,155.318231 C38.5861265,155.150746 37.6051376,153.691226 37.7008439,153.571593 C37.7008439,153.571593 38.5382734,152.662384 38.7775389,152.303485 C39.2799966,151.537835 39.6628215,150.939672 39.0885842,150.030462 C38.8732451,149.695491 38.610053,149.432298 38.3229343,149.14518 C37.8204767,148.666649 37.318019,148.164191 36.7437816,147.75744 C36.4327364,147.518174 35.9063521,147.087496 35.427821,147.015716 Z" id="Shape"></path>
            </g>
        </g>
    </g>
</svg>