<?xml version="1.0" encoding="utf-8"?>
<!-- Generator: Adobe Illustrator 22.0.1, SVG Export Plug-In . SVG Version: 6.00 Build 0)  -->
<svg version="1.1" id="Layer_1" xmlns="http://www.w3.org/2000/svg" xmlns:xlink="http://www.w3.org/1999/xlink" x="0px" y="0px"
	 width="29px" height="26px" viewBox="0 0 29 26" style="enable-background:new 0 0 29 26;" xml:space="preserve">
<style type="text/css">
	.st0{fill:#8EC439;}
</style>
<title>Icons / Rear Defroster</title>
<desc>Created with Sketch.</desc>
<g id="Flagship-Climate-Off-_x7C_-Desktop" transform="translate(-770.000000, -330.000000)">
	<g id="Temperature-Dial" transform="translate(257.000000, 218.000000)">
		<g id="Accessory-Defroster" transform="translate(480.000000, 91.000000)">
			<g id="All-items" transform="translate(22.000000, 14.000000)">
				<g id="Group-7" transform="translate(0.000000, 7.000000)">
					<path id="Icons-_x2F_-Rear-Defroster" class="st0" d="M37.5,17.7H32c-0.7-2.6-1.3-5.1-0.1-7.7h0.7l-2.1-4.3L28.3,10h1.3
						c-1.2,2.6-0.6,5.1,0.1,7.7h-2.8c-0.7-2.6-1.3-5.1-0.1-7.7h0.7l-2.1-4.3L23.3,10h1.3c-1.2,2.6-0.6,5.1,0.1,7.7h-2.8
						c-0.7-2.6-1.3-5.1-0.1-7.7h0.7l-2.1-4.3L18.2,10h1.3c-1.2,2.6-0.6,5.1,0.1,7.7H13V2h24.5V17.7z M37.5,0H13c-1.1,0-2,0.9-2,2
						v15.6c0,1.1,0.9,2,2,2H20c0.4,2.1,0.6,4.1-0.5,6.2h2.3c1.1-2.1,0.9-4.1,0.5-6.2h2.8c0.4,2.1,0.6,4.1-0.5,6.2h2.3
						c1.1-2.1,0.9-4.1,0.5-6.2h2.8c0.4,2.1,0.6,4.1-0.5,6.2H32c1.1-2.1,0.9-4.1,0.5-6.2h5.1c1.1,0,2-0.9,2-2V2
						C39.5,0.9,38.6,0,37.5,0L37.5,0z"/>
				</g>
			</g>
		</g>
	</g>
</g>
</svg>
