<?xml version="1.0" encoding="UTF-8"?>
<svg width="15px" height="15px" viewBox="0 0 15 15" version="1.1" xmlns="http://www.w3.org/2000/svg" xmlns:xlink="http://www.w3.org/1999/xlink">
    <!-- Generator: Sketch 48.1 (47250) - http://www.bohemiancoding.com/sketch -->
    <title>Location Icon</title>
    <desc>Created with Sketch.</desc>
    <defs></defs>
    <g id="Maintenance-Notes-Saved-|-Mobile" stroke="none" stroke-width="1" fill="none" fill-rule="evenodd" transform="translate(-55.000000, -968.000000)">
        <g id="Service-Locations" transform="translate(55.000000, 968.000000)" fill="#C4172C" fill-rule="nonzero">
            <path d="M7.62109375,0.78125 C3.84960391,0.78125 0.78125,3.84960391 0.78125,7.62109375 C0.78125,11.3924468 3.84960391,14.4609375 7.62109375,14.4609375 C11.3925836,14.4609375 14.4609375,11.3924468 14.4609375,7.62109375 C14.4609375,3.84960391 11.3925836,0.78125 7.62109375,0.78125 Z M8.17265875,13.3305849 L8.17265875,11.4823223 L7.06952875,11.4823223 L7.06952875,13.3307217 C4.34576617,13.0695765 2.17261102,10.8964213 1.91160258,8.17265875 L3.76000195,8.17265875 L3.76000195,7.06952875 L1.91160258,7.06952875 C2.17274781,4.34576617 4.34576617,2.17274781 7.06952875,1.91160258 L7.06952875,3.75986516 L8.17265875,3.75986516 L8.17265875,1.91160258 C10.8964213,2.17261102 13.0695765,4.34562938 13.3305849,7.06952875 L11.4823223,7.06952875 L11.4823223,8.17265875 L13.3307217,8.17265875 C13.0695765,10.8964213 10.8964213,13.0695765 8.17265875,13.3305849 Z" id="Location-Icon"></path>
        </g>
    </g>
</svg>