<?xml version="1.0" encoding="UTF-8"?>
<svg width="17px" height="23px" viewBox="0 0 17 23" version="1.1" xmlns="http://www.w3.org/2000/svg" xmlns:xlink="http://www.w3.org/1999/xlink">
    <!-- Generator: Sketch 48.1 (47250) - http://www.bohemiancoding.com/sketch -->
    <title>notifications_valet_alert</title>
    <desc>Created with Sketch.</desc>
    <defs></defs>
    <g id="Notifications-Dropdown-|-Desktop" stroke="none" stroke-width="1" fill="none" fill-rule="evenodd" transform="translate(-559.000000, -414.000000)">
        <g id="global-notifications" fill="#2F2F2F" fill-rule="nonzero">
            <g id="Icons-/-Notifications" transform="translate(537.000000, 0.000000)">
                <g id="Notifications-Dropdown" transform="translate(0.000000, 71.000000)">
                    <g id="Cell-Copy-4" transform="translate(0.000000, 310.000000)">
                        <g id="Group-7" transform="translate(22.000000, 12.000000)">
                            <g id="noun_1110761_cc" transform="translate(0.000000, 21.000000)">
                                <path d="M10.2089177,2.11664896 C10.2089184,3.28726238 9.26061291,4.23658321 8.09000015,4.2378352 C6.92004975,4.23783453 5.971501,3.28962334 5.97108391,2.11967301 C5.97066681,0.949722682 6.91853923,0.000835410203 8.08848934,5.51263429e-07 C9.25843945,-0.000834307676 10.2076651,0.946699223 10.2089177,2.11664896 Z M0,18.2943806 C0,16.4998797 1.9646495,15.3020334 4.51461029,14.7439459 L4.78004215,16.7063267 C2.99461587,17.130564 1.97826139,17.8406509 1.97826139,18.2943806 C1.97826139,18.9863184 4.2990887,20.2499555 8.09000015,20.2499555 C11.8809116,20.2499555 14.2017389,18.9727065 14.2017389,18.292112 C14.2017389,17.8383823 13.1853844,17.1328326 11.4022268,16.7040581 L11.66539,14.7371399 C14.2130822,15.3020334 16.1800003,16.4998797 16.1800003,18.2943806 C16.1800003,20.8692965 12.1100451,22.2304856 8.09000015,22.2304856 C4.06995521,22.2304856 0,20.8692965 0,18.2943806 Z M4.68702757,8.09226881 C4.67484827,7.35742063 4.95858162,6.64852314 5.47441498,6.12500988 C5.99024834,5.60149661 6.69487555,5.30731851 7.42982347,5.30863724 L8.75017683,5.30863724 C9.48512476,5.30731851 10.189752,5.60149661 10.7055853,6.12500988 C11.2214187,6.64852314 11.505152,7.35742063 11.4929727,8.09226881 L11.4317192,10.7601993 C11.4251429,11.1476462 11.2135861,11.5025436 10.8759004,11.6926138 L10.2452161,12.0487916 L9.48521891,17.7340245 C9.43684972,18.1457892 9.08763836,18.4559825 8.67304279,18.4554547 L7.49788292,18.4554547 C7.08289702,18.4570136 6.73309814,18.1462984 6.6857068,17.7340245 L5.92570959,12.0487916 L5.29502534,11.6926138 C4.95733965,11.5025436 4.74578282,11.1476462 4.73920648,10.7601993 L4.68702757,8.09226881 Z" id="notifications_valet_alert"></path>
                            </g>
                        </g>
                    </g>
                </g>
            </g>
        </g>
    </g>
</svg>