<?xml version="1.0" encoding="UTF-8"?>
<svg width="14px" height="17px" viewBox="0 0 14 17" version="1.1" xmlns="http://www.w3.org/2000/svg" xmlns:xlink="http://www.w3.org/1999/xlink">
    <!-- Generator: Sketch 48.2 (47327) - http://www.bohemiancoding.com/sketch -->
    <title>Shape</title>
    <desc>Created with Sketch.</desc>
    <defs></defs>
    <g id="Hover-Over-a-Trip-|-Desktop" stroke="none" stroke-width="1" fill="none" fill-rule="evenodd" transform="translate(-927.000000, -177.000000)">
        <g id="Sorting-Options" transform="translate(127.000000, 153.000000)" fill="#C4172C" fill-rule="nonzero">
            <g id="Export" transform="translate(800.000000, 21.000000)">
                <path d="M14,7.12505882 L9.88235294,11.2476471 L9.88235294,7.94117647 L9.05882353,7.94117647 C7.69423529,7.94117647 6.58823529,9.04717647 6.58823529,10.4117647 L6.58823529,12.8823529 L4.94117647,12.8823529 L4.94117647,10.4117647 C4.94117647,8.138 6.78505882,6.29411765 9.05882353,6.29411765 L9.88235294,6.29411765 L9.88235294,3 L14,7.12505882 Z M1.64705882,5.47058824 L1.64705882,17 C1.64705882,17.4545882 2.016,17.8235294 2.47058824,17.8235294 L9.05882353,17.8235294 C9.51341176,17.8235294 9.88235294,17.4545882 9.88235294,17 L9.88235294,13.5774118 L11.5294118,11.9303529 L11.5294118,17 C11.5294118,18.3645882 10.4234118,19.4705882 9.05882353,19.4705882 L2.47058824,19.4705882 C1.106,19.4705882 0,18.3645882 0,17 L0,5.47058824 C0,4.106 1.106,3 2.47058824,3 L8.23529412,3 L8.23529412,4.64705882 L2.47058824,4.64705882 C2.016,4.64705882 1.64705882,5.016 1.64705882,5.47058824 Z" id="Shape"></path>
            </g>
        </g>
    </g>
</svg>