<?xml version="1.0" encoding="UTF-8"?>
<svg width="22px" height="22px" viewBox="0 0 22 22" version="1.1" xmlns="http://www.w3.org/2000/svg" xmlns:xlink="http://www.w3.org/1999/xlink">
    <!-- Generator: Sketch 47.1 (45422) - http://www.bohemiancoding.com/sketch -->
    <title>Combined Shape</title>
    <desc>Created with Sketch.</desc>
    <defs>
        <path d="M12.2848008,16.1495639 C12.3081842,16.0886377 12.3321769,16.0262922 12.3567287,15.9625614 C7.86194827,14.4066472 5.47792102,11.7047711 5.44626354,9.0776996 C5.41315439,6.33016277 8.69240157,3.73750409 12.1805753,4.02134506 C14.2651213,4.1909695 15.2634212,5.0409878 14.6727776,7.33332437 C14.3718944,8.50107713 13.8814507,9.63151083 13.9883487,10.9816393 C13.9955128,10.9739097 14.0026837,10.9660554 14.0098605,10.958074 C14.0661598,10.8954626 14.1252185,10.8501276 14.1869566,10.8202698 C15.776576,6.88560816 18.2947568,4.80515225 20.7477196,4.77559286 C23.4952565,4.74248371 26.0879151,8.02173089 25.8040742,11.5099046 C25.6344497,13.5944506 24.7844314,14.5927505 22.4920948,14.0021069 C21.0227695,13.6235205 19.6125275,12.9448231 17.7493834,13.5335666 C17.8710874,13.6057381 17.9945543,13.6695963 18.1196957,13.7231489 C22.8373267,15.7419953 25.1334641,18.8282731 24.8791961,21.5642195 C24.6249281,24.3001659 21.0926383,26.535847 17.6532427,25.8889475 C15.5978466,25.5023579 14.6938666,24.5526453 15.520889,22.3346055 C16.0908945,20.8058741 16.998856,19.3813535 16.3730898,17.2242775 C16.3126751,17.4024342 16.2521056,17.5836825 16.1916958,17.7677681 C14.5917003,22.6434012 11.7172883,25.1997879 8.96959212,25.1849409 C6.22189592,25.1700939 3.68686287,21.846098 4.03153763,18.3634093 C4.23751659,16.2821412 5.10482816,15.2988282 7.38650745,15.9293885 C8.95424853,16.3626463 10.2958599,17.0221358 12.2848008,16.1495639 Z" id="path-1"></path>
    </defs>
    <g id="Symbols" stroke="none" stroke-width="1" fill="none" fill-rule="evenodd">
        <g id="Icons-/-Remote-Commands-/-AC-On-Solid" transform="translate(-4.000000, -4.000000)">
            <mask id="mask-2" fill="white">
                <use xlink:href="#path-1"></use>
            </mask>
            <use id="Combined-Shape" fill="#C4172C" xlink:href="#path-1"></use>
        </g>
    </g>
</svg>