<svg id="Layer_1" data-name="Layer 1" xmlns="http://www.w3.org/2000/svg" viewBox="0 0 3364.67 1010.21"><title>uvo-logo</title><path d="M2554.77,1010.21c-47.33-8.49-95.32-14.34-141.84-26-109.25-27.41-204.93-78.33-274.36-170.48C2007.71,640.07,2027.81,327,2308.21,199.83c119.68-54.3,246.29-67.32,375.71-61.83,86,3.65,170.42,16.56,251.65,46.71,180.08,66.84,276.53,200.15,278.17,385.15,1.6,180-98.15,322.3-273.48,390-64.85,25.05-132.12,39.42-201.29,45.43-8.15.71-16.15,3.23-24.22,4.9Zm67.51-68.83c59.73-7,105.68-7.5,150.38-16.3,126.49-24.91,220.23-90.83,260.73-218.91,18.1-57.25,19.6-116.24,16.61-175.54-7.27-144.15-90-255.71-226.72-300.95-120.32-39.79-242.66-40.84-363.55-3.7-117.18,36-194.28,114.93-221.85,235-11.2,48.77-14,100.69-12.45,150.92,4.48,144.43,88.86,257,226.76,299C2511.19,928.88,2574,932.49,2622.27,941.38Z"/><path d="M3364.67,325.3c-31.4,22.45-43.78,19.17-59.92-16.61q-81-179.59-265.33-248.84c-3.89-1.46-7.74-3-11.58-4.58-16-6.56-24.29-17.87-18.77-35.24,6-18.94,21.25-23.88,37.85-17.19,31.51,12.7,63.23,25.63,92.87,42.07,94.6,52.47,163.55,129.41,210.07,226.8,4.63,9.68,9.87,19.07,14.82,28.6Z"/><path d="M975.92,489.92c0,76.65-1.05,153.31.31,229.93,1.3,73.09-29.37,130.36-83.06,176.62-58.42,50.33-128.6,75.85-203.08,89.71C538.41,1014.38,387,1014,237.26,974.08c-67.61-18-129.44-48.46-177.47-101.5C21,829.69-.36,780.28,0,721,1,561.91.31,402.79.36,243.66c0-46.8,22-70.07,69.21-73.1a281.47,281.47,0,0,1,30-.08c45.61,1.94,70,27.06,70,73.07.1,140,3,280-1,419.86-4.66,161.48,99.13,242.92,213.88,264,87.15,16,174.11,15.78,259.18-11.74C748,881.25,804.87,806.11,806,694.71c1.55-147.43.42-294.89,0-442.34-.1-33.06,6.11-63.89,40.54-75.41,38-12.72,78.89-15.34,110.64,14.12,11.9,11,17.54,33.83,17.93,51.44C976.92,324.94,975.91,407.44,975.92,489.92Z"/><path d="M1557.18,1004.29c-56.84,5.49-93.26-19.49-120.71-69.25-125.33-227.21-253-453.14-379.73-679.56-28.5-50.9-10.48-80.57,48.26-85.74,47.58-4.18,83,11.41,107.15,52.26,19.46,32.9,39.38,65.58,57.45,99.24,85.36,159,169.93,318.39,255.57,477.21,7,12.9,19.9,22.58,30.06,33.76,10.84-11.36,24.85-21,32-34.35,91.57-169.8,181.82-340.31,273.31-510.15,15.71-29.16,35.15-56.36,53.67-83.93,28.61-42.59,85.41-39.89,122.59-27.61,34.93,11.54,42.18,36.77,23.92,69.49q-111.27,199.35-223,398.46c-54.44,97.24-110.47,193.64-162.69,292.06C1648.85,985.67,1612.59,1010,1557.18,1004.29Z"/><path d="M3019.81,107.46c12.25,4.08,19.5,5.82,26.18,8.83q132.87,60,201.36,188.81c11.93,22.53,9.14,39.91-8,47.19-20.35,8.64-32.51-1.87-41.7-19.6C3157.94,256.12,3098,201,3019.27,166.13c-15.23-6.74-26.81-17-20.86-34C3001.84,122.3,3012.86,115.12,3019.81,107.46Z"/></svg>