<?xml version="1.0" encoding="UTF-8"?>
<svg width="19px" height="26px" viewBox="0 0 19 26" version="1.1" xmlns="http://www.w3.org/2000/svg" xmlns:xlink="http://www.w3.org/1999/xlink">
    <!-- Generator: Sketch 49 (51002) - http://www.bohemiancoding.com/sketch -->
    <title>Shape</title>
    <desc>Created with Sketch.</desc>
    <defs></defs>
    <g id="Software-Update*" stroke="none" stroke-width="1" fill="none" fill-rule="evenodd">
        <g id="Update-Step-2-|-Desktop" transform="translate(-727.000000, -825.000000)" fill="#BB1A30" fill-rule="nonzero">
            <path d="M739.012648,832.823529 C738.550585,832.823529 738.176471,832.44916 738.176471,831.987352 L738.176471,825 L728.024234,825 C727.458565,825 727,825.457941 727,826.024795 L727,849.122264 C727,849.688243 727.460251,850.147059 728.028259,850.147059 L744.971741,850.147059 C745.539633,850.147059 746,849.685284 746,849.119475 L746,832.823529 L739.012648,832.823529 L739.012648,832.823529 Z M741.561692,842.948847 C741.38524,843.037784 741.120563,843.126721 740.767659,843.126721 C740.061852,843.126721 739.003142,842.948847 738.120884,842.50416 C736.621044,842.682035 735.474108,842.859909 734.591849,843.215659 C734.503624,843.215659 734.503624,843.215659 734.415398,843.304596 C733.356688,845.17228 732.474429,846.061654 731.768622,846.061654 C731.59217,846.061654 731.503945,846.061654 731.415719,845.972717 L730.974589,845.705905 L730.974589,845.616967 C730.886364,845.439093 730.886364,845.350155 730.886364,845.17228 C730.974589,844.727594 731.503945,843.927158 732.562655,843.304596 C732.739107,843.215659 733.003784,843.037784 733.356688,842.859909 C733.621365,842.415223 733.886043,841.881598 734.238946,841.259037 C734.680075,840.369664 734.944753,839.48029 735.20943,838.679854 C734.856527,837.612606 734.680075,836.990044 735.032979,835.744921 C735.121205,835.389172 735.385882,835.033422 735.738786,835.033422 L735.915237,835.033422 C736.091689,835.033422 736.268141,835.12236 736.444592,835.211297 C737.062173,835.833859 736.797496,837.256856 736.444592,838.413042 L736.444592,838.501979 C736.797496,839.48029 737.326851,840.280726 737.856206,840.81435 C738.120884,840.992225 738.297335,841.1701 738.650239,841.347974 C739.091368,841.347974 739.444271,841.259037 739.797175,841.259037 C740.855885,841.259037 741.561692,841.436912 741.826369,841.881598 C741.914595,842.059473 741.914595,842.237348 741.914595,842.415223 C741.826369,842.50416 741.738143,842.770972 741.561692,842.948847 L741.561692,842.948847 Z M735.827011,839.48029 C735.65056,840.102851 735.297656,840.81435 734.944753,841.614786 C734.768301,841.970536 734.591849,842.237348 734.415398,842.593097 L734.503624,842.593097 L734.591849,842.593097 C735.738786,842.148411 736.797496,841.881598 737.503303,841.792661 C737.326851,841.703724 737.238625,841.614786 737.150399,841.525849 C736.70927,840.992225 736.179915,840.280726 735.827011,839.48029 L735.827011,839.48029 Z M741.208788,842.237348 C741.120563,842.148411 740.767659,841.881598 739.532497,841.881598 L739.356045,841.881598 C739.356045,841.881598 739.356045,841.881598 739.356045,841.970536 C739.973626,842.237348 740.591207,842.415223 741.032337,842.415223 L741.208788,842.415223 L741.297014,842.415223 C741.297014,842.415223 741.297014,842.415223 741.297014,842.326285 C741.297014,842.326285 741.208788,842.326285 741.208788,842.237348 L741.208788,842.237348 Z M733.09201,843.571408 C732.915558,843.660346 732.739107,843.749283 732.650881,843.83822 C732.0333,844.371844 731.59217,844.994406 731.503945,845.261218 C732.0333,845.17228 732.562655,844.638656 733.09201,843.571408 L733.09201,843.571408 Z M735.738786,837.434731 C735.827011,837.078982 735.915237,836.901107 735.915237,836.634295 L735.915237,836.45642 C736.003463,836.011733 736.003463,835.655984 735.915237,835.567047 C735.915237,835.567047 735.915237,835.567047 735.915237,835.478109 L735.827011,835.389172 C735.827011,835.389172 735.827011,835.478109 735.738786,835.478109 C735.562334,836.011733 735.562334,836.634295 735.738786,837.434731 L735.738786,837.434731 Z M746,831.705882 L739.854323,831.705882 C739.54493,831.705882 739.294118,831.455243 739.294118,831.145677 L739.294118,825 L746,831.705882 L746,831.705882 Z" id="Shape"></path>
        </g>
    </g>
</svg>