<svg xmlns="http://www.w3.org/2000/svg" width="16" height="28" viewBox="0 0 16 28">
    <path fill="#434343" fill-rule="evenodd" d="M2.768 27.166a2 2 0 0 1-2.002-2.002V6.386c0-1.105.905-2.002 2.002-2.002h11.185a2 2 0 0 1 2 2.002v18.778a2.007 2.007 0 0 1-2 2.002H2.768zm3.06-3.375h5.064c.938 0 1.687-.756 1.687-1.688 0-.938-.755-1.687-1.687-1.687H5.829c-.939 0-1.688.755-1.688 1.687 0 .939.756 1.688 1.688 1.688zm0-6.75h5.064c.938 0 1.687-.756 1.687-1.688 0-.938-.755-1.687-1.687-1.687H5.829c-.939 0-1.688.755-1.688 1.687 0 .939.756 1.688 1.688 1.688zm0-5.907h5.064c.938 0 1.687-.755 1.687-1.687 0-.939-.755-1.688-1.687-1.688H5.829c-.939 0-1.688.756-1.688 1.688 0 .938.756 1.687 1.688 1.687zm-.686-7.593a.995.995 0 0 1-1-.995V1.16c0-.55.453-.994 1-.994h6.436a.995.995 0 0 1 1 .994v1.386c0 .55-.453.995-1 .995H5.142z"/>
</svg>
