<svg xmlns="http://www.w3.org/2000/svg" width="24" height="24" viewBox="0 0 24 24">
    <path fill="#4BBEF0" fill-rule="evenodd" d="M9.072 13.512l.01-.026a15.02 15.02 0 0 0-.301-.122c-5.03-1.62-7.702-4.59-7.736-7.475C1.01 2.973 4.445.221 8.097.523c2.183.18 3.229 1.082 2.61 3.515-.356 1.4-.965 2.749-.64 4.44.21-.063.598-.128 1.004-.585a.748.748 0 0 1 .054-.056c1.685-4.188 4.38-6.404 7.006-6.435 2.916-.035 5.667 3.4 5.366 7.053-.18 2.183-1.082 3.228-3.515 2.61-1.534-.39-3.008-1.085-4.938-.52l-.03.093c.117.069.237.13.357.183 4.939 2.135 7.34 5.407 7.069 8.31-.27 2.904-3.973 5.282-7.575 4.6-2.152-.407-3.098-1.413-2.228-3.768.588-1.592 1.516-3.078.936-5.294-.052.15-.103.302-.154.456-1.697 5.105-4.747 7.782-7.663 7.766C2.84 22.875.148 19.393.513 15.746c.219-2.18 1.139-3.21 3.56-2.549 1.611.44 2.997 1.102 5 .315zm1.25-4.136a.046.046 0 0 0-.007-.042l-.02-.028.026.07z"/>
</svg>
