<?xml version="1.0" encoding="UTF-8"?>
<svg width="25px" height="18px" viewBox="0 0 25 18" version="1.1" xmlns="http://www.w3.org/2000/svg" xmlns:xlink="http://www.w3.org/1999/xlink">
    <!-- Generator: Sketch 48.2 (47327) - http://www.bohemiancoding.com/sketch -->
    <title>Icons / Mobile Menu Icon</title>
    <desc>Created with Sketch.</desc>
    <defs></defs>
    <g id="Pre_Login-|-Mobile" stroke="none" stroke-width="1" fill="none" fill-rule="evenodd" transform="translate(-14.000000, -23.000000)" stroke-linecap="square">
        <g id="HERO-IMAGE" transform="translate(-217.000000, -3.000000)" stroke="#FFFFFF" stroke-width="2">
            <g id="Icons-/-Mobile-Menu-Icon" transform="translate(232.000000, 27.000000)">
                <path d="M1.5,2 L0.5,2 L0.5,0 L1.5,0 L21.8960781,0 L22.8960781,0 L22.8960781,2 L21.8960781,2 L1.5,2 Z M1.5,9 L0.5,9 L0.5,7 L1.5,7 L21.8960781,7 L22.8960781,7 L22.8960781,9 L21.8960781,9 L1.5,9 Z M1.5,16 L0.5,16 L0.5,14 L1.5,14 L21.8960781,14 L22.8960781,14 L22.8960781,16 L21.8960781,16 L1.5,16 Z"></path>
            </g>
        </g>
    </g>
</svg>