<?xml version="1.0" encoding="UTF-8"?>
<svg width="40px" height="54px" viewBox="0 0 40 54" version="1.1" xmlns="http://www.w3.org/2000/svg" xmlns:xlink="http://www.w3.org/1999/xlink">
    <!-- Generator: Sketch 48.2 (47327) - http://www.bohemiancoding.com/sketch -->
    <title>Group 4</title>
    <desc>Created with Sketch.</desc>
    <defs></defs>
    <g id="Pairing-Instructions-|-Desktop-" stroke="none" stroke-width="1" fill="none" fill-rule="evenodd" transform="translate(-591.000000, -1323.000000)">
        <g id="CONTENT" transform="translate(32.000000, 254.000000)">
            <g id="Bluetooth-FAQ's-CTA" transform="translate(541.000000, 1026.000000)">
                <g id="Group-4" transform="translate(18.000000, 43.000000)">
                    <rect id="Rectangle-3" fill="#FFFFFF" x="4.84848485" y="4.84848485" width="29.6969697" height="44.8484848" rx="7"></rect>
                    <path d="M22.0260984,13.3067179 L26.4566355,17.7422905 L22.0260984,22.1778631 L22.0260984,13.3067179 L22.0260984,13.3067179 Z M22.0260984,40.6171722 L26.4566355,36.1815996 L22.0260984,31.7460269 L22.0260984,40.6171722 L22.0260984,40.6171722 Z M17.2790945,26.9936277 L7.65849975,17.2987332 L10.4434087,14.510659 L18.1019085,22.1778631 L18.1019085,3.80191939 L32.0264535,17.7422905 L22.8489125,26.9936277 L32.0897469,36.2449649 L18.1652019,50.185336 L18.1652019,31.7460269 L10.4434087,39.413231 L7.65849975,36.6251568 L17.2790945,26.9936277 L17.2790945,26.9936277 Z M19.8741233,53.9238901 C31.6466932,53.9238901 39.7482466,48.3477416 39.7482466,26.9302624 C39.7482466,5.57614844 31.6466932,0 19.8741233,0 C8.10155345,0 0,5.57614844 0,26.9936277 C0,48.3477416 8.10155345,53.9238901 19.8741233,53.9238901 L19.8741233,53.9238901 Z" id="Bug" fill="#0082FC"></path>
                </g>
            </g>
        </g>
    </g>
</svg>