<?xml version="1.0" encoding="UTF-8"?>
<svg width="24px" height="32px" viewBox="0 0 24 32" version="1.1" xmlns="http://www.w3.org/2000/svg" xmlns:xlink="http://www.w3.org/1999/xlink">
    <!-- Generator: Sketch 48.2 (47327) - http://www.bohemiancoding.com/sketch -->
    <title>Shape</title>
    <desc>Created with Sketch.</desc>
    <defs></defs>
    <g id="Your-Documents-List-View-|-Desktop-" stroke="none" stroke-width="1" fill="none" fill-rule="evenodd" transform="translate(-190.000000, -310.000000)">
        <g id="Group-2" transform="translate(132.000000, 257.000000)" fill="#C11E07" fill-rule="nonzero">
            <g id="Row" transform="translate(0.000000, 37.000000)">
                <path d="M73.1738708,25.8823529 C72.5902121,25.8823529 72.1176471,25.4094654 72.1176471,24.8261292 L72.1176471,16 L59.2937696,16 C58.5792404,16 58,16.5784517 58,17.2944776 L58,46.4702283 C58,47.1851485 58.5813699,47.7647059 59.2988538,47.7647059 L80.7011462,47.7647059 C81.4184834,47.7647059 82,47.1814119 82,46.4667058 L82,25.8823529 L73.1738708,25.8823529 L73.1738708,25.8823529 Z M75.616,38.3776091 C75.424,38.4743833 75.136,38.5711575 74.752,38.5711575 C73.984,38.5711575 72.832,38.3776091 71.872,37.8937382 C70.24,38.0872865 68.992,38.2808349 68.032,38.6679317 C67.936,38.6679317 67.936,38.6679317 67.84,38.7647059 C66.688,40.7969639 65.728,41.7647059 64.96,41.7647059 C64.768,41.7647059 64.672,41.7647059 64.576,41.6679317 L64.096,41.3776091 L64.096,41.2808349 C64,41.0872865 64,40.9905123 64,40.7969639 C64.096,40.313093 64.672,39.4421252 65.824,38.7647059 C66.016,38.6679317 66.304,38.4743833 66.688,38.2808349 C66.976,37.7969639 67.264,37.2163188 67.648,36.5388994 C68.128,35.5711575 68.416,34.6034156 68.704,33.7324478 C68.32,32.5711575 68.128,31.8937382 68.512,30.5388994 C68.608,30.1518027 68.896,29.7647059 69.28,29.7647059 L69.472,29.7647059 C69.664,29.7647059 69.856,29.8614801 70.048,29.9582543 C70.72,30.6356736 70.432,32.1840607 70.048,33.4421252 L70.048,33.5388994 C70.432,34.6034156 71.008,35.4743833 71.584,36.0550284 C71.872,36.2485768 72.064,36.4421252 72.448,36.6356736 C72.928,36.6356736 73.312,36.5388994 73.696,36.5388994 C74.848,36.5388994 75.616,36.7324478 75.904,37.2163188 C76,37.4098672 76,37.6034156 76,37.7969639 C75.904,37.8937382 75.808,38.1840607 75.616,38.3776091 L75.616,38.3776091 Z M69.376,34.6034156 C69.184,35.2808349 68.8,36.0550284 68.416,36.9259962 C68.224,37.313093 68.032,37.6034156 67.84,37.9905123 L67.936,37.9905123 L68.032,37.9905123 C69.28,37.5066414 70.432,37.2163188 71.2,37.1195446 C71.008,37.0227704 70.912,36.9259962 70.816,36.829222 C70.336,36.2485768 69.76,35.4743833 69.376,34.6034156 L69.376,34.6034156 Z M75.232,37.6034156 C75.136,37.5066414 74.752,37.2163188 73.408,37.2163188 L73.216,37.2163188 C73.216,37.2163188 73.216,37.2163188 73.216,37.313093 C73.888,37.6034156 74.56,37.7969639 75.04,37.7969639 L75.232,37.7969639 L75.328,37.7969639 C75.328,37.7969639 75.328,37.7969639 75.328,37.7001898 C75.328,37.7001898 75.232,37.7001898 75.232,37.6034156 L75.232,37.6034156 Z M66.4,39.0550284 C66.208,39.1518027 66.016,39.2485768 65.92,39.345351 C65.248,39.9259962 64.768,40.6034156 64.672,40.8937382 C65.248,40.7969639 65.824,40.2163188 66.4,39.0550284 L66.4,39.0550284 Z M69.28,32.3776091 C69.376,31.9905123 69.472,31.7969639 69.472,31.5066414 L69.472,31.313093 C69.568,30.829222 69.568,30.4421252 69.472,30.345351 C69.472,30.345351 69.472,30.345351 69.472,30.2485768 L69.376,30.1518027 C69.376,30.1518027 69.376,30.2485768 69.28,30.2485768 C69.088,30.829222 69.088,31.5066414 69.28,32.3776091 L69.28,32.3776091 Z M82,24.4705882 L74.23704,24.4705882 C73.8462277,24.4705882 73.5294118,24.1539908 73.5294118,23.76296 L73.5294118,16 L82,24.4705882 L82,24.4705882 Z" id="Shape"></path>
            </g>
        </g>
    </g>
</svg>