<?xml version="1.0" encoding="UTF-8"?>
<svg width="24px" height="32px" viewBox="0 0 24 32" version="1.1" xmlns="http://www.w3.org/2000/svg" xmlns:xlink="http://www.w3.org/1999/xlink">
    <!-- Generator: Sketch 48.2 (47327) - http://www.bohemiancoding.com/sketch -->
    <title>Combined Shape</title>
    <desc>Created with Sketch.</desc>
    <defs></defs>
    <g id="Your-Documents-List-View-|-Desktop-" stroke="none" stroke-width="1" fill="none" fill-rule="evenodd" transform="translate(-190.000000, -441.000000)">
        <g id="Group-2" transform="translate(132.000000, 257.000000)" fill="#0F9D58" fill-rule="nonzero">
            <g id="Row-Copy-2" transform="translate(0.000000, 168.000000)">
                <path d="M73.1738708,25.8823529 L82,25.8823529 L82,46.4667058 C82,47.1814119 81.4184834,47.7647059 80.7011462,47.7647059 L59.2988538,47.7647059 C58.5813699,47.7647059 58,47.1851485 58,46.4702283 L58,17.2944776 C58,16.5784517 58.5792404,16 59.2937696,16 L72.1176471,16 L72.1176471,24.8261292 C72.1176471,25.4094654 72.5902121,25.8823529 73.1738708,25.8823529 Z M82,24.4705882 L74.23704,24.4705882 C73.8462277,24.4705882 73.5294118,24.1539908 73.5294118,23.76296 L73.5294118,16 L82,24.4705882 Z M63.099,38 L64.512,38 L65.061,36.803 C65.196,36.497 65.322,36.2 65.466,35.84 L65.502,35.84 C65.655,36.2 65.79,36.497 65.943,36.803 L66.519,38 L67.995,38 L66.375,35.048 L67.896,32.132 L66.483,32.132 L66.015,33.239 C65.898,33.509 65.781,33.815 65.646,34.184 L65.61,34.184 C65.439,33.815 65.313,33.509 65.178,33.239 L64.674,32.132 L63.189,32.132 L64.719,34.985 L63.099,38 Z M69.01425,38 L72.65925,38 L72.65925,36.884 L70.34625,36.884 L70.34625,32.132 L69.01425,32.132 L69.01425,38 Z M73.2645,37.262 C73.8675,37.82 74.6775,38.108 75.4425,38.108 C76.8375,38.108 77.6475,37.262 77.6475,36.29 C77.6475,35.462 77.1975,34.985 76.4865,34.697 L75.7395,34.391 C75.2265,34.184 74.8395,34.058 74.8395,33.698 C74.8395,33.365 75.1365,33.167 75.5865,33.167 C76.0545,33.167 76.4235,33.338 76.8105,33.635 L77.4765,32.798 C76.9725,32.294 76.2615,32.024 75.5865,32.024 C74.3715,32.024 73.4985,32.798 73.4985,33.77 C73.4985,34.625 74.0745,35.129 74.6865,35.372 L75.4425,35.696 C75.9555,35.912 76.2885,36.029 76.2885,36.398 C76.2885,36.749 76.0185,36.965 75.4695,36.965 C74.9835,36.965 74.4435,36.713 74.0295,36.353 L73.2645,37.262 Z" id="Combined-Shape"></path>
            </g>
        </g>
    </g>
</svg>