<?xml version="1.0" encoding="UTF-8"?>
<svg width="24px" height="32px" viewBox="0 0 24 32" version="1.1" xmlns="http://www.w3.org/2000/svg" xmlns:xlink="http://www.w3.org/1999/xlink">
    <!-- Generator: Sketch 48.2 (47327) - http://www.bohemiancoding.com/sketch -->
    <title>Combined Shape</title>
    <desc>Created with Sketch.</desc>
    <defs></defs>
    <g id="Your-Documents-List-View-|-Desktop-" stroke="none" stroke-width="1" fill="none" fill-rule="evenodd" transform="translate(-190.000000, -375.000000)">
        <g id="Group-2" transform="translate(132.000000, 257.000000)" fill="#3E82F7" fill-rule="nonzero">
            <g id="Row-Copy" transform="translate(0.000000, 102.000000)">
                <path d="M73.1738708,25.8823529 L82,25.8823529 L82,46.4667058 C82,47.1814119 81.4184834,47.7647059 80.7011462,47.7647059 L59.2988538,47.7647059 C58.5813699,47.7647059 58,47.1851485 58,46.4702283 L58,17.2944776 C58,16.5784517 58.5792404,16 59.2937696,16 L72.1176471,16 L72.1176471,24.8261292 C72.1176471,25.4094654 72.5902121,25.8823529 73.1738708,25.8823529 Z M82,24.4705882 L74.23704,24.4705882 C73.8462277,24.4705882 73.5294118,24.1539908 73.5294118,23.76296 L73.5294118,16 L82,24.4705882 Z M65.6948242,40.1967773 L66.0756836,40.1967773 L70.3095703,34.3886719 L69.871582,40.1967773 L70.2460938,40.1967773 L75.7114258,32.6938477 C76.0161148,32.2749002 76.2636709,31.9913744 76.4541016,31.8432617 C76.5895189,31.7374669 76.7609039,31.6655275 76.9682617,31.6274414 L77.0253906,31.3925781 L74.7275391,31.3925781 L74.6640625,31.6274414 C74.9348972,31.657064 75.1179194,31.7110185 75.2131348,31.7893066 C75.3083501,31.8675948 75.355957,31.9554032 75.355957,32.0527344 C75.355957,32.1542974 75.3199873,32.2770175 75.2480469,32.4208984 C75.1464839,32.632488 74.8820008,33.0323864 74.4545898,33.6206055 L71.9536133,37.0610352 L72.2836914,32.6938477 C72.3175457,32.2833638 72.4085279,32.0030118 72.5566406,31.8527832 C72.7047533,31.7025546 72.9332667,31.6274414 73.2421875,31.6274414 L73.3120117,31.3925781 L69.8081055,31.3925781 L69.7446289,31.6274414 C70.0027682,31.6401368 70.1879063,31.7014968 70.3000488,31.8115234 C70.4121913,31.92155 70.4682617,32.0802398 70.4682617,32.2875977 C70.4682617,32.3891607 70.4597983,32.524576 70.4428711,32.6938477 L70.3793945,33.5126953 L67.7832031,37.0610352 L68.1196289,32.6938477 C68.1492515,32.2833638 68.234944,32.0030118 68.376709,31.8527832 C68.518474,31.7025546 68.7036121,31.6274414 68.9321289,31.6274414 L69.1035156,31.6274414 L69.1733398,31.3925781 L65.6948242,31.3925781 L65.5996094,31.6274414 C65.8619805,31.6401368 66.0450027,31.699381 66.1486816,31.8051758 C66.2523605,31.9109706 66.3041992,32.076008 66.3041992,32.300293 C66.3041992,32.4399421 66.2957358,32.6176747 66.2788086,32.8334961 L65.6948242,40.1967773 Z" id="Combined-Shape"></path>
            </g>
        </g>
    </g>
</svg>