<svg xmlns="http://www.w3.org/2000/svg" width="43" height="43" viewBox="0 0 43 43">
    <g fill="none" fill-rule="evenodd" transform="translate(0 1)">
        <circle cx="21.451" cy="20.51" r="20.51" stroke="#CECECE"/>
        <path fill="#CECECE" fill-rule="nonzero" d="M16.601 30.1c0 .746.606 1.352 1.352 1.352h8.296c.746 0 1.352-.606 1.352-1.353V13.175h-11V30.1zm5.5-2.665c.68 0 1.234.554 1.234 1.234 0 .68-.554 1.234-1.234 1.234-.68 0-1.234-.554-1.234-1.234 0-.68.554-1.234 1.234-1.234zM26.248 9h-8.295c-.746 0-1.352.667-1.352 1.49V12h11v-1.51c0-.823-.606-1.49-1.353-1.49zm-6.518 1.68a.307.307 0 1 1 .001-.615.307.307 0 0 1 0 .615zm3.738-.082h-2.734a.225.225 0 1 1 0-.45h2.734a.225.225 0 1 1 0 .45z"/>
    </g>
</svg>
