<?xml version="1.0" encoding="UTF-8"?>
<svg width="19px" height="19px" viewBox="0 0 19 19" version="1.1" xmlns="http://www.w3.org/2000/svg" xmlns:xlink="http://www.w3.org/1999/xlink">
    <!-- Generator: Sketch 48.2 (47327) - http://www.bohemiancoding.com/sketch -->
    <title>X Mark</title>
    <desc>Created with Sketch.</desc>
    <defs></defs>
    <g id="Pairing-Instructions-|-Desktop-" stroke="none" stroke-width="1" fill="none" fill-rule="evenodd" transform="translate(-495.000000, -847.000000)">
        <g id="CONTENT" transform="translate(32.000000, 254.000000)">
            <g id="Feature-compatability" transform="translate(170.000000, 398.000000)">
                <g id="not-tested" transform="translate(291.000000, 145.000000)">
                    <g id="X-Mark" transform="translate(2.000000, 50.000000)">
                        <circle id="Oval" fill="#F23F3F" cx="9.5" cy="9.5" r="9.5"></circle>
                        <path d="M10.7056295,9.68980479 L12.91237,11.8965453 C13.1544615,12.1386368 13.1544615,12.5311447 12.91237,12.7732363 C12.6702785,13.0153278 12.2777706,13.0153278 12.0356791,12.7732363 L9.82893856,10.5664957 L7.62219802,12.7732363 C7.38010651,13.0153278 6.98759861,13.0153278 6.74550709,12.7732363 C6.50341558,12.5311447 6.50341558,12.1386368 6.74550709,11.8965453 L8.95224763,9.68980479 L6.74550709,7.48306426 C6.50341558,7.24097274 6.50341558,6.84846484 6.74550709,6.60637332 C6.98759861,6.36428181 7.38010651,6.36428181 7.62219802,6.60637332 L9.82893856,8.81311386 L12.0356791,6.60637332 C12.2777706,6.36428181 12.6702785,6.36428181 12.91237,6.60637332 C13.1544615,6.84846484 13.1544615,7.24097274 12.91237,7.48306426 L10.7056295,9.68980479 Z" id="Combined-Shape" fill="#FFFFFF" fill-rule="nonzero"></path>
                    </g>
                </g>
            </g>
        </g>
    </g>
</svg>