<?xml version="1.0" encoding="UTF-8"?>
<svg width="35px" height="25px" viewBox="0 0 35 25" version="1.1" xmlns="http://www.w3.org/2000/svg" xmlns:xlink="http://www.w3.org/1999/xlink">
    <!-- Generator: Sketch 48.1 (47250) - http://www.bohemiancoding.com/sketch -->
    <title>Icons / Mirror Defroster</title>
    <desc>Created with Sketch.</desc>
    <defs></defs>
    <g id="Flagship-Climate-Off-|-Desktop" stroke="none" stroke-width="1" fill="none" fill-rule="evenodd" transform="translate(-828.000000, -329.000000)">
        <g id="Temperature-Dial" transform="translate(257.000000, 218.000000)" fill="#9BA1A9">
            <g id="Accessory-Defroster" transform="translate(480.000000, 91.000000)">
                <g id="All-items" transform="translate(22.000000, 14.000000)">
                    <g id="Group-6" transform="translate(65.000000, 6.000000)">
                        <g id="Group-8">
                            <g id="Icons-/-Mirror-Defroster" transform="translate(4.000000, 0.000000)">
                                <path d="M27.1651371,15.3546129 L13.8284435,15.8485645 C10.8647339,15.8485645 10.1590887,12.296629 10.1590887,9.16864516 C10.1590887,6.04009677 10.8647339,2.15848387 15.4514274,2.12348387 C20.038121,2.08848387 26.0389274,2.99509677 26.882879,3.21751613 C29.5643306,3.92316129 31.8077177,5.68445161 31.8077177,8.13106452 L31.8223952,9.30977419 C31.8223952,11.261871 32.5986048,14.5078387 27.1651371,15.3546129 L27.1651371,15.3546129 Z M34.4095726,8.06275806 C34.0336048,3.35864516 28.89425,1.52396774 26.5063468,1.10058065 C24.4955403,0.743806452 18.4619919,0.206951613 13.2876371,0.206951613 C6.38191129,0.385903226 7.95578226,7.71953226 2.67868548,8.03735484 L1.69360484,8.03735484 C0.762153226,8.03735484 5.64516129e-05,8.79945161 5.64516129e-05,9.73090323 L5.64516129e-05,16.4367903 C5.64516129e-05,17.3676774 0.762153226,18.1303387 1.69360484,18.1303387 L4.34908871,18.1303387 C4.34908871,18.1303387 23.11925,17.8712258 27.7296532,17.824371 C32.3400565,17.7775161 34.7155403,14.6021129 34.5885242,10.9858226 L34.4095726,8.06275806 Z" id="Fill-2"></path>
                                <path d="M18.038,24.588871 C17.2296129,24.6289516 16.4206613,24.6695968 15.6111452,24.7096774 C17.6738871,19.4924194 12.8055,14.2757258 14.7621129,9.05846774 C15.5705,9.0183871 16.3794516,8.97830645 17.1889677,8.93766129 C15.1262258,14.1549194 19.9946129,19.3716129 18.038,24.588871" id="Fill-4"></path>
                                <polygon id="Fill-6" points="20.8242258 4.88255742 18.8518065 9.19942742 23.1505968 8.93565647"></polygon>
                                <path d="M23.1186452,24.588871 C22.3102581,24.6289516 21.5013065,24.6695968 20.6917903,24.7096774 C22.7545323,19.4924194 17.8861452,14.2757258 19.8427581,9.05846774 C20.6511452,9.0183871 21.4600968,8.97830645 22.2696129,8.93766129 C20.206871,14.1549194 25.0752581,19.3716129 23.1186452,24.588871" id="Fill-8"></path>
                                <polygon id="Fill-10" points="25.904871 4.88255742 23.9324516 9.19942742 28.2312419 8.93565647"></polygon>
                                <path d="M28.1992903,24.588871 C27.3909032,24.6289516 26.5819516,24.6695968 25.7724355,24.7096774 C27.8351774,19.4924194 22.9667903,14.2757258 24.9234032,9.05846774 C25.7317903,9.0183871 26.5407419,8.97830645 27.3502581,8.93766129 C25.2875161,14.1549194 30.1559032,19.3716129 28.1992903,24.588871" id="Fill-12"></path>
                                <polygon id="Fill-1" points="15.7435806 4.88255742 13.7711613 9.19942742 18.0699516 8.93565647"></polygon>
                            </g>
                        </g>
                    </g>
                </g>
            </g>
        </g>
    </g>
</svg>