<?xml version="1.0" encoding="UTF-8"?>
<svg width="29px" height="23px" viewBox="0 0 29 23" version="1.1" xmlns="http://www.w3.org/2000/svg" xmlns:xlink="http://www.w3.org/1999/xlink">
    <!-- Generator: Sketch 47.1 (45422) - http://www.bohemiancoding.com/sketch -->
    <title>error-icon</title>
    <desc>Created with Sketch.</desc>
    <defs></defs>
    <g id="Symbols" stroke="none" stroke-width="1" fill="none" fill-rule="evenodd" opacity="0.6">
        <g id="Components-/-Alerts-/-Global-Error" transform="translate(-20.000000, -17.000000)" fill="#000000">
            <g id="Components-/-Global-Error">
                <g id="Icons-/-Failed-Request" transform="translate(20.000000, 17.000000)">
                    <g>
                        <path d="M12.0833333,0.297505 C7.67988599,0.297505 4.63065095,4.30145589 5.17857143,8.16952881 C2.31852514,8.16952881 0,10.6165645 0,13.3034574 C0,16.5021687 2.45130786,18.7796479 5.17857143,18.7796479 L9.32142857,18.7796479 L11.5654762,18.7796479 L10.2708333,17.48547 C9.6890122,16.9188554 9.49927314,15.9989068 9.80691964,15.250072 C10.1145665,14.5012371 10.9009315,13.9689514 11.7165179,13.9665898 C12.2695044,13.9665898 12.8194024,14.1943309 13.2053571,14.5869395 L14.5,15.8704217 L15.7946429,14.5869395 C16.1653975,14.2093562 16.6874448,13.9819232 17.21875,13.9665898 C18.0451337,13.9429738 18.8585833,14.463845 19.1822917,15.2179849 C19.506,15.972159 19.319269,16.9114626 18.7291667,17.48547 L17.4345238,18.7796479 L19.6785714,18.7796479 L23.1309524,18.7796479 C26.641624,18.7796479 29,16.4966583 29,13.6457193 C29,11.2616598 27.3063175,8.91918506 24.8571429,8.51179071 C24.8571429,4.40464786 21.0595238,2.69333149 18.297619,4.06238595 C17.2619048,2.00880768 15.0342908,0.297505 12.0833333,0.297505 Z M11.7380952,15.3570288 C11.4825497,15.3570288 11.047619,15.577069 11.047619,16.0415526 C11.0548542,16.2224723 11.1181439,16.3997126 11.2526042,16.5228584 L13.5290179,18.7796479 L11.2526042,21.0257416 C11.1163649,21.1541925 11.046825,21.3319633 11.047619,21.5177431 C11.047619,21.8673636 11.3012323,22.2022669 11.7380952,22.2022669 C11.913752,22.2006925 12.0956721,22.1258569 12.2235863,21.9990489 L14.5,19.7422595 L16.7764137,21.9990489 C16.9043279,22.1258569 17.086248,22.2006925 17.2619048,22.2022669 C17.6987677,22.2022669 17.952381,21.8673636 17.952381,21.5177431 C17.953175,21.3319633 17.8836351,21.1541925 17.7473958,21.0257416 L15.4709821,18.7796479 L17.7473958,16.5228584 C17.8818561,16.3997126 17.9451458,16.2224723 17.952381,16.0415526 C17.952381,15.577069 17.5174503,15.3570288 17.2619048,15.3570288 C17.0678116,15.3570288 16.8975198,15.453752 16.7764137,15.5495511 L14.5,17.8063406 L12.2235863,15.5495511 C12.1024802,15.453752 11.9321884,15.3570288 11.7380952,15.3570288 Z" id="Shape" fill-rule="nonzero"></path>
                        <path d="M11.7380952,15.3570288 C11.4825497,15.3570288 11.047619,15.577069 11.047619,16.0415526 C11.0548542,16.2224723 11.1181439,16.3997126 11.2526042,16.5228584 L13.5290179,18.7796479 L11.2526042,21.0257416 C11.1163649,21.1541925 11.046825,21.3319633 11.047619,21.5177431 C11.047619,21.8673636 11.3012323,22.2022669 11.7380952,22.2022669 C11.913752,22.2006925 12.0956721,22.1258569 12.2235863,21.9990489 L14.5,19.7422595 L16.7764137,21.9990489 C16.9043279,22.1258569 17.086248,22.2006925 17.2619048,22.2022669 C17.6987677,22.2022669 17.952381,21.8673636 17.952381,21.5177431 C17.953175,21.3319633 17.8836351,21.1541925 17.7473958,21.0257416 L15.4709821,18.7796479 L17.7473958,16.5228584 C17.8818561,16.3997126 17.9451458,16.2224723 17.952381,16.0415526 C17.952381,15.577069 17.5174503,15.3570288 17.2619048,15.3570288 C17.0678116,15.3570288 16.8975198,15.453752 16.7764137,15.5495511 L14.5,17.8063406 L12.2235863,15.5495511 C12.1024802,15.453752 11.9321884,15.3570288 11.7380952,15.3570288 Z" id="Path"></path>
                    </g>
                </g>
            </g>
        </g>
    </g>
</svg>