<svg id="a0b2454c-92be-474a-a207-e11c725dfc74" data-name="Layer 1" xmlns="http://www.w3.org/2000/svg" width="15.65" height="17.32" viewBox="0 0 15.65 17.32">
  <title>icon_google_play</title>
  <g id="8ed9b74a-92f4-4761-b259-a5fab16da81c" data-name="Google-Play-Icon">
    <path id="a5236b09-1ee2-4e6b-96fa-c203639457fc" data-name="Stroke-3" d="M1.45,1.41a1.27,1.27,0,0,0-.29.89v14a1.27,1.27,0,0,0,.29.89l0,0L9.36,9.41V9.23L1.5,1.36Z" transform="translate(-0.66 -0.66)" style="fill: #444;stroke: #eee"/>
    <path id="81641f2b-39e9-4c6e-b70e-6b37a5232a62" data-name="Stroke-7" d="M12,12,9.36,9.41V9.23L12,6.61l.06,0L15.15,8.4a1,1,0,0,1,0,1.83L12,12Z" transform="translate(-0.66 -0.66)" style="fill: #444;stroke: #eee"/>
    <path id="f5acb6c2-0200-40c1-802e-90197f9eb3f1" data-name="Stroke-11" d="M12,12,9.36,9.32,1.45,17.23a1,1,0,0,0,1.32,0L12,12" transform="translate(-0.66 -0.66)" style="fill: #444;stroke: #eee"/>
    <path id="0613e907-e561-4faf-9460-5df292c8a94f" data-name="Stroke-15" d="M2.77,1.37a1,1,0,0,0-1.32,0L9.36,9.32,12,6.64Z" transform="translate(-0.66 -0.66)" style="fill: #444;stroke: #eee"/>
  </g>
</svg>
