<svg xmlns="http://www.w3.org/2000/svg" xmlns:xlink="http://www.w3.org/1999/xlink" width="22" height="22" viewBox="0 0 22 22">
    <defs>
        <path id="a" d="M30.83 27.782a10.682 10.682 0 0 0 6.17 1.95c5.927 0 10.731-4.805 10.731-10.732S42.927 8.269 37 8.269 26.269 13.073 26.269 19c0 1.827.456 3.548 1.262 5.054l5.122-5.122c-.44-1.944.406-4.05 2.185-5.097a4.687 4.687 0 0 1 4.809.03.223.223 0 0 1-.004.383l-2.433 1.405.01 2.226 1.922 1.122 2.434-1.405c.146-.085.33.02.333.188a4.687 4.687 0 0 1-5.747 4.667l-5.331 5.331z"/>
    </defs>
    <use fill="#C4172C" fill-rule="evenodd" transform="translate(-26 -8)" xlink:href="#a"/>
</svg>
