<?xml version="1.0" encoding="utf-8"?>
<!-- Generator: Adobe Illustrator 22.0.1, SVG Export Plug-In . SVG Version: 6.00 Build 0)  -->
<svg version="1.1" id="Layer_1" xmlns="http://www.w3.org/2000/svg" xmlns:xlink="http://www.w3.org/1999/xlink" x="0px" y="0px"
	 width="22px" height="22.3px" viewBox="0 0 22 22.3" style="enable-background:new 0 0 22 22.3;" xml:space="preserve">
<style type="text/css">
	.st0{fill:#444444;}
</style>
<path class="st0" d="M8.2,12.4L8.2,12.4l-0.3-0.1c-4.8-1.5-7.4-4.4-7.4-7.1c0-2.8,3.2-5.4,6.7-5.1c2.1,0.2,3.1,1,2.5,3.4
	C9.4,4.7,8.8,6,9.2,7.6c0.2-0.1,0.6-0.1,1-0.6c0,0,0,0,0.1-0.1c1.6-4,4.2-6.1,6.7-6.1c2.8,0,5.4,3.2,5.1,6.7c-0.2,2.1-1,3.1-3.4,2.5
	c-1.5-0.4-2.9-1-4.7-0.5l0,0.1c0.1,0.1,0.2,0.1,0.3,0.2c4.7,2,7,5.2,6.8,7.9c-0.3,2.8-3.8,5-7.2,4.4c-2.1-0.4-3-1.4-2.1-3.6
	c0.6-1.5,1.4-2.9,0.9-5.1c0,0.1-0.1,0.3-0.1,0.4c-1.6,4.9-4.5,7.4-7.3,7.4c-2.8,0-5.4-3.3-5-6.8c0.2-2.1,1.1-3.1,3.4-2.4
	C5,12.5,6.3,13.2,8.2,12.4L8.2,12.4z M9.4,8.5C9.4,8.5,9.4,8.4,9.4,8.5C9.4,8.4,9.4,8.4,9.4,8.5L9.4,8.5L9.4,8.5z"/>
</svg>
