<svg xmlns="http://www.w3.org/2000/svg" width="15" height="10" viewBox="0 0 15 10">
    <path fill="#8E8E8E" fill-rule="evenodd" d="M7.344 0c1.646 0 3.13.464 4.453 1.39 1.323.928 2.276 2.13 2.86 3.61-.584 1.48-1.537 2.682-2.86 3.61C10.474 9.535 8.99 10 7.344 10c-1.646 0-3.136-.464-4.469-1.39C1.542 7.681.583 6.48 0 5c.583-1.48 1.542-2.682 2.875-3.61C4.208.465 5.698 0 7.344 0zm0 8.344c.916 0 1.698-.328 2.343-.985A3.244 3.244 0 0 0 10.658 5c0-.917-.324-1.703-.97-2.36a3.167 3.167 0 0 0-2.343-.984c-.917 0-1.703.328-2.36.985C4.328 3.297 4 4.083 4 5s.328 1.703.984 2.36c.657.656 1.443.984 2.36.984zM7.328 3c.552 0 1.026.193 1.422.578.396.386.594.86.594 1.422 0 .563-.198 1.036-.594 1.422-.396.385-.87.578-1.422.578-.552 0-1.02-.193-1.406-.578A1.933 1.933 0 0 1 5.344 5c0-.563.192-1.036.578-1.422A1.914 1.914 0 0 1 7.328 3z"/>
</svg>
