<?xml version="1.0" encoding="UTF-8"?>
<svg width="29px" height="26px" viewBox="0 0 29 26" version="1.1" xmlns="http://www.w3.org/2000/svg" xmlns:xlink="http://www.w3.org/1999/xlink">
    <!-- Generator: Sketch 48.1 (47250) - http://www.bohemiancoding.com/sketch -->
    <title>Icons / Rear Defroster</title>
    <desc>Created with Sketch.</desc>
    <defs></defs>
    <g id="Flagship-Climate-Off-|-Desktop" stroke="none" stroke-width="1" fill="none" fill-rule="evenodd" transform="translate(-770.000000, -330.000000)">
        <g id="Temperature-Dial" transform="translate(257.000000, 218.000000)" fill="#9BA1A9">
            <g id="Accessory-Defroster" transform="translate(480.000000, 91.000000)">
                <g id="All-items" transform="translate(22.000000, 14.000000)">
                    <g id="Group-7" transform="translate(0.000000, 7.000000)">
                        <path d="M37.4983684,17.6798246 L31.9522456,17.6798246 C31.2974561,15.1074737 30.6782807,12.5356316 31.8886491,9.9632807 L32.622807,9.9632807 L30.4818947,5.68145614 L28.3404737,9.9632807 L29.5991754,9.9632807 C28.388807,12.5356316 29.0084912,15.1074737 29.6627719,17.6798246 L26.8645263,17.6798246 C26.2102456,15.1074737 25.5905614,12.5356316 26.8009298,9.9632807 L27.5350877,9.9632807 L25.3941754,5.68145614 L23.2527544,9.9632807 L24.5114561,9.9632807 C23.3010877,12.5356316 23.9207719,15.1074737 24.5750526,17.6798246 L21.776807,17.6798246 C21.1225263,15.1074737 20.5028421,12.5356316 21.7132105,9.9632807 L22.4473684,9.9632807 L20.3059474,5.68145614 L18.1650351,9.9632807 L19.4237368,9.9632807 C18.2133684,12.5356316 18.8330526,15.1074737 19.4873333,17.6798246 L13.0350877,17.6798246 L13.0350877,2.03508772 L37.4983684,2.03508772 L37.4983684,17.6798246 Z M37.4983684,0 L13.0350877,0 C11.9157895,0 11,0.915789474 11,2.03508772 L11,17.6798246 C11,18.7991228 11.9157895,19.7149123 13.0350877,19.7149123 L19.9772807,19.7149123 C20.4168596,21.7779825 20.5745789,23.8415614 19.5219298,25.9051404 L21.8114035,25.9051404 C22.8640526,23.8415614 22.7063333,21.7779825 22.2672632,19.7149123 L25.0655088,19.7149123 C25.5045789,21.7779825 25.6622982,23.8415614 24.6096491,25.9051404 L26.8991228,25.9051404 C27.9517719,23.8415614 27.7940526,21.7779825 27.3549825,19.7149123 L30.1527193,19.7149123 C30.5922982,21.7779825 30.7500175,23.8415614 29.6973684,25.9051404 L31.9868421,25.9051404 C33.0394912,23.8415614 32.8817719,21.7779825 32.442193,19.7149123 L37.4983684,19.7149123 C38.6176667,19.7149123 39.5334561,18.7991228 39.5334561,17.6798246 L39.5334561,2.03508772 C39.5334561,0.915789474 38.6176667,0 37.4983684,0 L37.4983684,0 Z" id="Icons-/-Rear-Defroster"></path>
                    </g>
                </g>
            </g>
        </g>
    </g>
</svg>