<svg id="39ba45a2-7712-485b-94ba-6700baf8371e" data-name="Layer 1" xmlns="http://www.w3.org/2000/svg" width="10" height="18.35" viewBox="0 0 10 18.35">
  <title>icon_battery</title>
  <path id="9c33a6a2-0099-4a69-9629-ba2fcfd5e166" data-name="Shape" d="M8.9,2H7.5V1.1A1.1,1.1,0,0,0,6.4,0H3.6A1.1,1.1,0,0,0,2.5,1.1V2H1.1A1.1,1.1,0,0,0,0,3.12V17.25a1.1,1.1,0,0,0,1.1,1.1H8.9a1.1,1.1,0,0,0,1.1-1.1V3.12A1.1,1.1,0,0,0,8.9,2ZM9,17.25a.1.1,0,0,1-.1.1H1.1a.1.1,0,0,1-.1-.1V3.12A.1.1,0,0,1,1.1,3H8.9a.1.1,0,0,1,.1.1Z" style="fill: #8ec439"/>
</svg>
