<?xml version="1.0" encoding="UTF-8"?>
<svg width="13px" height="15px" viewBox="0 0 13 15" version="1.1" xmlns="http://www.w3.org/2000/svg" xmlns:xlink="http://www.w3.org/1999/xlink">
    <!-- Generator: Sketch 48.1 (47250) - http://www.bohemiancoding.com/sketch -->
    <title>Combined Shape</title>
    <desc>Created with Sketch.</desc>
    <defs></defs>
    <g id="Maintenance-Complete-|-Desktop-" stroke="none" stroke-width="1" fill="none" fill-rule="evenodd" transform="translate(-733.000000, -432.000000)">
        <g id="Maintenance-Milestones" transform="translate(162.000000, 215.000000)" fill="#8D9094">
            <g id="Form-Fields" transform="translate(556.000000, 204.000000)">
                <g id="Date-Completed" transform="translate(1.000000, 0.000000)">
                    <path d="M24.7058824,14.9684096 L24.9972399,14.9684096 C26.1033337,14.9684096 27,15.8623728 27,16.9759582 L27,25.1182684 C27,26.2270069 26.1064574,27.125817 24.9972399,27.125817 L16.0027601,27.125817 C14.8966663,27.125817 14,26.2318538 14,25.1182684 L14,16.9759582 C14,15.8672197 14.8935426,14.9684096 16.0027601,14.9684096 L16.2941176,14.9684096 L16.2941176,15.2903847 C16.2941176,16.139959 16.9788586,16.8235294 17.8235294,16.8235294 C18.6740891,16.8235294 19.3529412,16.1371172 19.3529412,15.2903847 L19.3529412,14.9684096 L21.6470588,14.9684096 L21.6470588,15.2957135 C21.6470588,16.1465195 22.3317998,16.8235294 23.1764706,16.8235294 C24.0270303,16.8235294 24.7058824,16.1395029 24.7058824,15.2957135 L24.7058824,14.9684096 Z M15.5294118,20.1172068 L15.5294118,20.4122049 C15.5294118,20.9694357 15.9769299,21.4117647 16.5289715,21.4117647 L16.8239696,21.4117647 C17.3812005,21.4117647 17.8235294,20.9642466 17.8235294,20.4122049 L17.8235294,20.1172068 C17.8235294,19.559976 17.3760113,19.1176471 16.8239696,19.1176471 L16.5289715,19.1176471 C15.9717407,19.1176471 15.5294118,19.5651652 15.5294118,20.1172068 Z M19.3529412,20.1172068 L19.3529412,20.4122049 C19.3529412,20.9694357 19.8004593,21.4117647 20.352501,21.4117647 L20.647499,21.4117647 C21.2047299,21.4117647 21.6470588,20.9642466 21.6470588,20.4122049 L21.6470588,20.1172068 C21.6470588,19.559976 21.1995407,19.1176471 20.647499,19.1176471 L20.352501,19.1176471 C19.7952701,19.1176471 19.3529412,19.5651652 19.3529412,20.1172068 Z M23.1764706,20.1172068 L23.1764706,20.4122049 C23.1764706,20.9694357 23.6239887,21.4117647 24.1760304,21.4117647 L24.4710285,21.4117647 C25.0282593,21.4117647 25.4705882,20.9642466 25.4705882,20.4122049 L25.4705882,20.1172068 C25.4705882,19.559976 25.0230701,19.1176471 24.4710285,19.1176471 L24.1760304,19.1176471 C23.6187995,19.1176471 23.1764706,19.5651652 23.1764706,20.1172068 Z M15.5294118,23.9407362 L15.5294118,24.2357343 C15.5294118,24.7929652 15.9769299,25.2352941 16.5289715,25.2352941 L16.8239696,25.2352941 C17.3812005,25.2352941 17.8235294,24.787776 17.8235294,24.2357343 L17.8235294,23.9407362 C17.8235294,23.3835054 17.3760113,22.9411765 16.8239696,22.9411765 L16.5289715,22.9411765 C15.9717407,22.9411765 15.5294118,23.3886946 15.5294118,23.9407362 Z M19.3529412,23.9407362 L19.3529412,24.2357343 C19.3529412,24.7929652 19.8004593,25.2352941 20.352501,25.2352941 L20.647499,25.2352941 C21.2047299,25.2352941 21.6470588,24.787776 21.6470588,24.2357343 L21.6470588,23.9407362 C21.6470588,23.3835054 21.1995407,22.9411765 20.647499,22.9411765 L20.352501,22.9411765 C19.7952701,22.9411765 19.3529412,23.3886946 19.3529412,23.9407362 Z M23.1764706,23.9407362 L23.1764706,24.2357343 C23.1764706,24.7929652 23.6239887,25.2352941 24.1760304,25.2352941 L24.4710285,25.2352941 C25.0282593,25.2352941 25.4705882,24.787776 25.4705882,24.2357343 L25.4705882,23.9407362 C25.4705882,23.3835054 25.0230701,22.9411765 24.4710285,22.9411765 L24.1760304,22.9411765 C23.6187995,22.9411765 23.1764706,23.3886946 23.1764706,23.9407362 Z M17.0588235,13.7718703 C17.0588235,13.3455781 17.3982496,13 17.8235294,13 C18.2458648,13 18.5882353,13.350886 18.5882353,13.7718703 L18.5882353,15.2869532 C18.5882353,15.7132454 18.2488093,16.0588235 17.8235294,16.0588235 C17.401194,16.0588235 17.0588235,15.7079376 17.0588235,15.2869532 L17.0588235,13.7718703 Z M22.4117647,13.7718703 C22.4117647,13.3455781 22.7511907,13 23.1764706,13 C23.598806,13 23.9411765,13.350886 23.9411765,13.7718703 L23.9411765,15.2869532 C23.9411765,15.7132454 23.6017504,16.0588235 23.1764706,16.0588235 C22.7541352,16.0588235 22.4117647,15.7079376 22.4117647,15.2869532 L22.4117647,13.7718703 Z" id="Combined-Shape"></path>
                </g>
            </g>
        </g>
    </g>
</svg>