<svg xmlns="http://www.w3.org/2000/svg" width="76" height="79" viewBox="0 0 76 79">
    <path fill="#FFE200" fill-rule="nonzero" d="M38.058 14.587c13.227.018 23.944 10.988 23.955 24.523-.006 13.537-10.733 24.506-23.962 24.502-13.23-.004-23.95-10.98-23.949-24.516.002-13.537 10.727-24.51 23.956-24.51zm0-4.775c-1.458 0-2.64-1.21-2.64-2.701V2.887c0-1.492 1.182-2.701 2.64-2.701 1.457 0 2.64 1.21 2.64 2.7v4.225c0 1.492-1.183 2.7-2.64 2.7zm22.92 8.448a2.64 2.64 0 0 1-2.409-1.66 2.748 2.748 0 0 1 .54-2.92l2.925-2.993a2.602 2.602 0 0 1 2.553-.7c.912.25 1.625.979 1.869 1.912a2.747 2.747 0 0 1-.684 2.612l-2.925 2.993c-.5.495-1.172.767-1.868.756zm-46.274-.756l-2.925-2.993a2.749 2.749 0 0 1 0-3.824 2.6 2.6 0 0 1 3.738 0l2.924 2.992a2.749 2.749 0 0 1 0 3.825 2.6 2.6 0 0 1-3.737 0zm58.564 18.884c1.458.003 2.637 1.214 2.634 2.706-.003 1.492-1.187 2.698-2.645 2.696H69.13c-1.457 0-2.64-1.21-2.64-2.701 0-1.492 1.183-2.701 2.64-2.701h4.139zm-66.282 0c1.458.003 2.637 1.214 2.634 2.706-.002 1.492-1.187 2.698-2.644 2.696H2.848c-1.458 0-2.64-1.21-2.64-2.701 0-1.492 1.182-2.701 2.64-2.701h4.138zm31.072 32.02c1.457 0 2.64 1.21 2.64 2.702v4.224c0 1.491-1.183 2.7-2.64 2.7-1.458 0-2.64-1.209-2.64-2.7V71.11c0-1.492 1.182-2.701 2.64-2.701zm24.79-9.322l2.924 2.96a2.749 2.749 0 0 1 0 3.824 2.6 2.6 0 0 1-3.738 0l-2.924-2.992a2.747 2.747 0 0 1 .153-3.667 2.596 2.596 0 0 1 3.584-.125zm-48.144 0a2.604 2.604 0 0 1 2.618-.88 2.67 2.67 0 0 1 1.957 1.985 2.739 2.739 0 0 1-.838 2.687l-2.924 3.024c-.668.684-1.64.95-2.553.7a2.674 2.674 0 0 1-1.869-1.912 2.747 2.747 0 0 1 .684-2.612l2.925-2.992z"/>
</svg>
