<svg xmlns="http://www.w3.org/2000/svg" width="16" height="16" viewBox="0 0 16 16">
    <path fill="#9BA1A9" fill-rule="nonzero" d="M15.972 1.292a.39.39 0 0 0-.035-.175.21.21 0 0 0-.14-.14.237.237 0 0 0-.174-.07H13.18V.315c0-.07-.035-.14-.105-.21A.335.335 0 0 0 12.83 0H3.124a.335.335 0 0 0-.244.105.375.375 0 0 0-.07.21v.593H.33a.237.237 0 0 0-.175.07c-.046.023-.081.07-.104.14a.39.39 0 0 0-.035.174S-.11 5.37.33 6.634c.292.84 1.42 2.025 2.653 2.374.489 1.164 1.804 2.083 3.946 2.758l.07 2.27-2.933.698c-.07 0-.128.035-.175.105a.339.339 0 0 0-.07.174v.908h8.345v-.908a.339.339 0 0 0-.07-.174c-.047-.07-.105-.105-.175-.105l-3.002-.698.07-2.27c2.01-.438 3.336-1.357 3.98-2.758 1.257-.35 2.36-1.533 2.653-2.374.44-1.264.35-5.342.35-5.342zM2.81 7.367c-.536-.186-1.03-.485-1.152-1.013-.17-.736-.1-2.658-.058-3.518a.448.448 0 0 1 .448-.427h.762v4.958zM14.33 6.354c-.134.536-.64.827-1.152 1.013V2.409h.764c.239 0 .436.186.448.424.047.86.124 2.788-.06 3.521z"/>
</svg>
