<?xml version="1.0" encoding="UTF-8"?>
<svg width="20px" height="20px" viewBox="0 0 20 20" version="1.1" xmlns="http://www.w3.org/2000/svg" xmlns:xlink="http://www.w3.org/1999/xlink">
    <!-- Generator: Sketch 47.1 (45422) - http://www.bohemiancoding.com/sketch -->
    <title>Combined Shape</title>
    <desc>Created with Sketch.</desc>
    <defs></defs>
    <g id="Battery*" stroke="none" stroke-width="1" fill="none" fill-rule="evenodd">
        <g id="Hybrid-Battery-is-Plugged-In-|-Desktop" transform="translate(-705.000000, -317.000000)" fill="#D8D8D8">
            <g id="Main-Battery-Contnet" transform="translate(239.000000, 257.000000)">
                <g id="Charge-Time-Estimates" transform="translate(465.000000, 0.000000)">
                    <g id="Group-7" transform="translate(1.000000, 55.000000)">
                        <path d="M11.0144928,14.6646799 L13.331785,16.9819722 C13.7854219,17.4356091 13.7892718,18.1672499 13.3333333,18.6231884 C12.8805515,19.0759702 12.1489682,19.0784912 11.6921171,18.6216401 L9.2271794,16.1567024 C9.19371549,16.1232385 9.1626992,16.0882617 9.13413453,16.0519944 C8.86695354,15.8387262 8.69565217,15.5095348 8.69565217,15.140092 L8.69565217,10.2222268 C8.69565217,9.57922609 9.21027805,9.05797101 9.85507246,9.05797101 C10.4954026,9.05797101 11.0144928,9.57911256 11.0144928,10.2222268 L11.0144928,14.6646799 Z M10,25 C4.4771525,25 0,20.5228475 0,15 C0,9.4771525 4.4771525,5 10,5 C15.5228475,5 20,9.4771525 20,15 C20,20.5228475 15.5228475,25 10,25 Z M10,22.6811594 C14.2421872,22.6811594 17.6811594,19.2421872 17.6811594,15 C17.6811594,10.7578128 14.2421872,7.31884058 10,7.31884058 C5.75781279,7.31884058 2.31884058,10.7578128 2.31884058,15 C2.31884058,19.2421872 5.75781279,22.6811594 10,22.6811594 Z" id="Combined-Shape"></path>
                    </g>
                </g>
            </g>
        </g>
    </g>
</svg>