<?xml version="1.0" encoding="UTF-8"?>
<svg width="35px" height="18px" viewBox="0 0 35 18" version="1.1" xmlns="http://www.w3.org/2000/svg" xmlns:xlink="http://www.w3.org/1999/xlink">
    <!-- Generator: Sketch 47.1 (45422) - http://www.bohemiancoding.com/sketch -->
    <title>Icons / Horn</title>
    <desc>Created with Sketch.</desc>
    <defs>
        <polygon id="path-1" points="27.4509804 4.76 36.1437908 0 36.1437908 20.1733333 27.6797386 15.64"></polygon>
    </defs>
    <g id="Security*" stroke="none" stroke-width="1" fill="none" fill-rule="evenodd">
        <g id="Remote-Unlocked-|-Desktop" transform="translate(-732.000000, -661.000000)">
            <g id="CTA-Area" transform="translate(162.000000, 162.000000)">
                <g id="CTA-Buttons" transform="translate(273.000000, 488.000000)">
                    <g id="Panic-Button" transform="translate(282.000000, 0.000000)">
                        <g id="Icons-/-Horn" transform="translate(15.000000, 11.000000)">
                            <g transform="translate(0.000000, -1.133333)">
                                <path d="M20.0225201,12.9398692 C20.413134,13.5245072 20.6200545,14.2378627 20.5673387,14.9917345 C20.4407184,16.8024887 18.8788512,18.1683563 17.0583656,18.0410555 L6.50270973,17.3029322 C4.69137766,17.1762715 3.32590656,15.6020019 3.45226918,13.7949322 C3.52077687,12.8152266 4.00942917,11.9657542 4.73186826,11.4125447 C3.82904673,11.3509466 3.21744332,11.3145955 3.06031071,11.3133264 C2.22613366,11.3065889 1.71456929,11.752161 0.985290926,11.7630766 C0.949411116,11.7636136 0.916551215,11.771527 0.88650092,11.7860896 C0.600126477,11.7744853 0.359006071,11.588996 0.267808495,11.3333333 L0.22875817,11.3333333 C0.22875817,11.3333333 2.42805649e-17,10.8664055 0,10.4173698 C0,9.96833404 0.22875817,9.52 0.22875817,9.52 L0.267808495,9.52 C0.361115076,9.25842501 0.611358798,9.0703064 0.906440034,9.06671887 C0.930938415,9.07584045 0.957188362,9.08078624 0.985290926,9.08120687 C1.71456929,9.0921224 2.22613366,9.5376945 3.06031071,9.53095703 C3.89448777,9.52421956 17.5369163,8.52877604 19.5625096,8.01606445 C19.5619316,8.01243826 19.5613517,8.00880741 19.5607698,8.00517195 C21.960121,7.54661636 23.8620939,6.11268834 24.4933937,4.28524231 C24.5544222,4.03733719 24.7800344,3.85333333 25.0490196,3.85333333 C25.3521335,3.85333333 25.6001698,4.08699193 25.6196791,4.38244524 L25.620915,4.38347656 L25.620915,10.4221417 L25.620915,16.2341402 L25.6202477,16.2342849 C25.6057113,16.5344188 25.3555237,16.7733333 25.0490196,16.7733333 C24.7874648,16.7733333 24.5669198,16.5993548 24.4988254,16.3618198 C23.8260049,14.7465526 22.1341648,13.4635982 20.0225201,12.9398692 Z M4.59355243,13.8667403 C4.50122264,15.1871178 5.48856808,16.3151377 6.79742239,16.4066617 L17.1189028,17.1284099 C18.4297145,17.2200708 19.563123,16.2311621 19.6548136,14.9199263 C19.7471434,13.5995488 18.7597979,12.471529 17.4509436,12.380005 L7.12946321,11.6582568 C5.81865148,11.5665959 4.68524297,12.5555045 4.59355243,13.8667403 Z" id="Combined-Shape" fill="#FFFFFF" fill-rule="nonzero"></path>
                                <mask id="mask-2" fill="white">
                                    <use xlink:href="#path-1"></use>
                                </mask>
                                <g id="Rectangle-19"></g>
                                <path d="M24.4385007,17.7979814 C22.0812611,17.1784891 20.3594771,13.9872137 20.3594771,10.2 C20.3594771,6.41278628 22.0812611,3.22151094 24.4385007,2.6020186 C25.5228359,0.715376971 27.0206094,-0.453333333 28.7091503,-0.453333333 C32.1321848,-0.453333333 34.7712418,4.34959654 34.7712418,10.2 C34.7712418,16.0504035 32.1321848,20.8533333 28.7091503,20.8533333 C27.0206094,20.8533333 25.5228359,19.684623 24.4385007,17.7979814 Z M26.2319129,17.7656167 C26.6204278,18.0046469 27.0306092,18.1333333 27.4509804,18.1333333 C29.6491121,18.1333333 31.5686275,14.6146971 31.5686275,10.2 C31.5686275,5.7853029 29.6491121,2.26666667 27.4509804,2.26666667 C27.0306092,2.26666667 26.6204278,2.39535314 26.2319129,2.63438328 C28.5300156,3.32579644 30.1960784,6.47457204 30.1960784,10.2 C30.1960784,13.925428 28.5300156,17.0742036 26.2319129,17.7656167 Z M26.3444226,18.8330058 C27.0591336,19.5448797 27.866135,19.9466667 28.7091503,19.9466667 C31.4767586,19.9466667 33.8562092,15.6162054 33.8562092,10.2 C33.8562092,4.78379457 31.4767586,0.453333333 28.7091503,0.453333333 C27.866135,0.453333333 27.0591336,0.855120278 26.3444226,1.56699417 C26.6987278,1.43150248 27.0687786,1.36 27.4509804,1.36 C30.3064347,1.36 32.4836601,5.3510409 32.4836601,10.2 C32.4836601,15.0489591 30.3064347,19.04 27.4509804,19.04 C27.0687786,19.04 26.6987278,18.9684975 26.3444226,18.8330058 Z M25.2777778,17 C27.4285584,17 29.2810458,13.9878149 29.2810458,10.2 C29.2810458,6.41218511 27.4285584,3.4 25.2777778,3.4 C23.1269971,3.4 21.2745098,6.41218511 21.2745098,10.2 C21.2745098,13.9878149 23.1269971,17 25.2777778,17 Z" id="Combined-Shape" fill="#FFFFFF" fill-rule="nonzero" mask="url(#mask-2)"></path>
                            </g>
                        </g>
                    </g>
                </g>
            </g>
        </g>
    </g>
</svg>