<?xml version="1.0" encoding="UTF-8"?>
<svg width="15px" height="15px" viewBox="0 0 15 15" version="1.1" xmlns="http://www.w3.org/2000/svg" xmlns:xlink="http://www.w3.org/1999/xlink">
    <!-- Generator: Sketch 48.1 (47250) - http://www.bohemiancoding.com/sketch -->
    <title>Location Icon</title>
    <desc>Created with Sketch.</desc>
    <defs></defs>
    <g id="Maintenance-Complete-|-Desktop-" stroke="none" stroke-width="1" fill="none" fill-rule="evenodd" transform="translate(-731.000000, -482.000000)">
        <g id="Maintenance-Milestones" transform="translate(162.000000, 215.000000)" fill="#8D9094" fill-rule="nonzero">
            <g id="Form-Fields" transform="translate(556.000000, 204.000000)">
                <g id="Service-Location" transform="translate(1.000000, 50.000000)">
                    <path d="M19.6210938,13.78125 C15.8496039,13.78125 12.78125,16.8496039 12.78125,20.6210938 C12.78125,24.3924468 15.8496039,27.4609375 19.6210938,27.4609375 C23.3925836,27.4609375 26.4609375,24.3924468 26.4609375,20.6210938 C26.4609375,16.8496039 23.3925836,13.78125 19.6210938,13.78125 Z M20.1726588,26.3305849 L20.1726588,24.4823223 L19.0695288,24.4823223 L19.0695288,26.3307217 C16.3457662,26.0695765 14.172611,23.8964213 13.9116026,21.1726588 L15.760002,21.1726588 L15.760002,20.0695288 L13.9116026,20.0695288 C14.1727478,17.3457662 16.3457662,15.1727478 19.0695288,14.9116026 L19.0695288,16.7598652 L20.1726588,16.7598652 L20.1726588,14.9116026 C22.8964213,15.172611 25.0695765,17.3456294 25.3305849,20.0695288 L23.4823223,20.0695288 L23.4823223,21.1726588 L25.3307217,21.1726588 C25.0695765,23.8964213 22.8964213,26.0695765 20.1726588,26.3305849 Z" id="Location-Icon"></path>
                </g>
            </g>
        </g>
    </g>
</svg>