<?xml version="1.0" encoding="UTF-8"?>
<svg width="10px" height="10px" viewBox="0 0 10 10" version="1.1" xmlns="http://www.w3.org/2000/svg" xmlns:xlink="http://www.w3.org/1999/xlink">
    <!-- Generator: Sketch 46.2 (44496) - http://www.bohemiancoding.com/sketch -->
    <title>Combined Shape</title>
    <desc>Created with Sketch.</desc>
    <defs></defs>
    <g id="Pre-Login" stroke="none" stroke-width="1" fill="none" fill-rule="evenodd">
        <g id="Create-Account-3-|-Tablet" transform="translate(-270.000000, -538.000000)" fill-rule="nonzero" fill="#F23F3F">
            <g id="Tooltip" transform="translate(253.000000, 501.000000)">
                <path d="M22.8129942,42.0355339 L25.9242641,38.9242641 C26.1585786,38.6899495 26.1585786,38.3100505 25.9242641,38.0757359 C25.6899495,37.8414214 25.3100505,37.8414214 25.0757359,38.0757359 L21.9644661,41.1870058 L18.8531963,38.0757359 C18.6188817,37.8414214 18.2389827,37.8414214 18.0046681,38.0757359 C17.7703535,38.3100505 17.7703535,38.6899495 18.0046681,38.9242641 L21.115938,42.0355339 L18.0046681,45.1468037 C17.7703535,45.3811183 17.7703535,45.7610173 18.0046681,45.9953319 C18.2389827,46.2296465 18.6188817,46.2296465 18.8531963,45.9953319 L21.9644661,42.884062 L25.0757359,45.9953319 C25.3100505,46.2296465 25.6899495,46.2296465 25.9242641,45.9953319 C26.1585786,45.7610173 26.1585786,45.3811183 25.9242641,45.1468037 L22.8129942,42.0355339 Z" id="Combined-Shape"></path>
            </g>
        </g>
    </g>
</svg>