<?xml version="1.0" encoding="utf-8"?>
<!-- Generator: Adobe Illustrator 22.0.1, SVG Export Plug-In . SVG Version: 6.00 Build 0)  -->
<svg version="1.1" id="Layer_1" xmlns="http://www.w3.org/2000/svg" xmlns:xlink="http://www.w3.org/1999/xlink" x="0px" y="0px"
	 width="33px" height="25px" viewBox="0 0 33 25" style="enable-background:new 0 0 33 25;" xml:space="preserve">
<style type="text/css">
	.st0{fill:#8EC439;}
</style>
<title>Combined Shape</title>
<desc>Created with Sketch.</desc>
<g id="Flagship-Climate-Off-_x7C_-Desktop" transform="translate(-284.000000, -329.000000)">
	<g id="Temperature-Dial" transform="translate(257.000000, 218.000000)">
		<g id="Front-Defroster-Control" transform="translate(0.000000, 90.000000)">
			<g id="Page-1" transform="translate(17.000000, 21.000000)">
				<g id="Group-5">
					<path id="Combined-Shape" class="st0" d="M25.3,17.2c0,0.3,0.1,0.5,0.1,0.7c-1,0-1.9,0.1-2.9,0.3c0-0.6-0.1-1.2-0.2-1.8
						l-0.1-0.3c0.9-0.2,1.8-0.3,2.8-0.3L25.3,17.2z M26.4,0c5.8,0,11.7,2.2,16.4,6.7c-1.5,4.6-3.1,9.3-4.8,14.4
						c-0.7-0.4-1.5-0.8-2.2-1.1c0.1-0.7,0.1-1.5,0-2.3c0.4,0.2,0.8,0.3,1.2,0.5c1.3-3.9,2.5-7.4,3.6-10.7c-4-3.4-9-5.3-14.1-5.3
						c-5.1,0-10.1,1.9-14.2,5.3c1.1,3.6,2.2,7.3,3.3,10.8c1-0.5,1.9-0.9,2.9-1.2l0,0.1c0.1,0.8,0.2,1.5,0.2,2
						c-1.5,0.5-2.9,1.2-4.3,2c-1.6-5-3.1-9.9-4.5-14.5C14.7,2.2,20.6,0,26.4,0z M31.8,16.8c0.1,0.7,0.2,1.3,0.2,1.8
						c-0.9-0.2-1.7-0.4-2.6-0.5c0-0.5-0.1-1.1-0.2-1.7l-0.1-0.5c0.9,0.1,1.8,0.2,2.7,0.4L31.8,16.8z M20.7,12.6l0.8,4
						c0.3,1.7,1,6.7-3.5,8c-0.1,0-0.2,0-0.3,0c-0.4,0-0.8-0.3-0.9-0.8c-0.1-0.6,0.2-1.2,0.7-1.3c2-0.6,2.6-2.2,2.1-5.6l-0.7-3.9
						l-1.7,0.5l1.4-6.1l3.9,4.7L20.7,12.6C20.6,12.6,20.7,12.6,20.7,12.6z M27.5,12.6l0.8,4c0.3,1.7,1,6.7-3.5,8c-0.1,0-0.2,0-0.3,0
						c-0.4,0-0.8-0.3-0.9-0.8c-0.1-0.6,0.2-1.2,0.7-1.3c2-0.6,2.6-2.2,2.1-5.6l-0.7-3.9l-1.7,0.5l1.4-6.1l3.9,4.7L27.5,12.6
						C27.4,12.6,27.4,12.6,27.5,12.6z M31.7,7.1l3.9,4.7l-1.7,0.5c0,0,0,0,0,0.4l0.8,4c0.3,1.3,1,6.3-3.5,7.7c-0.1,0-0.2,0-0.3,0
						c-0.4,0-0.8-0.3-0.9-0.8c-0.1-0.6,0.2-1.2,0.7-1.3c2-0.6,2.6-2.2,2.1-5.6L32,12.7l-1.7,0.5L31.7,7.1z"/>
				</g>
			</g>
		</g>
	</g>
</g>
</svg>
