<svg xmlns="http://www.w3.org/2000/svg" width="21" height="31" viewBox="0 0 21 31">
    <g fill="none" fill-rule="evenodd">
        <path fill="#8EC439" d="M10.5 30.545c1.77 0 3.167-2.833 5.196-6.487 2.4-4.323 5.304-9.795 5.304-13.08C21 4.914 16.299 0 10.5 0S0 4.915 0 10.977c0 3.287 2.665 8.76 5.067 13.084 2.028 3.652 3.663 6.484 5.433 6.484z"/>
        <path fill="#FFF" d="M12.048 12.093l.003-.01 1.468-5.338c.246-.895.035-1.503-.47-1.368l.914-.244c-.194.052-1.327.873-1.836 1.65l-4.06 6.182c-.517.787-.5 1.419.02 1.435l-.942-.03c.198.007 1.634.028 2.523.026l-.003.01-1.478 5.373c-.24.872-.025 1.468.48 1.333l-.914.244c.212-.057 1.315-.856 1.81-1.61l4.112-6.262c.49-.748.474-1.379-.047-1.395l.943.03c-.216-.008-1.634-.028-2.523-.026z"/>
    </g>
</svg>
