<?xml version="1.0" encoding="UTF-8"?>
<svg width="29px" height="15px" viewBox="0 0 29 15" version="1.1" xmlns="http://www.w3.org/2000/svg" xmlns:xlink="http://www.w3.org/1999/xlink">
    <!-- Generator: Sketch 48.1 (47250) - http://www.bohemiancoding.com/sketch -->
    <title>notifications_panic</title>
    <desc>Created with Sketch.</desc>
    <defs>
        <polygon id="path-1" points="22.7848101 3.99035109 30 0 30 16.9114879 22.9746835 13.1111536"></polygon>
    </defs>
    <g id="Notifications-Dropdown-|-Desktop" stroke="none" stroke-width="1" fill="none" fill-rule="evenodd" transform="translate(-550.000000, -911.000000)">
        <g id="global-notifications">
            <g id="Icons-/-Notifications" transform="translate(537.000000, 0.000000)">
                <g id="Notifications-Dropdown" transform="translate(0.000000, 71.000000)">
                    <g id="Cell-Copy-10" transform="translate(0.000000, 810.000000)">
                        <g id="Group-7" transform="translate(13.000000, 12.000000)">
                            <g id="notifications_panic" transform="translate(0.000000, 17.000000)">
                                <path d="M16.620067,10.8478634 C16.9439869,11.3369287 17.1153031,11.9329431 17.071263,12.5627454 C16.9651161,14.080717 15.6432448,15.224859 14.1400426,15.1197449 L5.41227429,14.5094399 C3.89955286,14.4036601 2.75951492,13.0842607 2.86544584,11.5693779 C2.92303697,10.7457865 3.33850315,10.03224 3.94663672,9.56855673 C3.18680787,9.51611979 2.67164124,9.48513686 2.54011323,9.48406393 C1.84773119,9.47841585 1.42312352,9.85194297 0.817809286,9.86109356 C0.788028394,9.86154376 0.760754083,9.86817764 0.735811794,9.88038564 C0.498115828,9.87065763 0.297981531,9.71516021 0.222285894,9.50083592 L0.189873418,9.50083592 C0.189873418,9.50083592 2.01533079e-17,9.10940613 0,8.73297539 C0,8.35654466 0.189873418,7.98070217 0.189873418,7.98070217 L0.222285894,7.98070217 C0.299732043,7.76142149 0.507438858,7.60371996 0.75236162,7.6007125 C0.772695718,7.6083592 0.794483649,7.6125053 0.817809286,7.61285792 C1.42312352,7.6220085 1.84773119,7.99553563 2.54011323,7.98988755 C3.23249527,7.98423947 14.5559576,7.14975016 16.2372367,6.71993939 C16.236757,6.71689952 16.2362757,6.71385574 16.2357927,6.71080811 C18.2272976,6.32639681 19.8059694,5.12432197 20.3299597,3.59235742 C20.3806144,3.38453631 20.5678767,3.23028421 20.7911392,3.23028421 C21.0427292,3.23028421 21.2486039,3.42616233 21.2647969,3.67384352 L21.2658228,3.67470808 L21.2658228,8.89007612 L21.2658228,13.6092267 L21.2652689,13.609348 C21.2532034,13.8609529 21.0455431,14.0612372 20.7911392,14.0612372 C20.574044,14.0612372 20.3909877,13.9153894 20.3344681,13.7162616 C19.7761225,12.3624295 18.3722982,11.2870707 16.620067,10.8478634 Z M3.81273158,11.6289799 C3.73533069,12.7358643 4.56040722,13.68131 5.65439466,13.7578091 L14.1938348,14.3549449 C15.2756246,14.430591 16.2369857,13.6023642 16.3138507,12.5031433 C16.3912516,11.3962589 15.5661751,10.4508132 14.4721876,10.3743141 L5.93274748,9.77717831 C4.85095765,9.7015322 3.88959659,10.5297591 3.81273158,11.6289799 Z" id="Combined-Shape" fill="#2F2F2F" fill-rule="nonzero"></path>
                                <mask id="mask-2" fill="white">
                                    <use xlink:href="#path-1"></use>
                                </mask>
                                <g id="Rectangle-19"></g>
                                <path d="M20.2843975,14.9202089 C18.327846,14.4008829 16.8987342,11.7256079 16.8987342,8.55075233 C16.8987342,5.37589679 18.327846,2.70062178 20.2843975,2.18129575 C21.1844153,0.59970699 22.4275944,-0.380033437 23.8291139,-0.380033437 C26.6702945,-0.380033437 28.8607595,3.64630615 28.8607595,8.55075233 C28.8607595,13.4551985 26.6702945,17.4815381 23.8291139,17.4815381 C22.4275944,17.4815381 21.1844153,16.5017977 20.2843975,14.9202089 Z M21.772962,14.8930773 C22.0954364,15.0934584 22.4358944,15.2013375 22.7848101,15.2013375 C24.6092992,15.2013375 26.2025316,12.2516329 26.2025316,8.55075233 C26.2025316,4.84987179 24.6092992,1.90016718 22.7848101,1.90016718 C22.4358944,1.90016718 22.0954364,2.00804622 21.772962,2.20842735 C23.6804289,2.78804526 25.0632911,5.42769235 25.0632911,8.55075233 C25.0632911,11.6738123 23.6804289,14.3134594 21.772962,14.8930773 Z M21.8663472,15.7878793 C22.4595702,16.3846496 23.129396,16.7214712 23.8291139,16.7214712 C26.1262788,16.7214712 28.1012658,13.0912064 28.1012658,8.55075233 C28.1012658,4.01029829 26.1262788,0.380033437 23.8291139,0.380033437 C23.129396,0.380033437 22.4595702,0.71685507 21.8663472,1.3136254 C22.1604269,1.20004149 22.4675758,1.14010031 22.7848101,1.14010031 C25.1548888,1.14010031 26.9620253,4.48582602 26.9620253,8.55075233 C26.9620253,12.6156786 25.1548888,15.9614043 22.7848101,15.9614043 C22.4675758,15.9614043 22.1604269,15.9014632 21.8663472,15.7878793 Z M20.9810127,14.2512539 C22.7661995,14.2512539 24.3037975,11.7261118 24.3037975,8.55075233 C24.3037975,5.37539282 22.7661995,2.85025078 20.9810127,2.85025078 C19.1958258,2.85025078 17.6582278,5.37539282 17.6582278,8.55075233 C17.6582278,11.7261118 19.1958258,14.2512539 20.9810127,14.2512539 Z" id="Combined-Shape" fill="#2F2F2F" fill-rule="nonzero" mask="url(#mask-2)"></path>
                            </g>
                        </g>
                    </g>
                </g>
            </g>
        </g>
    </g>
</svg>