<?xml version="1.0" encoding="utf-8"?>
<!-- Generator: Adobe Illustrator 22.0.1, SVG Export Plug-In . SVG Version: 6.00 Build 0)  -->
<svg version="1.1" id="Layer_1" xmlns="http://www.w3.org/2000/svg" xmlns:xlink="http://www.w3.org/1999/xlink" x="0px" y="0px"
	 width="24px" height="32px" viewBox="0 0 24 32" style="enable-background:new 0 0 24 32;" xml:space="preserve">
<style type="text/css">
	.st0{fill:#8EC439;}
</style>
<title>Icons / Steering Wheel Defroster</title>
<desc>Created with Sketch.</desc>
<g id="Flagship-Climate-Off-_x7C_-Desktop" transform="translate(-892.000000, -323.000000)">
	<g id="Temperature-Dial" transform="translate(257.000000, 218.000000)">
		<g id="Accessory-Defroster" transform="translate(480.000000, 91.000000)">
			<g id="All-items" transform="translate(22.000000, 14.000000)">
				<g id="Group-11" transform="translate(121.000000, 0.000000)">
					<g id="Icons-_x2F_-Steering-Wheel-Defroster" transform="translate(12.000000, 0.000000)">
						<path id="Fill-1" class="st0" d="M13.9,3l0.7-0.1l-2-2.7l-1.5,3l0.8-0.1c-1.4,4.3,2.6,8.4,1.1,12.7c0.7-0.1,1.3-0.1,2-0.2
							C16.4,11.4,12.4,7.3,13.9,3"/>
						<path id="Fill-3" class="st0" d="M18.1,2.9l0.7-0.1l-2-2.7l-1.5,3L16.1,3c-1.4,4.3,2.6,8.4,1.1,12.7c0.7-0.1,1.3-0.1,2-0.2
							C20.6,11.3,16.6,7.1,18.1,2.9"/>
						<path id="Fill-5" class="st0" d="M22.2,2.8L23,2.7L21,0l-1.5,3l0.8-0.1c-1.4,4.3,2.6,8.4,1.1,12.7c0.7-0.1,1.3-0.1,2-0.2
							C24.7,11.2,20.7,7,22.2,2.8"/>
						<path id="Fill-8" class="st0" d="M12,29c-3.6,0-6.8-2-8.4-5l6-2.6c0.6,0.7,1.4,1.1,2.4,1.1c0.9,0,1.7-0.4,2.3-1l6,2.6
							C18.6,27.1,15.5,29,12,29L12,29z M21.2,16.5c0.3,0.9,0.4,1.8,0.4,2.8c0,0.7-0.1,1.4-0.2,2l-6.3-2.7c-0.3-1.4-1.6-2.5-3.1-2.5
							c-1.4,0-2.7,0.9-3.1,2.3l-6.4,2.8c-0.1-0.6-0.2-1.2-0.2-1.8c0-5.2,4.1-9.5,9.3-9.6c0,0,0,0,0-0.1c-0.2-0.7-0.4-1.5-0.6-2.2
							C4.8,7.9,0,13.1,0,19.4c0,6.6,5.4,12,12,12c6.6,0,12-5.4,12-12c0-1-0.1-2-0.4-3L21.2,16.5z"/>
					</g>
				</g>
			</g>
		</g>
	</g>
</g>
</svg>
