<svg id="69d21b1e-d1e0-4505-a0d6-b045068e0390" data-name="Layer 1" xmlns="http://www.w3.org/2000/svg" width="17.32" height="17.27" viewBox="0 0 17.32 17.27">
  <title>icon_map_view</title>
  <g id="19691fb7-d30e-4acc-b741-343094a5eed3" data-name="b">
    <path id="4d654d6d-5d6d-40a0-9904-03ee136be434" data-name="a" d="M18.14,16.84c.09.17-.09.43-.34.43H1.21c-.26,0-.43-.26-.35-.43l2.42-6.22c.09-.17.17-.26.35-.26H5.87a.45.45,0,0,1,.34.17c.69,1,2.33,3.11,3,4,.09.17.35.17.52,0,.61-.78,2.33-2.94,3-4,.09-.09.17-.17.26-.17h2.33a.48.48,0,0,1,.43.26l2.33,6.22ZM9.67,11.92a.26.26,0,0,1-.35,0C8.64,11,5.18,6.48,5.18,4.32a4.32,4.32,0,0,1,8.64,0C13.82,6.48,10.36,11,9.67,11.92ZM6.91,4.32a2.59,2.59,0,1,0,5.18,0,2.59,2.59,0,1,0-5.18,0Zm2.59.86a.86.86,0,1,1-.06-1.73H9.5a.86.86,0,0,1,0,1.73Z" transform="translate(-0.84)" style="fill: #fff"/>
  </g>
  <path id="3a403391-9ae0-4cc9-b756-9a5a6066b31f" data-name="a" d="M18.14,16.84c.09.17-.09.43-.34.43H1.21c-.26,0-.43-.26-.35-.43l2.42-6.22c.09-.17.17-.26.35-.26H5.87a.45.45,0,0,1,.34.17c.69,1,2.33,3.11,3,4,.09.17.35.17.52,0,.61-.78,2.33-2.94,3-4,.09-.09.17-.17.26-.17h2.33a.48.48,0,0,1,.43.26l2.33,6.22ZM9.67,11.92a.26.26,0,0,1-.35,0C8.64,11,5.18,6.48,5.18,4.32a4.32,4.32,0,0,1,8.64,0C13.82,6.48,10.36,11,9.67,11.92ZM6.91,4.32a2.59,2.59,0,1,0,5.18,0,2.59,2.59,0,1,0-5.18,0Zm2.59.86a.86.86,0,1,1-.06-1.73H9.5a.86.86,0,0,1,0,1.73Z" transform="translate(-0.84)"/>
</svg>
