<?xml version="1.0" encoding="UTF-8"?>
<svg width="14px" height="16px" viewBox="0 0 14 16" version="1.1" xmlns="http://www.w3.org/2000/svg" xmlns:xlink="http://www.w3.org/1999/xlink">
    <!-- Generator: Sketch 47.1 (45422) - http://www.bohemiancoding.com/sketch -->
    <title>Combined Shape</title>
    <desc>Created with Sketch.</desc>
    <defs></defs>
    <g id="Battery*" stroke="none" stroke-width="1" fill="none" fill-rule="evenodd">
        <g id="Hybrid-Battery-is-Not-Plugged-In-|-Tablet" transform="translate(-498.000000, -845.000000)" fill="#C4172C">
            <g id="Dynamic-Cards-Copy" transform="translate(35.000000, 714.000000)">
                <g id="Charge-Schedule-Layout-3" transform="translate(366.000000, 0.000000)">
                    <g id="Group-10" transform="translate(97.000000, 43.000000)">
                        <g id="Group-9" transform="translate(0.000000, 84.000000)">
                            <path d="M11.5294118,6.11982571 L11.9941413,6.11982571 C13.1019465,6.11982571 14,7.01973262 14,8.12256067 L14,17.2096833 C14,18.3157633 13.1029399,19.2124183 11.9941413,19.2124183 L2.00585866,19.2124183 C0.898053512,19.2124183 0,18.3125114 0,17.2096833 L0,8.12256067 C0,7.01648069 0.897060126,6.11982571 2.00585866,6.11982571 L2.47058824,6.11982571 L2.47058824,6.46656818 C2.47058824,7.38149428 3.20800159,8.11764706 4.11764706,8.11764706 C5.03363441,8.11764706 5.76470588,7.37843386 5.76470588,6.46656818 L5.76470588,6.11982571 L8.23529412,6.11982571 L8.23529412,6.47230684 C8.23529412,7.38855945 8.97270747,8.11764706 9.88235294,8.11764706 C10.7983403,8.11764706 11.5294118,7.38100315 11.5294118,6.47230684 L11.5294118,6.11982571 Z M1.64705882,11.5931181 L1.64705882,12.0539407 C1.64705882,12.6056796 2.09696018,13.0588235 2.65194164,13.0588235 L3.11276425,13.0588235 C3.6645031,13.0588235 4.11764706,12.6089222 4.11764706,12.0539407 L4.11764706,11.5931181 C4.11764706,11.0413793 3.6677457,10.5882353 3.11276425,10.5882353 L2.65194164,10.5882353 C2.10020278,10.5882353 1.64705882,11.0381367 1.64705882,11.5931181 Z M5.76470588,11.5931181 L5.76470588,12.0539407 C5.76470588,12.6056796 6.21460724,13.0588235 6.76958869,13.0588235 L7.23041131,13.0588235 C7.78215016,13.0588235 8.23529412,12.6089222 8.23529412,12.0539407 L8.23529412,11.5931181 C8.23529412,11.0413793 7.78539276,10.5882353 7.23041131,10.5882353 L6.76958869,10.5882353 C6.21784984,10.5882353 5.76470588,11.0381367 5.76470588,11.5931181 Z M9.88235294,11.5931181 L9.88235294,12.0539407 C9.88235294,12.6056796 10.3322543,13.0588235 10.8872358,13.0588235 L11.3480584,13.0588235 C11.8997972,13.0588235 12.3529412,12.6089222 12.3529412,12.0539407 L12.3529412,11.5931181 C12.3529412,11.0413793 11.9030398,10.5882353 11.3480584,10.5882353 L10.8872358,10.5882353 C10.3354969,10.5882353 9.88235294,11.0381367 9.88235294,11.5931181 Z M1.64705882,15.7107652 L1.64705882,16.1715878 C1.64705882,16.7233266 2.09696018,17.1764706 2.65194164,17.1764706 L3.11276425,17.1764706 C3.6645031,17.1764706 4.11764706,16.7265692 4.11764706,16.1715878 L4.11764706,15.7107652 C4.11764706,15.1590263 3.6677457,14.7058824 3.11276425,14.7058824 L2.65194164,14.7058824 C2.10020278,14.7058824 1.64705882,15.1557837 1.64705882,15.7107652 Z M5.76470588,15.7107652 L5.76470588,16.1715878 C5.76470588,16.7233266 6.21460724,17.1764706 6.76958869,17.1764706 L7.23041131,17.1764706 C7.78215016,17.1764706 8.23529412,16.7265692 8.23529412,16.1715878 L8.23529412,15.7107652 C8.23529412,15.1590263 7.78539276,14.7058824 7.23041131,14.7058824 L6.76958869,14.7058824 C6.21784984,14.7058824 5.76470588,15.1557837 5.76470588,15.7107652 Z M9.88235294,15.7107652 L9.88235294,16.1715878 C9.88235294,16.7233266 10.3322543,17.1764706 10.8872358,17.1764706 L11.3480584,17.1764706 C11.8997972,17.1764706 12.3529412,16.7265692 12.3529412,16.1715878 L12.3529412,15.7107652 C12.3529412,15.1590263 11.9030398,14.7058824 11.3480584,14.7058824 L10.8872358,14.7058824 C10.3354969,14.7058824 9.88235294,15.1557837 9.88235294,15.7107652 Z M3.29411765,4.83124497 C3.29411765,4.37216105 3.65965338,4 4.11764706,4 C4.57246979,4 4.94117647,4.37787718 4.94117647,4.83124497 L4.94117647,6.46287267 C4.94117647,6.9219566 4.57564073,7.29411765 4.11764706,7.29411765 C3.66282432,7.29411765 3.29411765,6.91624047 3.29411765,6.46287267 L3.29411765,4.83124497 Z M9.05882353,4.83124497 C9.05882353,4.37216105 9.42435927,4 9.88235294,4 C10.3371757,4 10.7058824,4.37787718 10.7058824,4.83124497 L10.7058824,6.46287267 C10.7058824,6.9219566 10.3403466,7.29411765 9.88235294,7.29411765 C9.42753021,7.29411765 9.05882353,6.91624047 9.05882353,6.46287267 L9.05882353,4.83124497 Z" id="Combined-Shape"></path>
                        </g>
                    </g>
                </g>
            </g>
        </g>
    </g>
</svg>