<?xml version="1.0" encoding="UTF-8"?>
<svg width="20px" height="20px" viewBox="0 0 20 20" version="1.1" xmlns="http://www.w3.org/2000/svg" xmlns:xlink="http://www.w3.org/1999/xlink">
    <!-- Generator: Sketch 48.1 (47250) - http://www.bohemiancoding.com/sketch -->
    <title>Shape</title>
    <desc>Created with Sketch.</desc>
    <defs></defs>
    <g id="Notifications-Detail-|-Desktop-" stroke="none" stroke-width="1" fill="none" fill-rule="evenodd" transform="translate(-326.000000, -676.000000)">
        <g id="Notification-Copy-6" transform="translate(300.000000, 649.000000)" fill="#454545" fill-rule="nonzero">
            <path d="M31,36.4512623 C31,35.8544228 31,34.8853326 31,34.2886684 L31,31.5775094 C31,30.9799812 31.3871388,30.2052348 31.8631498,29.8482265 L36.6368502,26.2679513 C37.1135546,25.9104229 37.8871388,25.910943 38.3631498,26.2679513 L43.1368502,29.8482265 C43.6135546,30.2057549 44,30.9808452 44,31.5775094 L44,34.2886684 C44,34.8861966 44,35.854093 44,36.4512623 L44,44.0399155 C44,44.6367549 43.5062589,45.1205889 42.9139873,45.1205889 L32.0860127,45.1205889 C31.4862245,45.1205889 31,44.6370849 31,44.0399155 L31,36.4512623 Z M37.5,31.0372556 C37.9487314,31.0372556 38.3125,30.6734869 38.3125,30.2247556 C38.3125,29.7760242 37.9487314,29.4122556 37.5,29.4122556 C37.0512686,29.4122556 36.6875,29.7760242 36.6875,30.2247556 C36.6875,30.6734869 37.0512686,31.0372556 37.5,31.0372556 Z" id="Shape" transform="translate(37.500000, 35.560294) rotate(45.000000) translate(-37.500000, -35.560294) "></path>
        </g>
    </g>
</svg>