<?xml version="1.0" encoding="UTF-8"?>
<svg width="26px" height="6px" viewBox="0 0 26 6" version="1.1" xmlns="http://www.w3.org/2000/svg" xmlns:xlink="http://www.w3.org/1999/xlink">
    <!-- Generator: Sketch 47.1 (45422) - http://www.bohemiancoding.com/sketch -->
    <title>Combined Shape</title>
    <desc>Created with Sketch.</desc>
    <defs></defs>
    <g id="Symbols" stroke="none" stroke-width="1" fill="none" fill-rule="evenodd">
        <g id="Navigation-/-Secondary-/-Dashboard" transform="translate(-275.000000, -13.000000)" fill="#696969">
            <path d="M277.785714,18.5714286 C276.247207,18.5714286 275,17.3242218 275,15.7857143 C275,14.2472068 276.247207,13 277.785714,13 C279.324222,13 280.571429,14.2472068 280.571429,15.7857143 C280.571429,17.3242218 279.324222,18.5714286 277.785714,18.5714286 Z M288,18.5714286 C286.461492,18.5714286 285.214286,17.3242218 285.214286,15.7857143 C285.214286,14.2472068 286.461492,13 288,13 C289.538508,13 290.785714,14.2472068 290.785714,15.7857143 C290.785714,17.3242218 289.538508,18.5714286 288,18.5714286 Z M298.214286,18.5714286 C296.675778,18.5714286 295.428571,17.3242218 295.428571,15.7857143 C295.428571,14.2472068 296.675778,13 298.214286,13 C299.752793,13 301,14.2472068 301,15.7857143 C301,17.3242218 299.752793,18.5714286 298.214286,18.5714286 Z" id="Combined-Shape"></path>
        </g>
    </g>
</svg>