<?xml version="1.0" encoding="UTF-8"?>
<svg width="53px" height="22px" viewBox="0 0 53 22" version="1.1" xmlns="http://www.w3.org/2000/svg" xmlns:xlink="http://www.w3.org/1999/xlink">
    <!-- Generator: Sketch 47.1 (45422) - http://www.bohemiancoding.com/sketch -->
    <title>icons / Gas + Battery</title>
    <desc>Created with Sketch.</desc>
    <defs></defs>
    <g id="Battery*" stroke="none" stroke-width="1" fill="none" fill-rule="evenodd">
        <g id="Hybrid-Battery-is-Not-Plugged-In-|-Desktop" transform="translate(-239.000000, -318.000000)" fill="#D9D9D9">
            <g id="Main-Battery-Contnet" transform="translate(239.000000, 211.000000)">
                <g id="Total-Ranges" transform="translate(0.000000, 46.000000)">
                    <g id="Max-Combined-Range" transform="translate(0.000000, 55.000000)">
                        <g id="icons-/-Gas-+-Battery" transform="translate(0.000000, 6.000000)">
                            <path d="M30.3675676,12.1623755 L30.3675676,8.97368421 L29.5081081,8.97368421 L29.5081081,12.1623755 L26.3194168,12.1623755 L26.3194168,13.021835 L29.5081081,13.021835 L29.5081081,16.2105263 L30.3675676,16.2105263 L30.3675676,13.021835 L33.5562589,13.021835 L33.5562589,12.1623755 L30.3675676,12.1623755 Z M21.4656435,11.5789474 L21.4656435,16.6099661 C21.4656435,18.6480784 20.7534248,19.9219282 18.7949619,19.9432615 C17.4766153,19.957622 16.7275631,19.2200198 16.4212691,18.0336962 C16.3699405,17.8348926 16.3320263,17.6300469 16.3007527,17.4014247 C16.289104,17.3162678 16.2788624,17.2318542 16.2673691,17.1291994 C16.2649892,17.1079426 16.2471121,16.9446435 16.2422735,16.9026984 C16.2394063,16.8778427 16.2367724,16.8558898 16.2324409,16.8197801 C16.2117546,16.6091145 16.1999797,16.3421806 16.1843878,15.8190102 C16.1824929,15.7554278 16.1800491,15.6717002 16.1755903,15.5190003 C16.1719683,15.3958328 16.1690483,15.2997827 16.166012,15.205274 C16.1582235,14.9628401 16.1503795,14.7548985 16.141226,14.5569947 C16.1215154,14.1308416 16.0963761,13.7700317 16.0628561,13.4598755 C15.9965325,12.8461914 15.4549941,12.5890881 14.8458826,12.5868668 C14.5277178,12.5857065 14.1571765,12.5931617 14.0378378,12.5957918 L14.0378378,20.2631579 L14.594196,20.2631579 C15.0780385,20.2631579 15.4702703,20.6486195 15.4702703,21.1315789 L15.4702703,22 L0,22 L0,21.1315789 C0,20.6519632 0.382413297,20.2631579 0.876074266,20.2631579 L1.43243243,20.2631579 L1.43243243,2.99952687 C1.43243243,1.34293392 2.78143162,0 4.43572616,0 L11.0345441,0 C12.6932174,0 14.0378378,1.34851556 14.0378378,2.99952687 L14.0378378,11.4401819 C14.2022561,11.4375202 14.520479,11.4328843 14.7544399,11.4326644 C15.9140539,11.4315744 17.0567389,11.9898189 17.2020299,13.3341791 C17.2384928,13.6715658 17.2651959,14.0548206 17.2859226,14.5029398 C17.2953611,14.707006 17.303403,14.9201965 17.3113547,15.1677066 C17.3144305,15.2634473 17.3173802,15.3604735 17.3210307,15.4846099 C17.3255019,15.6377306 17.3279323,15.721003 17.3298145,15.7841577 C17.3445279,16.2778497 17.3557257,16.5317009 17.3709856,16.6893913 C17.3740792,16.7139068 17.3771983,16.7399036 17.3805137,16.7686451 C17.3858178,16.8146257 17.4040072,16.9807769 17.4060518,16.9990393 C17.4165722,17.0930046 17.4257386,17.1685557 17.435907,17.2428905 C17.4614694,17.4297625 17.4914193,17.5915778 17.5301035,17.7414077 C17.715248,18.4585006 18.0553018,18.7933565 18.7826088,18.785434 C19.9419563,18.7728054 20.3196975,18.0971905 20.3196975,16.6099661 L20.3196975,11.6420747 L18.0163209,9.05355118 C17.8700248,8.88914431 17.8002177,8.698052 17.8015932,8.51177078 C17.5434352,8.25711144 17.3865675,7.9016577 17.3962939,7.51312121 L17.4578347,5.05478837 L15.6901253,3.28707894 C15.3952522,2.99220592 15.3907815,2.51859307 15.6974262,2.21194833 L15.6263662,2.28300831 C15.9252715,1.98410309 16.4083094,1.97663526 16.7047621,2.26584101 L21.2327853,6.6831749 C21.3319303,6.77989627 21.3898169,6.88201743 21.407867,6.98009344 C21.4584942,7.10043523 21.4864865,7.23312792 21.4864865,7.37306294 L21.4864865,11.5789474 L21.4656435,11.5789474 Z M39.2486486,5.18001615 C39.2486486,4.07776314 40.1509132,3.18421053 41.2482132,3.18421053 L51.0004354,3.18421053 C52.1047645,3.18421053 53,4.07907701 53,5.18001615 L53,20.0041944 C53,21.1064474 52.0977354,22 51.0004354,22 L41.2482132,22 C40.1438842,22 39.2486486,21.1051335 39.2486486,20.0041944 L39.2486486,5.18001615 Z M43.5459459,1.01315789 C43.5459459,0.45360624 44.0035737,0 44.5647551,0 L47.6838935,0 C48.2465663,0 48.7027027,0.449705149 48.7027027,1.01315789 C48.7027027,1.57270955 48.2450749,2.02631579 47.6838935,2.02631579 L44.5647551,2.02631579 C44.0020824,2.02631579 43.5459459,1.57661064 43.5459459,1.01315789 Z M3.15135135,2.74529146 L3.15135135,6.51786644 C3.15135135,7.0720255 3.59841386,7.52631579 4.1498934,7.52631579 L11.3203769,7.52631579 C11.8767481,7.52631579 12.3189189,7.07481763 12.3189189,6.51786644 L12.3189189,2.74529146 C12.3189189,2.19113239 11.8718564,1.73684211 11.3203769,1.73684211 L4.1498934,1.73684211 C3.59352219,1.73684211 3.15135135,2.18834026 3.15135135,2.74529146 Z"></path>
                        </g>
                    </g>
                </g>
            </g>
        </g>
    </g>
</svg>