<?xml version="1.0" encoding="UTF-8"?>
<svg width="31px" height="31px" viewBox="0 0 31 31" version="1.1" xmlns="http://www.w3.org/2000/svg" xmlns:xlink="http://www.w3.org/1999/xlink">
    <!-- Generator: Sketch 47.1 (45422) - http://www.bohemiancoding.com/sketch -->
    <title>Combined Shape</title>
    <desc>Created with Sketch.</desc>
    <defs></defs>
    <g id="Symbols" stroke="none" stroke-width="1" fill="none" fill-rule="evenodd" stroke-linecap="round" stroke-linejoin="bevel">
        <g id="Components-/-Vehicle-Health-/-Mobile" transform="translate(-35.000000, -62.000000)" stroke="#8EC439" stroke-width="2">
            <g id="Vehicle-Health-Copy-2">
                <g transform="translate(10.000000, 46.000000)">
                    <path d="M32.164449,43.3660833 C34.5224838,45.0255806 37.397448,46 40.5,46 C48.5081289,46 55,39.5081289 55,31.5 C55,23.4918711 48.5081289,17 40.5,17 C32.4918711,17 26,23.4918711 26,31.5 C26,33.9691268 26.6171555,36.2941092 27.705624,38.3291049 L34.6263745,31.4085285 C34.0319091,28.781481 35.1745837,25.9368806 37.5787067,24.5214442 C39.6608277,23.2955086 42.1485101,23.3987641 44.0763446,24.5629255 C44.271217,24.6808039 44.2688296,24.9658011 44.0715697,25.0798 L40.7835078,26.9780903 L40.7969369,29.9856314 L43.3947387,31.5010407 L46.6825022,29.6027504 C46.8800605,29.4887515 47.1280528,29.6296088 47.1328277,29.8573081 C47.1766963,32.0916265 46.0399902,34.2811809 43.9677173,35.4775723 C42.5191556,36.3140615 40.8781089,36.512515 39.367773,36.1627593 L32.164449,43.3660833 Z" id="Combined-Shape"></path>
                </g>
            </g>
        </g>
    </g>
</svg>