<?xml version="1.0" encoding="UTF-8"?>
<svg width="24px" height="32px" viewBox="0 0 24 32" version="1.1" xmlns="http://www.w3.org/2000/svg" xmlns:xlink="http://www.w3.org/1999/xlink">
    <!-- Generator: Sketch 48.1 (47250) - http://www.bohemiancoding.com/sketch -->
    <title>Icons / Steering Wheel Defroster</title>
    <desc>Created with Sketch.</desc>
    <defs></defs>
    <g id="Flagship-Climate-Off-|-Desktop" stroke="none" stroke-width="1" fill="none" fill-rule="evenodd" transform="translate(-892.000000, -323.000000)">
        <g id="Temperature-Dial" transform="translate(257.000000, 218.000000)" fill="#9BA1A9">
            <g id="Accessory-Defroster" transform="translate(480.000000, 91.000000)">
                <g id="All-items" transform="translate(22.000000, 14.000000)">
                    <g id="Group-11" transform="translate(121.000000, 0.000000)">
                        <g id="Icons-/-Steering-Wheel-Defroster" transform="translate(12.000000, 0.000000)">
                            <path d="M13.9058769,2.97586154 L14.6508,2.91816923 L12.6777231,0.217246154 L11.1421846,3.18909231 L11.9258769,3.12863077 C10.5117231,7.40755385 14.5423385,11.5434 12.9772615,15.8264769 C13.6381846,15.7761692 14.2986462,15.7258615 14.9581846,15.6755538 C16.4369538,11.3947846 12.4044923,7.25755385 13.9058769,2.97586154" id="Fill-1"></path>
                            <path d="M18.0583846,2.86721538 L18.8033077,2.80952308 L16.8302308,0.1086 L15.2946923,3.08044615 L16.0783846,3.01998462 C14.6642308,7.29890769 18.6948462,11.4352154 17.1297692,15.7178308 C17.7902308,15.6675231 18.4506923,15.6172154 19.1102308,15.5673692 C20.5894615,11.2861385 16.557,7.14890769 18.0583846,2.86721538" id="Fill-3"></path>
                            <path d="M22.2108462,2.75884615 L22.9557692,2.70115385 L20.9822308,-0.000230769231 L19.4471538,2.97207692 L20.2308462,2.91161538 C18.8166923,7.19053846 22.8473077,11.3263846 21.2822308,15.6094615 C21.9426923,15.5591538 22.6031538,15.5088462 23.2626923,15.4585385 C24.7419231,11.1773077 20.709,7.04053846 22.2108462,2.75884615" id="Fill-5"></path>
                            <path d="M11.9556,29.0025231 C8.33990769,29.0025231 5.18713846,27.0012923 3.53529231,24.0506769 L9.55006154,21.4637538 C10.1371385,22.1325231 10.9956,22.5571385 11.9556,22.5571385 C12.8463692,22.5571385 13.6512923,22.1929846 14.2319077,21.6059077 L20.2803692,24.2071385 C18.6049846,27.0700615 15.5048308,29.0025231 11.9556,29.0025231 L11.9556,29.0025231 Z M21.1822154,16.5428308 C21.4540615,17.4331385 21.6026769,18.3769846 21.6026769,19.3549846 C21.6026769,20.0394462 21.5288308,20.7059077 21.3926769,21.3502154 L15.0723692,18.6317538 C14.7442154,17.2125231 13.4745231,16.1532923 11.9556,16.1532923 C10.5160615,16.1532923 9.29898462,17.1031385 8.8956,18.4097538 L2.48436923,21.1669846 C2.37175385,20.5794462 2.3076,19.9748308 2.3076,19.3549846 C2.3076,14.1488308 6.45590769,9.9036 11.6191385,9.72452308 C11.6122154,9.70190769 11.6052923,9.67929231 11.5988308,9.65621538 C11.3782154,8.92744615 11.1585231,8.18990769 10.9896,7.44175385 C4.83913846,7.93421538 -9.23076923e-05,13.0776 -9.23076923e-05,19.3549846 C-9.23076923e-05,25.9577538 5.35236923,31.3102154 11.9556,31.3102154 C18.5583692,31.3102154 23.9103692,25.9577538 23.9103692,19.3549846 C23.9103692,18.3220615 23.7797538,17.3200615 23.5332923,16.3637538 L21.1822154,16.5428308 Z" id="Fill-8"></path>
                        </g>
                    </g>
                </g>
            </g>
        </g>
    </g>
</svg>