<?xml version="1.0" encoding="UTF-8"?>
<svg width="30px" height="21px" viewBox="0 0 30 21" version="1.1" xmlns="http://www.w3.org/2000/svg" xmlns:xlink="http://www.w3.org/1999/xlink">
    <!-- Generator: Sketch 47.1 (45422) - http://www.bohemiancoding.com/sketch -->
    <title>engine-outline</title>
    <desc>Created with Sketch.</desc>
    <defs>
        <path d="M28.1952808,8.60803488 L26.7793999,8.60803488 C26.1192188,8.60803488 25.5839467,9.14330693 25.5839467,9.80348804 L25.5839467,10.6308269 L24.9002533,10.6308269 L21.4501917,7.43278759 L16.6140068,7.4129491 L16.4218673,7.4129491 L16.4218673,6.37914295 L20.3146214,6.37914295 L20.3146214,5 L7.74877015,5 L7.74877015,6.37914295 L11.6415242,6.37914295 L11.6415242,7.4129491 L11.5210237,7.4129491 L6.6683068,7.4129491 C6.14332137,7.4129491 5.71752844,7.94822115 5.71752844,8.60803488 L5.71752844,10.0213441 L3.46145042,10.0213441 C2.81265808,10.0213441 2.2869379,10.7366322 2.2869379,11.6198127 L2.2869379,13.1819107 L1.37877557,13.1819107 L1.37877557,9.28915662 L0,9.28915662 L0,21.8546405 L1.37914295,21.8546405 L1.37914295,17.9626212 L2.28730528,17.9626212 L2.28730528,20.593059 C2.28730528,21.4755047 2.81339284,22.1911602 3.4618178,22.1911602 L5.95522303,22.1911602 L8.92879337,25.0677423 L13.5636542,25.0872134 L18.4446593,25.0872134 L23.0953174,25.0872134 C23.5982601,25.0872134 24.0064188,24.5519414 24.0064188,23.8917603 L24.0064188,21.869703 L25.5835793,21.869703 L25.5835793,23.3406909 C25.5835793,24.000872 26.1188514,24.5354093 26.7790325,24.5354093 L28.1949134,24.5354093 C28.8550945,24.5354093 29.3899992,24.000872 29.3899992,23.3406909 L29.3899992,9.80348804 C29.3903666,9.14330693 28.8554619,8.60803488 28.1952808,8.60803488 Z" id="path-1"></path>
    </defs>
    <g id="Symbols" stroke="none" stroke-width="1" fill="none" fill-rule="evenodd">
        <g id="Icons-/-Remote-Commands-/-Car-Engine-Outline" transform="translate(0.000000, -5.000000)">
            <mask id="mask-2" fill="white">
                <use xlink:href="#path-1"></use>
            </mask>
            <path stroke="#BB1A30" d="M21.2532305,7.93198368 L16.6140068,7.9129491 L15.9218673,7.9129491 L15.9218673,5.87914295 L19.8146214,5.87914295 L19.8146214,5.5 L8.24877015,5.5 L8.24877015,5.87914295 L12.1415242,5.87914295 L12.1415242,7.9129491 L6.6683068,7.9129491 C6.44783751,7.9129491 6.21752844,8.20244889 6.21752844,8.60803488 L6.21752844,10.5213441 L3.46145042,10.5213441 C3.12792737,10.5213441 2.7869379,10.9853786 2.7869379,11.6198127 L2.7869379,13.6819107 L0.878775572,13.6819107 L0.878775572,9.78915662 L0.5,9.78915662 L0.5,21.3546405 L0.879142952,21.3546405 L0.879142952,17.4626212 L2.78730528,17.4626212 L2.78730528,20.593059 C2.78730528,21.2267558 3.1286403,21.6911602 3.4618178,21.6911602 L6.15749095,21.6911602 L9.13193912,24.5685915 L13.5636542,24.5872134 L23.0953174,24.5872134 C23.2880535,24.5872134 23.5064188,24.300742 23.5064188,23.8917603 L23.5064188,21.369703 L26.0835793,21.369703 L26.0835793,23.3406909 C26.0835793,23.7244944 26.3947585,24.0354093 26.7790325,24.0354093 L28.1949134,24.0354093 C28.5790698,24.0354093 28.8899992,23.724612 28.8899992,23.3406909 L28.8899993,9.8032098 C28.8902129,9.41925741 28.5791886,9.10803488 28.1952808,9.10803488 L26.7793999,9.10803488 C26.3953612,9.10803488 26.0839467,9.4194493 26.0839467,9.80348804 L26.0839467,11.1308269 L24.7041594,11.1308269 L21.2532305,7.93198368 Z"></path>
        </g>
    </g>
</svg>