<?xml version="1.0" encoding="UTF-8"?>
<svg width="20px" height="19px" viewBox="0 0 20 19" version="1.1" xmlns="http://www.w3.org/2000/svg" xmlns:xlink="http://www.w3.org/1999/xlink">
    <!-- Generator: Sketch 47.1 (45422) - http://www.bohemiancoding.com/sketch -->
    <title>Icons / Charge Bolt</title>
    <desc>Created with Sketch.</desc>
    <defs></defs>
    <g id="Battery*" stroke="none" stroke-width="1" fill="none" fill-rule="evenodd">
        <g id="Hybrid-Battery-is-Plugged-In-|-Desktop" transform="translate(-707.000000, -438.000000)" fill="#D9D9D9">
            <g id="Main-Battery-Contnet" transform="translate(239.000000, 257.000000)">
                <g id="Charge-Time-Estimates" transform="translate(465.000000, 0.000000)">
                    <g id="Group-3" transform="translate(0.000000, 170.000000)">
                        <path d="M10.2968567,21.8694758 L11.138222,21.8694758 L9.13036152,29.3500534 C5.54168887,27.9665845 3,24.5257152 3,20.5 C3,15.2532949 7.31727394,11 12.6429012,11 C13.4971606,11 14.3254752,11.1094368 15.1141883,11.3148562 L9.52041758,19.9269783 C9.35396346,20.1832497 9.27053761,20.4460337 9.26301632,20.6942633 C8.98308274,20.7500484 8.78574075,20.9891829 8.78574075,21.2757258 C8.78574075,21.5940547 9.05587505,21.8694758 9.38910259,21.8694758 L10.1509815,21.8694758 C10.1838504,21.8806031 10.2175629,21.890918 10.2521073,21.9003861 L10.2968567,21.8694758 Z M14.3901866,19.0194758 L16.3424043,11.7242676 C19.832073,13.1537192 22.2858025,16.5445565 22.2858025,20.5 C22.2858025,25.7467051 17.9685285,30 12.6429012,30 C11.8551937,30 11.0895458,29.9069505 10.3566648,29.7313999 L15.9874293,20.9197867 C16.146869,20.6702786 16.2294635,20.4244377 16.2416477,20.1986995 C16.533297,20.1514238 16.7411343,19.9072896 16.7411343,19.6132258 C16.7411343,19.294897 16.471,19.0194758 16.1377724,19.0194758 L14.3901866,19.0194758 Z" id="Icons-/-Charge-Bolt"></path>
                    </g>
                </g>
            </g>
        </g>
    </g>
</svg>