<?xml version="1.0" encoding="UTF-8"?>
<svg width="33px" height="25px" viewBox="0 0 33 25" version="1.1" xmlns="http://www.w3.org/2000/svg" xmlns:xlink="http://www.w3.org/1999/xlink">
    <!-- Generator: Sketch 48.1 (47250) - http://www.bohemiancoding.com/sketch -->
    <title>Combined Shape</title>
    <desc>Created with Sketch.</desc>
    <defs></defs>
    <g id="Flagship-Climate-Off-|-Desktop" stroke="none" stroke-width="1" fill="none" fill-rule="evenodd" transform="translate(-284.000000, -329.000000)">
        <g id="Temperature-Dial" transform="translate(257.000000, 218.000000)" fill="#9BA1A9">
            <g id="Front-Defroster-Control" transform="translate(0.000000, 90.000000)">
                <g id="Page-1" transform="translate(17.000000, 21.000000)">
                    <g id="Group-5">
                        <path d="M25.3479118,17.2027661 C25.3886765,17.4657478 25.4187647,17.7068741 25.444,17.9376101 C24.4821471,17.9784547 23.5222353,18.0773415 22.5691176,18.239645 C22.5377353,17.6674627 22.4727059,17.0648261 22.3733824,16.431377 L22.3132059,16.1121444 C23.2304118,15.9570067 24.1550588,15.8534621 25.0835882,15.8025855 L25.3479118,17.2027661 Z M26.4191176,-3.55271368e-15 C32.2646471,-3.55271368e-15 38.1101765,2.23606114 42.8382353,6.70818343 C41.3477353,11.2695189 39.7459412,16.0533497 38.0681176,21.0593177 C37.3320882,20.635824 36.5808529,20.2574743 35.8186176,19.9196109 C35.9017647,19.203756 35.9014412,18.4341583 35.8144118,17.6179834 C36.2065294,17.7770623 36.5963824,17.9440234 36.9813824,18.1231663 C38.2929706,14.2067451 39.4450588,10.7539457 40.5408529,7.41758914 C36.4915588,4.01100857 31.527,2.14971429 26.4191176,2.14971429 C21.2989412,2.14971429 16.3224118,4.01996571 12.2679412,7.44231086 C13.3537059,11.0366331 14.4844412,14.7083451 15.5818529,18.253224 C16.5417647,17.7928269 17.5272353,17.4012206 18.5279118,17.0662234 L18.5537941,17.2027303 C18.6838529,18.0421937 18.7301176,18.7082469 18.7129706,19.2442423 C17.2541765,19.760532 15.8287059,20.4258686 14.4562941,21.2431183 C12.8926765,16.2027549 11.3973235,11.3576571 10,6.70818343 C14.7280588,2.23606114 20.5735882,-3.55271368e-15 26.4191176,-3.55271368e-15 Z M31.8185,16.8444804 C31.9265588,17.5420627 31.9754118,18.1171113 31.9799412,18.600797 C31.1106176,18.3843924 30.2338529,18.2174313 29.3519118,18.1038547 C29.3182647,17.5714421 29.2590588,17.0160993 29.1675,16.431377 L29.0691471,15.9104295 C29.9604706,16.007525 30.8469412,16.1537055 31.7243529,16.3464633 L31.8185,16.8444804 Z M20.6559265,12.5789815 L21.4171912,16.6157866 C21.6763382,18.2671255 22.4654265,23.2927992 17.9648088,24.6446112 C17.8797206,24.6700495 17.7943088,24.6822312 17.7101912,24.6822312 C17.2828088,24.6822312 16.8913382,24.3672981 16.7738971,23.8882701 C16.6338088,23.3153712 16.9395441,22.7249163 17.4568676,22.5697786 C19.4371912,21.9750243 20.0318382,20.3609472 19.5073971,17.0013021 L18.7626324,13.0547849 L17.0637794,13.5155403 L18.4656324,7.4246832 L22.3479853,12.0823975 L20.6458971,12.5438695 C20.6488088,12.5560512 20.6536618,12.5667998 20.6559265,12.5789815 Z M27.4500441,12.5789815 L28.2113088,16.6157866 C28.4704559,18.2671255 29.2595441,23.2927992 24.7589265,24.6446112 C24.6738382,24.6700495 24.5884265,24.6822312 24.5043088,24.6822312 C24.0769265,24.6822312 23.6854559,24.3672981 23.5680147,23.8882701 C23.4279265,23.3153712 23.7336618,22.7249163 24.2509853,22.5697786 C26.2313088,21.9750243 26.8259559,20.3609472 26.3015147,17.0013021 L25.55675,13.0547849 L23.8578971,13.5155403 L25.25975,7.4246832 L29.1421029,12.0823975 L27.4400147,12.5438695 C27.4429265,12.5560512 27.4477794,12.5667998 27.4500441,12.5789815 Z M31.7303382,7.06632583 L35.6126912,11.7240401 L33.9106029,12.1858704 C33.9135147,12.1976938 33.9183676,12.2084424 33.9206324,12.5789098 L34.6818971,16.615715 C34.9410441,17.9087681 35.7301324,22.9348001 31.2295147,24.2862538 C31.1444265,24.3116921 31.0590147,24.3238738 30.9748971,24.3238738 C30.5475147,24.3238738 30.1560441,24.0089407 30.0386029,23.530271 C29.8985147,22.9573721 30.20425,22.3669173 30.7215735,22.2114213 C32.7018971,21.616667 33.2965441,20.0025898 32.7721029,16.6429447 L32.0273382,12.6964275 L30.3284853,13.157183 L31.7303382,7.06632583 Z" id="Combined-Shape"></path>
                    </g>
                </g>
            </g>
        </g>
    </g>
</svg>