<?xml version="1.0" encoding="UTF-8"?>
<svg width="37px" height="44px" viewBox="0 0 37 44" version="1.1" xmlns="http://www.w3.org/2000/svg" xmlns:xlink="http://www.w3.org/1999/xlink">
    <!-- Generator: Sketch 47.1 (45422) - http://www.bohemiancoding.com/sketch -->
    <title>noun_808395_cc</title>
    <desc>Created with Sketch.</desc>
    <defs></defs>
    <g id="Symbols" stroke="none" stroke-width="1" fill="none" fill-rule="evenodd">
        <g id="Components-/-Vehicle-Health-Report" transform="translate(-643.000000, -134.000000)">
            <g id="Cards">
                <g transform="translate(50.000000, 26.000000)">
                    <g id="Active-Recalls" transform="translate(546.000000, 36.000000)">
                        <g id="noun_808395_cc" transform="translate(48.000000, 73.000000)">
                            <g id="Group">
                                <path d="M12.1423972,36.2856083 L1.87821974,36.2856083 C0.840907623,36.2856083 1.27034097e-16,35.4305756 0,34.3758394 L0,1.90976886 C-1.27034097e-16,0.855032642 0.840907623,0 1.87821974,0 L28.1732962,0 C29.2106083,0 30.0515159,0.855032642 30.0515159,1.90976886 L30.0515159,21.9901995" id="Rectangle" stroke="#F23F3F" stroke-width="2" stroke-linecap="round"></path>
                                <rect id="Rectangle-2" fill="#F23F3F" x="5.04980469" y="6.05976563" width="20.1992188" height="2.01992187" rx="1.00996094"></rect>
                                <rect id="Rectangle-2-Copy" fill="#F23F3F" x="5.04980469" y="11.1095703" width="20.1992188" height="2.01992188" rx="1.00996094"></rect>
                            </g>
                            <path d="M30.4863923,42.3642543 L21.8115492,42.3642543 C21.4111719,42.3642543 21.0775241,42.1640656 20.8773354,41.8304178 L16.5399139,34.2232478 C16.3397252,33.8896 16.3397252,33.4892226 16.5399139,33.1555748 L20.8773354,25.5484047 C21.0775241,25.2147569 21.4111719,25.0145682 21.8115492,25.0145682 L30.4863923,25.0145682 C30.8867697,25.0145682 31.2204175,25.2147569 31.4206062,25.5484047 L35.7580277,33.1555748 C35.9582164,33.4892226 35.9582164,33.8896 35.7580277,34.2232478 L31.4206062,41.8304178 C31.2204175,42.1640656 30.8867697,42.3642543 30.4863923,42.3642543 Z" id="Shape" fill="#F23F3F" fill-rule="nonzero"></path>
                            <polygon id="Shape" fill="#FFFFFF" fill-rule="nonzero" points="26.8162664 35.0907321 27.1499142 28.7514237 25.0145682 28.7514237 25.4149456 35.0907321"></polygon>
                            <path d="M26.0822412,36.1584051 C25.348216,36.1584051 24.6809204,36.8257007 24.6809204,37.5597259 C24.6809204,38.293751 25.348216,38.9610467 26.0822412,38.9610467 L26.0822412,38.9610467 C26.8162664,38.9610467 27.483562,38.293751 27.483562,37.5597259 C27.483562,36.8257007 26.8162664,36.1584051 26.0822412,36.1584051 Z" id="Shape" fill="#FFFFFF" fill-rule="nonzero"></path>
                        </g>
                    </g>
                </g>
            </g>
        </g>
    </g>
</svg>