<svg id="c14f171a-04d7-43bf-8d7f-f2dcf2ba9bc0" data-name="Layer 1" xmlns="http://www.w3.org/2000/svg" width="18" height="12" viewBox="0 0 18 12">
  <g id="a94ae6e2-7fef-4944-b5b9-45dd346dc023" data-name="b">
    <path id="53e4637c-1ec9-43fe-aef8-0a7d62ab36a3" data-name="a" d="M0,1A1,1,0,0,1,1,0H4A1,1,0,0,1,4,2H1A1,1,0,0,1,0,1ZM0,6A1,1,0,0,1,1,5H4A1,1,0,0,1,4,7H1A1,1,0,0,1,0,6Zm0,5a1,1,0,0,1,1-1H4a1,1,0,0,1,0,2H1A1,1,0,0,1,0,11ZM7,1A1,1,0,0,1,8,0h9a1,1,0,0,1,0,2H8A1,1,0,0,1,7,1ZM7,6A1,1,0,0,1,8,5h9a1,1,0,0,1,0,2H8A1,1,0,0,1,7,6Zm0,5a1,1,0,0,1,1-1h9a1,1,0,0,1,0,2H8a1,1,0,0,1-1-1Z" style="fill: #fff"/>
  </g>
  <path id="4a77c735-164c-4160-a2d0-4def70f21b39" data-name="a" d="M0,1A1,1,0,0,1,1,0H4A1,1,0,0,1,4,2H1A1,1,0,0,1,0,1ZM0,6A1,1,0,0,1,1,5H4A1,1,0,0,1,4,7H1A1,1,0,0,1,0,6Zm0,5a1,1,0,0,1,1-1H4a1,1,0,0,1,0,2H1A1,1,0,0,1,0,11ZM7,1A1,1,0,0,1,8,0h9a1,1,0,0,1,0,2H8A1,1,0,0,1,7,1ZM7,6A1,1,0,0,1,8,5h9a1,1,0,0,1,0,2H8A1,1,0,0,1,7,6Zm0,5a1,1,0,0,1,1-1h9a1,1,0,0,1,0,2H8a1,1,0,0,1-1-1Z" style="fill: #c4172c"/>
</svg>
