<svg xmlns="http://www.w3.org/2000/svg" width="14" height="14" viewBox="0 0 14 14">
    <path fill="#8E8E8E" fill-rule="evenodd" d="M6.672.344c1.844 0 3.417.65 4.719 1.953 1.302 1.302 1.953 2.87 1.953 4.703 0 1.833-.651 3.401-1.953 4.703-1.302 1.302-2.875 1.953-4.72 1.953-1.843 0-3.416-.65-4.718-1.953C.651 10.401 0 8.833 0 7c0-1.833.651-3.401 1.953-4.703C3.255.995 4.828.344 6.672.344zm.672 11.312v-1.312H6v1.312h1.344zM8.719 6.5c.416-.417.625-.917.625-1.5 0-.73-.26-1.354-.781-1.875a2.575 2.575 0 0 0-1.891-.781c-.74 0-1.37.26-1.89.781A2.557 2.557 0 0 0 4 5h1.344c0-.375.13-.693.39-.953s.573-.39.938-.39c.364 0 .677.13.937.39S8 4.625 8 5s-.135.687-.406.938l-.813.843A2.557 2.557 0 0 0 6 8.656V9h1.344c0-.458.057-.818.172-1.078.114-.26.317-.526.609-.797l.594-.625z"/>
</svg>
