<svg xmlns="http://www.w3.org/2000/svg" width="66" height="34" viewBox="0 0 66 34">
    <path fill="#C41230" fill-rule="nonzero" d="M31.113 33.41a64.469 64.469 0 0 1-6.724-.542c-9.077-1.236-16.683-4.387-20.917-8.664C1.676 22.39.538 20.397.154 18.394A7.331 7.331 0 0 1 0 16.717c0-.704.03-1.024.154-1.676.253-1.317.852-2.675 1.736-3.933C3.889 8.263 7.396 5.73 11.999 3.808 19.669.604 29.714-.665 39.495.334 50.977 1.506 60.422 5.747 64.17 11.413c1.713 2.59 2.133 5.403 1.216 8.153-.53 1.588-1.558 3.175-3.006 4.638-4.012 4.052-11.072 7.109-19.547 8.46-3.79.605-7.698.854-11.72.747zm5.008-2.138c4.595-.288 8.476-.971 12.258-2.16 3-.942 5.797-2.247 7.945-3.707 1.082-.735 1.833-1.356 2.682-2.217 1.008-1.023 1.658-1.92 2.188-3.019.593-1.229.822-2.192.822-3.451 0-1.267-.244-2.282-.844-3.507-.52-1.059-1.182-1.965-2.166-2.964C57.559 8.78 55.84 7.57 53.57 6.42 49.32 4.266 44 2.857 38.077 2.314c-3.282-.3-7.01-.3-10.302 0-8.33.76-15.48 3.262-19.904 6.967-.561.47-1.562 1.492-1.98 2.024-1.5 1.902-2.208 3.955-2.047 5.933.176 2.155 1.135 4.055 3.002 5.95 1.415 1.436 3.097 2.629 5.285 3.748 4.98 2.55 11.101 4.01 18.3 4.369.813.04 4.897.017 5.69-.033zm-23.35-6.104a.5.5 0 0 1-.144-.111c-.071-.08-.072-.139-.081-7.86l-.01-7.779-.094-.1c-.09-.095-.115-.101-.458-.111l-.362-.01v-.981l2.608-.01 2.609-.01.11.095.111.095v2.804c0 3.081-.008 2.966.21 2.966.137 0 .184-.057.94-1.144 2.005-2.88 3.108-4.447 3.207-4.556.245-.268.134-.257 2.671-.258h2.272l.087.087c.106.108.147.255.098.36-.03.067-1.014 1.544-4.446 6.683-.375.561-.48.744-.479.836.001.095.245.466 1.286 1.952 4.6 6.571 4.614 6.593 4.628 6.726.01.1-.007.155-.076.236l-.09.105-2.372.01c-2.34.01-2.376.009-2.548-.066a.933.933 0 0 1-.264-.173c-.049-.054-1.13-1.577-2.403-3.386-1.273-1.808-2.34-3.31-2.372-3.336-.089-.074-.25-.039-.303.066-.035.071-.045.811-.045 3.386v3.296l-.088.101-.086.102-2.022.008c-1.113.004-2.055-.007-2.094-.023zm18.018-.017a.345.345 0 0 1-.152-.146c-.035-.076-.044-1.805-.044-7.838v-7.74l-.105-.106c-.102-.103-.117-.106-.449-.106h-.344V8.197h5.312l.117.106.117.106v16.573l-.1.1-.099.101-2.072.009c-1.66.006-2.094-.002-2.18-.04zm7.719.007a.287.287 0 0 1-.16-.273c-.001-.064.508-1.658 1.132-3.542l2.203-6.66c.588-1.779 1.209-3.65 1.38-4.157.17-.508.309-.968.309-1.023a.349.349 0 0 0-.069-.184c-.061-.077-.105-.088-.422-.104l-.353-.018-.01-.5-.01-.5h3.187c2.092 0 3.233.014 3.32.039.074.02.153.071.174.112.045.085.403 1.155 2.087 6.244 2.74 8.28 3.367 10.192 3.367 10.27 0 .128-.071.255-.167.3-.061.027-.698.04-2.087.04-1.833 0-2.01-.006-2.123-.064a.633.633 0 0 1-.19-.155c-.035-.05-.314-.876-.618-1.835-2.898-9.14-2.817-8.89-2.882-8.964-.072-.082-.127-.08-.202.002-.059.067-.17.414-1.746 5.439a2499.668 2499.668 0 0 1-1.51 4.805c-.161.52-.233.644-.415.722-.158.066-4.081.072-4.195.006z"/>
</svg>
