<?xml version="1.0" encoding="utf-8"?>
<!-- Generator: Adobe Illustrator 21.1.0, SVG Export Plug-In . SVG Version: 6.00 Build 0)  -->
<svg version="1.1" id="Layer_1" xmlns="http://www.w3.org/2000/svg" xmlns:xlink="http://www.w3.org/1999/xlink" x="0px" y="0px"
	 width="3364.7px" height="1010.2px" viewBox="0 0 3364.7 1010.2" style="enable-background:new 0 0 3364.7 1010.2;"
	 xml:space="preserve">
<style type="text/css">
	.st0{fill:#FFFFFF;}
</style>
<title>uvo-logo</title>
<path class="st0" d="M2554.8,1010.2c-47.3-8.5-95.3-14.3-141.8-26c-109.2-27.4-204.9-78.3-274.4-170.5
	c-130.9-173.7-110.8-486.7,169.6-613.9c119.7-54.3,246.3-67.3,375.7-61.8c86,3.6,170.4,16.6,251.6,46.7
	c180.1,66.8,276.5,200.1,278.2,385.1c1.6,180-98.1,322.3-273.5,390c-64.9,25-132.1,39.4-201.3,45.4c-8.1,0.7-16.1,3.2-24.2,4.9
	L2554.8,1010.2z M2622.3,941.4c59.7-7,105.7-7.5,150.4-16.3c126.5-24.9,220.2-90.8,260.7-218.9c18.1-57.2,19.6-116.2,16.6-175.5
	c-7.3-144.1-90-255.7-226.7-301c-120.3-39.8-242.7-40.8-363.6-3.7c-117.2,36-194.3,114.9-221.9,235c-11.2,48.8-14,100.7-12.4,150.9
	c4.5,144.4,88.9,257,226.8,299C2511.2,928.9,2574,932.5,2622.3,941.4L2622.3,941.4z"/>
<path class="st0" d="M3364.7,325.3c-31.4,22.5-43.8,19.2-59.9-16.6c-54-119.7-142.4-202.7-265.3-248.8c-3.9-1.5-7.7-3-11.6-4.6
	c-16-6.6-24.3-17.9-18.8-35.2c6-18.9,21.2-23.9,37.9-17.2c31.5,12.7,63.2,25.6,92.9,42.1c94.6,52.5,163.6,129.4,210.1,226.8
	c4.6,9.7,9.9,19.1,14.8,28.6L3364.7,325.3z"/>
<path class="st0" d="M975.9,489.9c0,76.6-1,153.3,0.3,229.9c1.3,73.1-29.4,130.4-83.1,176.6c-58.4,50.3-128.6,75.8-203.1,89.7
	c-151.7,28.2-303.1,27.8-452.8-12.1c-67.6-18-129.4-48.5-177.5-101.5C21,829.7-0.4,780.3,0,721c1-159.1,0.3-318.2,0.4-477.3
	c0-46.8,22-70.1,69.2-73.1c10-0.6,20-0.6,30-0.1c45.6,1.9,70,27.1,70,73.1c0.1,140,3,280-1,419.9c-4.7,161.5,99.1,242.9,213.9,264
	c87.1,16,174.1,15.8,259.2-11.7C748,881.2,804.9,806.1,806,694.7c1.5-147.4,0.4-294.9,0-442.3c-0.1-33.1,6.1-63.9,40.5-75.4
	c38-12.7,78.9-15.3,110.6,14.1c11.9,11,17.5,33.8,17.9,51.4C976.9,324.9,975.9,407.4,975.9,489.9z"/>
<path class="st0" d="M1557.2,1004.3c-56.8,5.5-93.3-19.5-120.7-69.2c-125.3-227.2-253-453.1-379.7-679.6
	c-28.5-50.9-10.5-80.6,48.3-85.7c47.6-4.2,83,11.4,107.2,52.3c19.5,32.9,39.4,65.6,57.4,99.2c85.4,159,169.9,318.4,255.6,477.2
	c7,12.9,19.9,22.6,30.1,33.8c10.8-11.4,24.8-21,32-34.3c91.6-169.8,181.8-340.3,273.3-510.1c15.7-29.2,35.2-56.4,53.7-83.9
	c28.6-42.6,85.4-39.9,122.6-27.6c34.9,11.5,42.2,36.8,23.9,69.5c-74.2,132.9-148.5,265.7-223,398.5
	c-54.4,97.2-110.5,193.6-162.7,292.1C1648.8,985.7,1612.6,1010,1557.2,1004.3z"/>
<path class="st0" d="M3019.8,107.5c12.2,4.1,19.5,5.8,26.2,8.8c88.6,40,155.7,102.9,201.4,188.8c11.9,22.5,9.1,39.9-8,47.2
	c-20.4,8.6-32.5-1.9-41.7-19.6c-39.7-76.6-99.7-131.7-178.4-166.6c-15.2-6.7-26.8-17-20.9-34
	C3001.8,122.3,3012.9,115.1,3019.8,107.5z"/>
</svg>
