<?xml version="1.0" encoding="UTF-8"?>
<svg width="60px" height="31px" viewBox="0 0 60 31" version="1.1" xmlns="http://www.w3.org/2000/svg" xmlns:xlink="http://www.w3.org/1999/xlink">
    <g id="Symbols" stroke="none" stroke-width="1" fill="none" fill-rule="evenodd">
        <g id="Navigation-/-Secondary-/-Desktop-/-Embedded" transform="translate(-25.000000, -20.000000)" fill="#FFFFFF">
            <g transform="translate(-1.000000, 0.000000)" id="Logos-/-Kia-Logo-White">
                <g transform="translate(26.000000, 20.000000)">
                    <g id="Logo-/-Kia">
                        <g fill-rule="nonzero">
                            <path d="M28.34727,30.1233197 C26.3575687,30.0708556 24.1633872,29.8957601 22.2210917,29.634444 C13.9518681,28.5219251 7.02253428,25.6863649 3.16497586,21.8364703 C1.52914184,20.2038868 0.492531726,18.4101555 0.142957026,16.6072259 C0.0291118449,16.0200777 0.00228087786,15.7323902 0.00228087786,15.0989305 C0.00228087786,14.4654726 0.0291118449,14.1777815 0.142957026,13.5906369 C0.372749584,12.4054854 0.91850419,11.1834831 1.72380139,10.0509736 C3.54499348,7.4897805 6.74062746,5.20959394 10.933599,3.47948909 C17.9220365,0.595921122 27.0725718,-0.54631317 35.9831238,0.352635095 C46.4432855,1.40791555 55.04826,5.22502572 58.4628123,10.3244782 C60.0238197,12.655765 60.4062236,15.1878627 59.5710222,17.6625944 C59.0887034,19.0917165 58.1516519,20.5198845 56.832439,21.8364703 C53.1774506,25.4841991 46.7451019,28.2348899 39.0243842,29.451807 C35.5713998,29.9960595 32.0115933,30.2199444 28.34727,30.1233197 L28.34727,30.1233197 Z M32.9091597,28.1986284 C37.0959931,27.9394434 40.6314786,27.3240264 44.0768027,26.2546906 C46.8104283,25.406246 49.3585508,24.2316729 51.3148585,22.918255 C52.30073,22.2563629 52.9845821,21.6977729 53.758042,20.9226023 C54.6765531,20.0020517 55.2692627,19.1943645 55.7518726,18.2055945 C56.2917281,17.0995336 56.5007544,16.2324175 56.5007544,15.0989305 C56.5007544,13.9588543 56.2780537,13.0455578 55.7312388,11.9432129 C55.2583986,10.989991 54.6552095,10.1744172 53.758042,9.27525865 C52.4404535,7.95475201 50.8752556,6.86572935 48.8066146,5.83020043 C44.934124,3.89168741 40.0889708,2.62340949 34.6914035,2.13537656 C31.7018058,1.86506155 28.3052747,1.86492858 25.3060096,2.13501718 C17.7174988,2.81834091 11.2033857,5.0709181 7.17290075,8.40544893 C6.66165186,8.82841608 5.75031217,9.74852106 5.36831077,10.2273916 C4.00246472,11.9395957 3.35766116,13.7870633 3.50458297,15.5672838 C3.66465271,17.5067959 4.53806162,19.2170485 6.23949152,20.9226131 C7.52831161,22.214567 9.06068187,23.2883717 11.0535098,24.2960289 C15.5914972,26.590632 21.1676351,27.9056886 27.7259376,28.2280006 C28.4666382,28.264404 32.1872853,28.2433281 32.9091597,28.198641 L32.9091597,28.1986284 Z M11.6366869,22.7042836 C11.6007147,22.6893334 11.54185,22.6443875 11.5058797,22.6044065 C11.4409648,22.5322501 11.4404132,22.4796979 11.4320755,15.5303521 L11.423684,8.52899307 L11.3370752,8.43859637 C11.2551778,8.3531088 11.2325315,8.34769474 10.9203541,8.33893664 L10.5902364,8.32966463 L10.5902364,7.8881912 L10.5902364,7.44671777 L12.966523,7.43832624 L15.342815,7.42993471 L15.4436805,7.51480774 L15.5445495,7.59968256 L15.5445495,10.1238811 C15.5445495,12.8972056 15.5370924,12.7934418 15.7364945,12.7934418 C15.8602614,12.7934418 15.9031337,12.7418491 16.592495,11.7633395 C18.4186658,9.17117855 19.4232323,7.76135155 19.5138464,7.66345279 C19.737133,7.42221163 19.6359189,7.43187896 21.9473985,7.43107934 L24.0172704,7.43036058 L24.0962082,7.50929485 C24.193205,7.60629157 24.2297485,7.73873396 24.1856274,7.83336595 C24.1576389,7.89340042 23.2620886,9.22318266 20.1346811,13.8485443 C19.7932538,14.3535094 19.6978994,14.5180211 19.6987224,14.600684 C19.6996208,14.6864249 19.9217016,15.0197069 20.8699066,16.3579328 C25.0602744,22.2718917 25.0737009,22.2911707 25.0866296,22.410688 C25.0963508,22.50056 25.0801427,22.550397 25.0174794,22.6232506 L24.9356324,22.718418 L22.7739568,22.7272768 C20.642586,22.7360097 20.6100459,22.7351831 20.4531351,22.6676772 C20.3656063,22.6300231 20.2574975,22.5598164 20.2128913,22.5116576 C20.1682868,22.4635007 19.1829202,21.0923232 18.0231912,19.4645968 C16.8634569,17.8368668 15.8910801,16.4856314 15.8623512,16.4618476 C15.7816902,16.3950747 15.6342311,16.4269482 15.5866653,16.52144 C15.5545097,16.5853198 15.5454084,17.2516683 15.5450311,19.5690525 L15.544492,22.5349113 L15.4655865,22.6266629 L15.3866774,22.7184198 L13.5443579,22.7249246 C12.5310836,22.7285005 11.6726069,22.7191925 11.6366366,22.7042585 L11.6366869,22.7042836 Z M28.0521632,22.689549 C27.9977674,22.6656251 27.9352244,22.6064621 27.9131819,22.5580734 C27.8819337,22.4895018 27.8730948,20.933691 27.8730948,15.5036519 L27.8730948,8.5372067 L27.777505,8.44161875 C27.6851605,8.34927601 27.6712794,8.34602901 27.3687334,8.34602901 L27.0555515,8.34602901 L27.0555515,7.88820378 L27.0555515,7.43038034 L29.474962,7.43038034 L31.8943761,7.43038034 L32.0011713,7.52580477 L32.1079683,7.62122381 L32.1079683,15.0791592 L32.1079683,22.5370928 L32.017311,22.627768 L31.9266556,22.7184396 L30.0388583,22.725753 C28.5267445,22.7315929 28.1313796,22.7243155 28.0521632,22.6895562 L28.0521632,22.689549 Z M35.0838251,22.6952991 C34.9822391,22.6370364 34.9388403,22.5642475 34.9377083,22.4502162 C34.9371692,22.3926183 35.4013609,20.9578288 35.9693164,19.2617968 C36.5372737,17.5657648 37.4405686,14.8683953 37.9766345,13.2676457 C38.512704,11.6668944 39.0781115,9.98317477 39.233105,9.52604314 C39.3880985,9.06891331 39.5149112,8.65482466 39.5149112,8.60584293 C39.5149112,8.556863 39.4868328,8.48204723 39.452512,8.43958825 C39.3965943,8.37040038 39.3566959,8.36068813 39.0682663,8.3460344 L38.7464197,8.3296826 L38.7373274,7.88003507 L38.7282351,7.43038753 L41.6314342,7.43074691 C43.5372131,7.43074691 44.5766377,7.44258849 44.6568837,7.46487725 C44.7241237,7.48355065 44.7953655,7.52916318 44.8152069,7.56623505 C44.8560899,7.64262491 45.1816453,8.60508823 46.7161413,13.1860682 C49.2124825,20.6384979 49.7832663,22.3585437 49.7832663,22.4288187 C49.7832663,22.544036 49.7185042,22.6587771 49.630961,22.6986629 C49.5756002,22.723886 48.9951455,22.7349549 47.7296923,22.7349226 C46.0600855,22.7348902 45.8987544,22.7300889 45.7959806,22.6776949 C45.7343092,22.6462473 45.6567819,22.5835391 45.6237009,22.5383434 C45.5906218,22.4931495 45.3369658,21.7500034 45.0600185,20.8869069 C42.420148,12.659799 42.493219,12.8843128 42.4338817,12.8181725 C42.3683326,12.7451105 42.3184129,12.7458005 42.250623,12.8206882 C42.1967159,12.8802536 42.0950509,13.193069 40.6598894,17.71524 C40.243206,19.0282158 39.7939915,20.4409286 39.6616407,20.8546076 C39.52929,21.2682848 39.3596428,21.8017236 39.2846455,22.0400286 C39.13719,22.5085741 39.0720074,22.6202947 38.9054976,22.6898671 C38.7618138,22.7498997 35.1878872,22.7551323 35.0838377,22.6954554 L35.0838251,22.6952991 Z" id="path2996"></path>
                        </g>
                    </g>
                </g>
            </g>
        </g>
    </g>
</svg>
