<?xml version="1.0" encoding="UTF-8"?>
<svg width="16px" height="17px" viewBox="0 0 16 17" version="1.1" xmlns="http://www.w3.org/2000/svg" xmlns:xlink="http://www.w3.org/1999/xlink">
    <!-- Generator: Sketch 48.1 (47250) - http://www.bohemiancoding.com/sketch -->
    <title>notifications_climate</title>
    <desc>Created with Sketch.</desc>
    <defs></defs>
    <g id="Notifications-Dropdown-|-Desktop" stroke="none" stroke-width="1" fill="none" fill-rule="evenodd" transform="translate(-559.000000, -334.000000)">
        <g id="global-notifications" fill="#444444">
            <g id="Icons-/-Notifications" transform="translate(537.000000, 0.000000)">
                <g id="Notifications-Dropdown" transform="translate(0.000000, 71.000000)">
                    <g id="Cell-Copy-3" transform="translate(0.000000, 236.000000)">
                        <path d="M27.9667265,36.0360408 C27.9690362,36.030054 27.9713559,36.0240458 27.9736853,36.0180163 C27.857745,35.9704469 27.7747183,35.9366582 27.7644698,35.933358 C24.2716254,34.8086241 22.4159431,32.7460178 22.3921189,30.742446 C22.3680395,28.7174132 24.7529466,26.8065311 27.2898002,27.0157321 C28.8058336,27.1407513 29.5318699,27.7672452 29.102311,29.4567792 C28.8551621,30.4288608 28.4321514,31.3658555 28.6578117,32.5406829 C28.8040882,32.4964287 29.0729849,32.4511697 29.3547413,32.1338095 C29.3671373,32.1198472 29.379715,32.1070475 29.392473,32.0953739 C30.5622621,29.1866315 32.43435,27.6480675 34.257554,27.626388 C36.2825868,27.6023086 38.1934689,29.9872157 37.9842679,32.5240693 C37.8592487,34.0401027 37.2327548,34.766139 35.5432208,34.3365801 C34.4777391,34.0656845 33.4544107,33.5835091 32.1138469,33.9758235 C32.1070071,33.9969844 32.0999959,34.0184531 32.0928185,34.0402253 C32.174583,34.0882782 32.2574412,34.1310212 32.3413445,34.1673024 C35.7708031,35.650261 37.4378339,37.9222984 37.2501078,39.9387548 C37.0623817,41.9552113 34.4907978,43.6063347 31.9897088,43.1331064 C30.4950484,42.8503033 29.8384759,42.15135 30.442286,40.5159726 C30.8504926,39.4103738 31.4951112,38.3783331 31.0921106,36.8396967 C31.0565665,36.9438211 31.0209799,37.0493541 30.9854686,37.1562015 C29.8070501,40.7018584 27.6889498,42.5605667 25.6638052,42.5493007 C23.6386606,42.5380348 21.7696919,40.1201415 22.0231352,37.5873253 C22.1745938,36.0737046 22.8136634,35.3587128 24.4954432,35.8176927 C25.6140998,36.1229889 26.5766001,36.5824433 27.9667265,36.0360408 Z M28.8341057,33.1642676 C28.8375026,33.1538852 28.8363754,33.1440027 28.8297866,33.1346607 C28.8252125,33.1281752 28.8206991,33.1217665 28.8162462,33.1154336 C28.8220688,33.1316645 28.8280214,33.1479423 28.8341057,33.1642676 Z" id="notifications_climate"></path>
                    </g>
                </g>
            </g>
        </g>
    </g>
</svg>